<svg width="60" height="34" viewBox="0 0 123 74" fill="none" xmlns="http://www.w3.org/2000/svg">
<line y1="37" x2="92" y2="37" stroke="#1B1C1D" stroke-width="10"/>
<path d="M119.768 38.7678C120.744 37.7915 120.744 36.2085 119.768 35.2322L103.858 19.3223C102.882 18.346 101.299 18.346 100.322 19.3223C99.346 20.2986 99.346 21.8816 100.322 22.8579L114.464 37L100.322 51.1421C99.346 52.1184 99.346 53.7014 100.322 54.6777C101.299 55.654 102.882 55.654 103.858 54.6777L119.768 38.7678ZM36 39.5H40.1V34.5H36V39.5ZM56.5 39.5H81.1V34.5H56.5V39.5ZM113.9 39.5H118V34.5H113.9V39.5ZM121.536 40.5355C123.488 38.5829 123.488 35.4171 121.536 33.4645L89.7157 1.64466C87.7631 -0.307961 84.5973 -0.307961 82.6447 1.64466C80.692 3.59728 80.692 6.76311 82.6447 8.71573L110.929 37L82.6447 65.2843C80.692 67.2369 80.692 70.4027 82.6447 72.3553C84.5973 74.308 87.7631 74.308 89.7157 72.3553L121.536 40.5355ZM36 42H40.1V32H36V42ZM56.5 42H81.1V32H56.5V42ZM113.9 42H118V32H113.9V42Z" fill="#1B1C1D"/>
</svg>
