<svg width="29" height="48"  viewBox="0 0 49 48" fill="none" stroke="
#1b1c1d" xmlns="http://www.w3.org/2000/svg">
<g clip-path="url(#clip0_631_37696)">
<path d="M46.4899 29.7916C46.6188 29.437 46.7938 29.0594 46.8951 28.6588C46.978 28.3226 46.932 27.9219 46.5359 27.839C46.1214 27.7515 45.5872 27.6548 45.2557 27.8344C44.703 28.1292 44.1504 28.2673 43.6208 27.9311C43.4366 27.816 43.2432 27.7055 43.0452 27.6088C41.8386 27.0239 40.6182 26.4713 39.4255 25.8588C38.0255 25.1358 36.6624 24.3299 35.2532 23.6253C33.1947 22.5937 31.1039 21.6312 29.0362 20.6227C27.7283 19.9826 26.4572 19.2595 25.1309 18.6609C22.9343 17.6661 20.9863 16.1787 18.6745 15.4004C18.2139 15.2438 17.7903 14.9767 17.385 14.7004C16.9797 14.4241 16.5975 14.1063 16.2475 13.7563C15.9205 13.434 15.6765 13.0379 15.3541 12.7156C15.2113 12.5636 14.9719 12.5129 14.7738 12.4162C14.6679 12.6373 14.4837 12.8583 14.4699 13.084C14.4469 13.5215 14.3778 13.8576 13.9173 14.0511C13.816 14.0925 13.7193 14.4839 13.7883 14.5484C14.4791 15.2162 14.5206 16.1556 14.8061 16.98C15.2942 18.3984 15.6765 19.8444 16.1508 21.2674C16.4087 22.0411 16.8738 22.7595 17.0534 23.547C17.4955 25.5088 18.6238 27.2035 19.1304 29.1423C19.3376 29.939 19.9086 30.6344 20.2356 31.4081C20.5073 32.0482 20.6777 32.7251 20.8849 33.3883C20.9632 33.6462 20.9909 33.9317 21.0922 34.1758C21.5527 35.2534 21.9902 36.3402 22.5106 37.381C22.7593 37.883 22.5612 38.629 23.2935 38.8823C23.3257 38.8961 23.2935 39.0895 23.2935 39.2001C23.2935 39.3981 23.229 39.6099 23.2981 39.7757C23.602 40.5264 23.9889 41.2494 24.2606 42.0092C24.6474 43.1007 24.9559 44.2197 25.3105 45.325C25.3934 45.5921 25.5408 45.8315 25.6421 46.094C25.7066 46.269 25.7757 46.4532 25.7849 46.6328C25.7941 46.9184 25.7619 47.2131 25.7296 47.4986C25.6882 47.9315 25.9737 48.0605 26.2915 47.9914C27.1664 47.8026 28.0875 47.5401 28.5388 46.7296C29.2434 45.4585 30.4453 44.5835 31.0763 43.2342C31.546 42.2303 32.3381 41.3691 32.9736 40.4665C33.5631 41.1711 34.1802 41.977 34.8617 42.723C35.838 43.7822 36.8374 44.8184 37.8781 45.8223C38.2327 46.1677 38.5597 46.4625 38.6288 46.9921C38.7025 47.5032 39.1952 47.7565 39.711 47.7427C40.3696 47.7243 40.784 47.3743 41.2307 46.9368C41.7511 46.4256 42.4741 46.1125 42.9761 45.5875C43.7544 44.7677 44.4682 43.8789 45.1267 42.9625C45.9188 41.8665 45.6747 40.4342 44.6294 39.5961C44.4313 39.4349 44.2011 39.306 43.9938 39.1494C42.4373 37.929 40.8853 36.7086 39.3426 35.4652C39.2597 35.3962 39.2413 35.0784 39.315 35.0185C40.0564 34.4106 40.784 33.7613 41.5899 33.2547C42.4235 32.7344 43.0544 31.9054 44.0583 31.6337C44.4682 31.5232 44.8366 31.2331 45.2465 31.1824C45.6886 31.1271 46.1537 31.2837 46.605 31.2929C47.0701 31.3067 47.5445 31.2607 48.0096 31.2423C48.0234 31.1778 48.028 31.1133 48.0372 31.0488C47.526 30.6344 47.0056 30.2199 46.4853 29.7962L46.4899 29.7916ZM39.7663 31.7304C39.0709 32.3245 38.3985 32.9416 37.7077 33.5357C37.3485 33.8396 36.8926 34.0607 36.6117 34.4245C36.2203 34.9356 36.3953 35.1567 36.9617 35.4468C37.5143 35.7323 38.0439 36.1146 38.4814 36.5475C38.836 36.8975 39.0064 37.4271 39.338 37.8139C39.8906 38.4632 40.5492 39.0297 41.0788 39.6882C41.6636 40.4158 42.4281 40.8395 43.2294 41.2448C43.3031 41.2816 43.3399 41.4013 43.3906 41.4796C42.2807 42.5434 41.1893 43.5888 40.1577 44.5789C39.186 43.6763 38.2742 42.8382 37.3624 41.9954C36.515 41.2079 35.6999 40.3836 34.8157 39.6375C34.0881 39.0251 33.2914 38.4955 32.5039 37.9474C32.1677 37.7126 31.9466 37.7817 31.6841 38.1731C30.7953 39.504 29.8236 40.775 28.9072 42.0875C28.4651 42.7184 28.0829 43.3862 27.6684 44.0355C27.5809 44.0125 27.498 43.9987 27.4105 43.9803C27.3368 43.5934 27.2632 43.202 27.1941 42.8105C27.1618 42.6355 27.171 42.4421 27.102 42.2855C26.8763 41.7651 26.5862 41.2678 26.3882 40.7382C25.9875 39.6606 25.6375 38.5599 25.2461 37.4777C25.0388 36.9021 24.7809 36.3494 24.5461 35.783C24.0764 34.6685 23.6665 33.5218 23.0908 32.4626C22.7961 31.9146 22.8283 31.3206 22.5428 30.7864C22.2527 30.2475 22.1145 29.6351 21.8981 29.0548C21.8428 28.9074 21.7738 28.7693 21.7093 28.6219C21.5297 28.212 21.3317 27.8114 21.1705 27.3969C20.9264 26.789 20.7146 26.1673 20.4797 25.5595C20.1297 24.6568 19.7336 23.7726 19.4067 22.8608C19.1672 22.1977 19.0383 21.4931 18.8126 20.8253C18.4534 19.7661 18.0528 18.7253 17.6153 17.5096C18.8218 18.1267 19.9133 18.6839 21.0001 19.2503C22.5797 20.0655 24.1454 20.9036 25.7342 21.7003C26.9868 22.3312 28.2671 22.893 29.5243 23.5194C31.592 24.5509 33.6367 25.6101 35.7045 26.6417C36.7084 27.1436 37.7492 27.5857 38.7531 28.0831C39.536 28.4699 40.2913 28.9166 41.0649 29.3265C41.3781 29.4923 41.7051 29.6258 42.0643 29.7916C41.2491 30.464 40.4847 31.0903 39.7478 31.7304H39.7663ZM11.168 5.08474C11.6239 6.30511 12.0061 7.54391 12.4298 8.81955C12.1949 9.09586 12.0522 9.44125 11.8219 9.50573C11.4949 9.59783 11.0252 9.61165 10.7581 9.43665C10.0904 8.99915 9.69892 8.31298 9.48247 7.53931C9.02195 5.91367 8.03184 4.56435 7.2029 3.12753C6.78843 2.40911 6.34173 1.67689 6.86212 0.866373C7.10619 0.488746 7.53448 0.0788834 7.93513 0.00520017C8.22526 -0.0500622 8.75485 0.345985 8.93906 0.677559C9.48247 1.63084 9.89234 2.65779 10.3759 3.64331C10.6154 4.13606 10.9792 4.57816 11.168 5.08474V5.08474ZM9.48708 16.2892C9.81865 16.8188 9.593 17.6017 8.96669 17.7813C8.21144 17.9931 7.42856 18.1267 6.65028 18.2188C5.89502 18.3109 5.13517 18.3293 4.37531 18.3385C3.924 18.3385 3.47269 18.228 3.02598 18.2326C2.57928 18.2326 2.11415 18.251 1.68587 18.3707C1.02733 18.5596 0.239838 18.3477 0.0832614 17.8181C-0.123973 17.0951 0.0233938 16.501 0.893777 16.2846C1.43258 16.1464 1.98521 16.082 2.53323 15.9852C2.53323 16.0037 2.53323 16.0221 2.53323 16.0497C3.04901 15.976 3.5694 15.8793 4.08979 15.8241C4.90951 15.7412 5.73845 15.6905 6.55817 15.6214C6.87133 15.5984 7.18448 15.58 7.48842 15.5109C8.16078 15.3589 9.12787 15.7274 9.49169 16.2984L9.48708 16.2892ZM19.4205 9.08665C19.2731 8.861 19.2685 8.37285 19.4205 8.1564C19.8626 7.51628 20.3507 6.87616 20.931 6.36038C21.9349 5.46697 23.031 4.67948 24.0671 3.82291C24.2836 3.64331 24.3711 3.30713 24.5737 3.1045C24.8362 2.85121 25.1586 2.6578 25.4809 2.42293C25.9184 2.6624 26.2915 2.79135 26.5724 3.03082C26.9822 3.36239 26.9132 3.75844 26.4618 4.0808C26.3836 4.14067 26.2638 4.18672 26.2316 4.26501C25.9092 5.02487 25.1954 5.42552 24.6981 6.00117C24.1639 6.61366 23.3349 6.738 22.8744 7.46102C22.4507 8.11496 21.7507 8.58469 21.1843 9.14652C20.6961 9.63007 19.7935 9.64849 19.4205 9.09126V9.08665Z" fill="#5A2655"/>
</g>
<defs>
<clipPath id="clip0_631_37696">
<rect width="48.0368" height="48" fill="white"/>
</clipPath>
</defs>
</svg>
