<svg width="516" height="834" viewBox="0 0 516 834" fill="none" xmlns="http://www.w3.org/2000/svg">
<path d="M344.001 13C359.055 95.0474 251.485 240.002 195.818 302.221C144.071 358.834 183.665 407.859 209.93 425.294C97.0286 388.373 46.8499 544.949 10 624.261L10 691.951L0 774H35.8734C124.078 774 180.921 644.773 195.818 589.391C207.108 536.88 235.02 523.752 247.564 523.752C355.762 523.752 360.858 458.113 349.882 425.294C295.312 380.988 345.177 324.784 376.931 302.221C554.516 136.075 417.309 44.4516 344.001 13Z" fill="#1B1C1D"/>
<path d="M324.23 -7.67112e-05C338.753 82.0484 234.974 227.001 181.269 289.221C131.346 345.834 169.545 394.858 194.884 412.294C85.9615 375.372 37.5512 531.948 2 611.261V761H26.9615C112.058 761 166.897 631.774 181.269 576.391C192.161 523.88 219.09 510.752 231.192 510.752C335.577 510.752 340.493 445.113 329.903 412.294C277.257 367.988 325.365 311.784 356 289.221C527.326 123.073 394.955 31.4519 324.23 -7.67112e-05Z" fill="#FF9966"/>
</svg>
