<svg width="406" height="758" viewBox="0 0 406 758" fill="none" xmlns="http://www.w3.org/2000/svg">
<path d="M121.034 758C108.234 678 199.701 536.667 247.034 476C291.035 420.8 257.368 373 235.034 356C331.034 392 373.701 239.333 405.034 162V16H383.034C308.034 16 259.701 142 247.034 196C237.434 247.2 213.701 260 203.034 260C111.034 260 106.701 324 116.034 356C162.434 399.2 120.034 454 93.0344 476C-57.9655 638 58.701 727.333 121.034 758Z" fill="#1B1C1D"/>
<path d="M102.034 742C89.2343 662 180.701 520.667 228.034 460C272.034 404.8 238.368 357 216.034 340C312.034 376 373.667 201.333 405 124V0H364.034C289.034 0 240.701 126 228.034 180C218.434 231.2 194.701 244 184.034 244C92.0343 244 87.701 308 97.0343 340C143.434 383.2 101.034 438 74.0344 460C-76.9655 622 39.701 711.333 102.034 742Z" fill="#A6EAFF"/>
</svg>
