<svg width="102" height="43" viewBox="0 0 102 43" fill="none" xmlns="http://www.w3.org/2000/svg">
<rect x="21.4017" y="3" width="80.5983" height="40" rx="6" fill="#1B1C1D"/>
<rect x="20" width="80.5983" height="40" rx="6" fill="#4353FF"/>
<path d="M63.4829 19.7244H59.9317C59.8844 19.3598 59.7873 19.0308 59.6406 18.7372C59.4938 18.4437 59.2996 18.1927 59.0582 17.9844C58.8167 17.776 58.5302 17.6174 58.1988 17.5085C57.8721 17.3949 57.5099 17.3381 57.1121 17.3381C56.4067 17.3381 55.7982 17.5109 55.2869 17.8565C54.7802 18.2022 54.3896 18.7017 54.115 19.3551C53.8451 20.0085 53.7102 20.7992 53.7102 21.7273C53.7102 22.6932 53.8475 23.5028 54.1221 24.1562C54.4014 24.8049 54.7921 25.295 55.294 25.6264C55.8006 25.9531 56.3995 26.1165 57.0908 26.1165C57.4791 26.1165 57.8318 26.0668 58.1491 25.9673C58.471 25.8679 58.7528 25.7235 58.9942 25.5341C59.2405 25.34 59.4417 25.1056 59.5979 24.831C59.7589 24.5516 59.8702 24.2367 59.9317 23.8864L63.4829 23.9077C63.4213 24.5516 63.2343 25.1861 62.9218 25.8111C62.614 26.4361 62.1903 27.0066 61.6505 27.5227C61.1107 28.0341 60.4526 28.4413 59.6761 28.7443C58.9043 29.0473 58.0189 29.1989 57.0198 29.1989C55.7035 29.1989 54.5245 28.91 53.4829 28.3324C52.446 27.75 51.6268 26.9025 51.0255 25.7898C50.4242 24.6771 50.1235 23.3229 50.1235 21.7273C50.1235 20.1269 50.4289 18.7704 51.0397 17.6577C51.6505 16.545 52.4767 15.6998 53.5184 15.1222C54.5601 14.5445 55.7272 14.2557 57.0198 14.2557C57.9005 14.2557 58.7149 14.3788 59.463 14.625C60.2111 14.8665 60.8692 15.2216 61.4374 15.6903C62.0056 16.1544 62.4673 16.7249 62.8224 17.402C63.1775 18.0791 63.3977 18.8532 63.4829 19.7244ZM73.9568 18.8153C73.9095 18.2945 73.6988 17.8897 73.3247 17.6009C72.9554 17.3073 72.4275 17.1605 71.7409 17.1605C71.2864 17.1605 70.9076 17.2197 70.6045 17.3381C70.3015 17.4564 70.0742 17.6198 69.9227 17.8281C69.7712 18.0317 69.6931 18.2661 69.6884 18.5312C69.6789 18.7491 69.7215 18.9408 69.8162 19.1065C69.9156 19.2723 70.0577 19.419 70.2423 19.5469C70.4317 19.67 70.659 19.7789 70.9241 19.8736C71.1893 19.9683 71.4876 20.0511 71.819 20.1222L73.069 20.4062C73.7887 20.5625 74.4232 20.7708 74.9724 21.0312C75.5264 21.2917 75.9904 21.6018 76.3645 21.9616C76.7433 22.3215 77.0297 22.7358 77.2239 23.2045C77.418 23.6733 77.5174 24.1989 77.5222 24.7812C77.5174 25.6998 77.2854 26.4882 76.8261 27.1463C76.3669 27.8045 75.7063 28.3087 74.8446 28.6591C73.9876 29.0095 72.953 29.1847 71.7409 29.1847C70.5241 29.1847 69.4634 29.0024 68.5591 28.6378C67.6547 28.2732 66.9516 27.7192 66.4497 26.9759C65.9478 26.2325 65.6898 25.2926 65.6756 24.1562H69.042C69.0705 24.625 69.1959 25.0156 69.4185 25.3281C69.641 25.6406 69.9464 25.8774 70.3347 26.0384C70.7277 26.1993 71.1822 26.2798 71.6983 26.2798C72.1718 26.2798 72.5742 26.2159 72.9057 26.0881C73.2419 25.9602 73.4999 25.7827 73.6798 25.5554C73.8598 25.3281 73.9521 25.0677 73.9568 24.7741C73.9521 24.4995 73.8669 24.2652 73.7011 24.071C73.5354 23.8722 73.2797 23.7017 72.9341 23.5597C72.5932 23.4129 72.1576 23.2779 71.6273 23.1548L70.1074 22.7997C68.8479 22.5109 67.856 22.0445 67.1315 21.4006C66.4071 20.7519 66.0473 19.8759 66.052 18.7727C66.0473 17.8731 66.2887 17.0848 66.7764 16.4077C67.2641 15.7306 67.9388 15.2027 68.8006 14.8239C69.6623 14.4451 70.6448 14.2557 71.748 14.2557C72.8749 14.2557 73.8527 14.4474 74.6813 14.831C75.5146 15.2098 76.1609 15.7424 76.6202 16.429C77.0795 17.1155 77.3138 17.911 77.3233 18.8153H73.9568ZM87.7599 18.8153C87.7126 18.2945 87.5019 17.8897 87.1278 17.6009C86.7585 17.3073 86.2306 17.1605 85.544 17.1605C85.0895 17.1605 84.7107 17.2197 84.4077 17.3381C84.1046 17.4564 83.8774 17.6198 83.7259 17.8281C83.5743 18.0317 83.4962 18.2661 83.4915 18.5312C83.482 18.7491 83.5246 18.9408 83.6193 19.1065C83.7188 19.2723 83.8608 19.419 84.0455 19.5469C84.2348 19.67 84.4621 19.7789 84.7273 19.8736C84.9924 19.9683 85.2907 20.0511 85.6222 20.1222L86.8722 20.4062C87.5919 20.5625 88.2263 20.7708 88.7756 21.0312C89.3295 21.2917 89.7936 21.6018 90.1676 21.9616C90.5464 22.3215 90.8329 22.7358 91.027 23.2045C91.2211 23.6733 91.3205 24.1989 91.3253 24.7812C91.3205 25.6998 91.0885 26.4882 90.6293 27.1463C90.17 27.8045 89.5095 28.3087 88.6477 28.6591C87.7907 29.0095 86.7562 29.1847 85.544 29.1847C84.3272 29.1847 83.2666 29.0024 82.3622 28.6378C81.4579 28.2732 80.7547 27.7192 80.2528 26.9759C79.7509 26.2325 79.4929 25.2926 79.4787 24.1562H82.8452C82.8736 24.625 82.9991 25.0156 83.2216 25.3281C83.4441 25.6406 83.7495 25.8774 84.1378 26.0384C84.5308 26.1993 84.9853 26.2798 85.5014 26.2798C85.9749 26.2798 86.3774 26.2159 86.7088 26.0881C87.045 25.9602 87.303 25.7827 87.483 25.5554C87.6629 25.3281 87.7552 25.0677 87.7599 24.7741C87.7552 24.4995 87.67 24.2652 87.5043 24.071C87.3385 23.8722 87.0829 23.7017 86.7372 23.5597C86.3963 23.4129 85.9607 23.2779 85.4304 23.1548L83.9105 22.7997C82.651 22.5109 81.6591 22.0445 80.9347 21.4006C80.2102 20.7519 79.8504 19.8759 79.8551 18.7727C79.8504 17.8731 80.0919 17.0848 80.5795 16.4077C81.0672 15.7306 81.742 15.2027 82.6037 14.8239C83.4654 14.4451 84.4479 14.2557 85.5511 14.2557C86.678 14.2557 87.6558 14.4474 88.4844 14.831C89.3177 15.2098 89.964 15.7424 90.4233 16.429C90.8826 17.1155 91.117 17.911 91.1264 18.8153H87.7599Z" fill="#F5F5F5"/>
</svg>
