<svg width="117" height="43" viewBox="0 0 117 43" fill="none" xmlns="http://www.w3.org/2000/svg">
<rect x="2" y="3" width="115" height="40" rx="6" fill="#1B1C1D"/>
<rect width="115" height="40" rx="6" fill="#fff480"/>
<path d="M14.8184 21.2472V18.2926L25.1025 13.9744V17.206L18.3127 19.7415L18.4192 19.5852V19.9616L18.3127 19.7983L25.1025 22.3409V25.5653L14.8184 21.2472ZM28.5309 27V12.4545H32.0466V18.2926H37.7781V12.4545H41.2866V27H37.7781V21.1548H32.0466V27H28.5309ZM43.616 15.3097V12.4545H55.9101V15.3097H51.4995V27H48.0336V15.3097H43.616ZM58.227 12.4545H62.5807L66.2739 21.4602H66.4444L70.1375 12.4545H74.4912V27H71.0679V18.0653H70.9472L67.4529 26.9077H65.2654L61.7711 18.0156H61.6503V27H58.227V12.4545ZM77.2841 27V12.4545H80.7997V24.1449H86.8508V27H77.2841ZM100.173 21.2472L89.8887 25.5653V22.3409L96.6784 19.7983L96.579 19.9616V19.5852L96.6784 19.7415L89.8887 17.206V13.9744L100.173 18.2926V21.2472Z" fill="black"/>
</svg>
