<svg width="482" height="320" viewBox="0 0 382 220" fill="none" xmlns="http://www.w3.org/2000/svg">
<rect x="87.5799" y="32.7207" width="49" height="49" rx="5.5" transform="rotate(7.08097 87.5799 32.7207)" fill="#1B1C1D" stroke="black"/>
<rect x="87.5799" y="32.7207" width="49" height="49" rx="5.5" transform="rotate(7.08097 87.5799 32.7207)" fill="#1B1C1D" stroke="black"/>
<rect x="153.938" y="138.293" width="49" height="49" rx="5.5" transform="rotate(-30.6849 153.938 138.293)" fill="#1B1C1D" stroke="black"/>
<rect x="153.938" y="138.293" width="49" height="49" rx="5.5" transform="rotate(-30.6849 153.938 138.293)" fill="#1B1C1D" stroke="black"/>
<rect x="257.912" y="32.4515" width="49" height="49" rx="5.5" transform="rotate(21.8086 257.912 32.4515)" fill="#1B1C1D" stroke="black"/>
<rect x="257.912" y="32.4515" width="49" height="49" rx="5.5" transform="rotate(21.8086 257.912 32.4515)" fill="#1B1C1D" stroke="black"/>
<rect x="21.3525" y="70.2666" width="49" height="49" rx="5.5" transform="rotate(22.6317 21.3525 70.2666)" fill="#1B1C1D" stroke="black"/>
<rect x="21.3525" y="70.2666" width="49" height="49" rx="5.5" transform="rotate(22.6317 21.3525 70.2666)" fill="#1B1C1D" stroke="black"/>
<rect x="91.282" y="150.495" width="49" height="49" rx="5.5" transform="rotate(21.6148 91.282 150.495)" fill="#1B1C1D" stroke="black"/>
<rect x="91.282" y="150.495" width="49" height="49" rx="5.5" transform="rotate(21.6148 91.282 150.495)" fill="#1B1C1D" stroke="black"/>
<rect x="321.712" y="83.151" width="49" height="49" rx="5.5" transform="rotate(-9.18608 321.712 83.151)" fill="#1B1C1D" stroke="black"/>
<rect x="321.712" y="83.151" width="49" height="49" rx="5.5" transform="rotate(-9.18608 321.712 83.151)" fill="#1B1C1D" stroke="black"/>
<rect x="158.513" y="27.993" width="49" height="49" rx="5.5" transform="rotate(-32.8285 158.513 27.993)" fill="#1B1C1D" stroke="black"/>
<rect x="158.513" y="27.993" width="49" height="49" rx="5.5" transform="rotate(-32.8285 158.513 27.993)" fill="#1B1C1D" stroke="black"/>
<rect x="270.558" y="151.61" width="49" height="49" rx="5.5" transform="rotate(32.0602 270.558 151.61)" fill="#1B1C1D" stroke="black"/>
<rect x="270.558" y="151.61" width="49" height="49" rx="5.5" transform="rotate(32.0602 270.558 151.61)" fill="#1B1C1D" stroke="black"/>
<g filter="url(#filter0_i_10_92)">
<rect x="256.52" y="29.2016" width="50" height="50" rx="6" transform="rotate(21.8086 256.52 29.2016)" fill="#FFF480"/>
</g>
<rect x="256.798" y="29.8516" width="49" height="49" rx="5.5" transform="rotate(21.8086 256.798 29.8516)" stroke="#1B1C1D"/>
<g filter="url(#filter1_i_10_92)">
<rect x="155.057" y="27.2476" width="50" height="50" rx="6" transform="rotate(-32.8285 155.057 27.2476)" fill="#EDA6E6"/>
</g>
<rect x="155.748" y="27.3967" width="49" height="49" rx="5.5" transform="rotate(-32.8285 155.748 27.3967)" stroke="#1B1C1D"/>
<g filter="url(#filter2_i_10_92)">
<rect x="318.686" y="80.095" width="50" height="50" rx="6" transform="rotate(-9.18608 318.686 80.095)" fill="white"/>
</g>
<rect x="319.259" y="80.5088" width="49" height="49" rx="5.5" transform="rotate(-9.18608 319.259 80.5088)" stroke="#1B1C1D"/>
<g filter="url(#filter3_i_10_92)">
<rect x="89.8788" y="147.25" width="50" height="50" rx="6" transform="rotate(21.6148 89.8788 147.25)" fill="white"/>
</g>
<rect x="90.1594" y="147.899" width="49" height="49" rx="5.5" transform="rotate(21.6148 90.1594 147.899)" stroke="#1B1C1D"/>
<g filter="url(#filter4_i_10_92)">
<rect x="269.766" y="148.164" width="50" height="50" rx="6" transform="rotate(32.0602 269.766 148.164)" fill="#FF9966"/>
</g>
<rect x="269.925" y="148.853" width="49" height="49" rx="5.5" transform="rotate(32.0602 269.925 148.853)" stroke="#1B1C1D"/>
<g filter="url(#filter5_i_10_92)">
<rect x="20.007" y="66.9971" width="50" height="50" rx="6" transform="rotate(22.6317 20.007 66.9971)" fill="#A6EAFF"/>
</g>
<rect x="20.2761" y="67.651" width="49" height="49" rx="5.5" transform="rotate(22.6317 20.2761 67.651)" stroke="#1B1C1D"/>
<g filter="url(#filter6_i_10_92)">
<rect x="85.4072" y="29.9316" width="50" height="50" rx="6" transform="rotate(7.08097 85.4072 29.9316)" fill="#66CCA0"/>
</g>
<rect x="85.8417" y="30.4894" width="49" height="49" rx="5.5" transform="rotate(7.08097 85.8417 30.4894)" stroke="#1B1C1D"/>
<g filter="url(#filter7_i_10_92)">
<rect x="150.512" y="137.419" width="50" height="50" rx="6" transform="rotate(-30.6849 150.512 137.419)" fill="#66CCA0"/>
</g>
<rect x="151.197" y="137.594" width="49" height="49" rx="5.5" transform="rotate(-30.6849 151.197 137.594)" stroke="#1B1C1D"/>
<path d="M265.255 57.017L262.617 55.9615C262.69 55.6767 262.716 55.4034 262.694 55.1417C262.673 54.8801 262.603 54.636 262.485 54.4095C262.368 54.183 262.202 53.98 261.989 53.8006C261.78 53.6191 261.528 53.4693 261.232 53.3511C260.708 53.1414 260.205 53.0889 259.722 53.1937C259.243 53.2998 258.805 53.5548 258.407 53.9585C258.012 54.3636 257.677 54.9108 257.401 55.6C257.114 56.3175 256.975 56.9596 256.985 57.5266C257 58.0914 257.144 58.5715 257.418 58.9668C257.698 59.3601 258.094 59.6594 258.607 59.8649C258.896 59.9803 259.173 60.0482 259.438 60.0686C259.706 60.0904 259.959 60.0669 260.194 59.998C260.435 59.927 260.654 59.8127 260.852 59.6552C261.054 59.4955 261.23 59.2947 261.38 59.0528L264.011 60.124C263.774 60.584 263.447 60.9997 263.029 61.371C262.615 61.7438 262.13 62.0416 261.576 62.2645C261.023 62.4839 260.413 62.5907 259.747 62.585C259.083 62.5807 258.381 62.4301 257.639 62.1332C256.661 61.742 255.871 61.177 255.269 60.4384C254.672 59.6977 254.315 58.8247 254.199 57.8195C254.084 56.8144 254.263 55.7192 254.737 54.5341C255.213 53.3454 255.843 52.4286 256.627 51.7837C257.411 51.1388 258.276 50.7566 259.222 50.6371C260.167 50.5177 261.12 50.65 262.08 51.0342C262.734 51.296 263.302 51.6294 263.785 52.0347C264.268 52.4363 264.652 52.8957 264.934 53.4127C265.219 53.9263 265.392 54.4872 265.454 55.0957C265.517 55.7041 265.45 56.3445 265.255 57.017ZM272.859 59.2763C272.978 58.8754 272.942 58.5121 272.75 58.1864C272.563 57.8586 272.215 57.5927 271.705 57.3886C271.367 57.2535 271.068 57.1849 270.808 57.1828C270.548 57.1806 270.33 57.2344 270.156 57.3441C269.983 57.4503 269.855 57.6012 269.773 57.7967C269.701 57.9557 269.676 58.1108 269.697 58.262C269.721 58.4146 269.783 58.5659 269.882 58.7157C269.987 58.8634 270.123 59.0119 270.292 59.161C270.461 59.3101 270.657 59.4603 270.883 59.6116L271.727 60.1941C272.215 60.5241 272.624 60.8674 272.955 61.224C273.289 61.5821 273.541 61.9504 273.712 62.3288C273.886 62.7087 273.976 63.1015 273.981 63.5074C273.986 63.9132 273.903 64.3331 273.734 64.7671C273.457 65.448 273.051 65.9645 272.514 66.3169C271.977 66.6692 271.337 66.8474 270.593 66.8516C269.852 66.8571 269.031 66.6797 268.131 66.3195C267.227 65.9578 266.494 65.5072 265.93 64.9677C265.367 64.4281 265.009 63.8076 264.858 63.1063C264.706 62.405 264.793 61.6303 265.121 60.782L267.621 61.7826C267.503 62.1392 267.48 62.4666 267.552 62.7648C267.625 63.0631 267.781 63.3297 268.022 63.5646C268.266 63.801 268.579 63.9959 268.963 64.1493C269.314 64.29 269.632 64.3621 269.917 64.3657C270.204 64.3707 270.449 64.3155 270.65 64.2001C270.851 64.0848 270.997 63.9188 271.088 63.7022C271.166 63.4968 271.172 63.2974 271.107 63.104C271.043 62.907 270.904 62.7044 270.689 62.4962C270.48 62.2858 270.196 62.0561 269.839 61.8071L268.815 61.0916C267.966 60.5028 267.368 59.8616 267.021 59.168C266.676 58.4709 266.669 57.7133 267 56.8953C267.264 56.2257 267.678 55.7119 268.241 55.354C268.805 54.996 269.463 54.8044 270.215 54.7792C270.968 54.754 271.754 54.9053 272.573 55.2332C273.41 55.5681 274.08 56.0011 274.581 56.5323C275.087 57.0613 275.409 57.649 275.546 58.2954C275.683 58.9419 275.621 59.6023 275.359 60.2769L272.859 59.2763ZM282.665 63.2004C282.785 62.7995 282.749 62.4361 282.557 62.1105C282.37 61.7826 282.021 61.5167 281.511 61.3127C281.174 61.1776 280.875 61.109 280.614 61.1068C280.354 61.1047 280.137 61.1585 279.962 61.2682C279.789 61.3744 279.662 61.5252 279.579 61.7208C279.508 61.8797 279.482 62.0348 279.503 62.186C279.528 62.3387 279.59 62.4899 279.689 62.6397C279.793 62.7875 279.929 62.9359 280.098 63.085C280.267 63.2342 280.464 63.3844 280.689 63.5356L281.533 64.1182C282.021 64.4481 282.431 64.7914 282.761 65.1481C283.095 65.5061 283.348 65.8744 283.518 66.2528C283.693 66.6327 283.783 67.0256 283.787 67.4314C283.792 67.8373 283.71 68.2572 283.54 68.6912C283.264 69.372 282.857 69.8886 282.32 70.2409C281.784 70.5933 281.143 70.7715 280.399 70.7756C279.658 70.7811 278.838 70.6038 277.938 70.2435C277.034 69.8819 276.3 69.4313 275.737 68.8917C275.174 68.3521 274.816 67.7317 274.664 67.0304C274.512 66.3291 274.6 65.5543 274.927 64.7061L277.428 65.7066C277.309 66.0632 277.286 66.3906 277.359 66.6889C277.431 66.9871 277.588 67.2537 277.828 67.4887C278.072 67.7251 278.386 67.9199 278.769 68.0733C279.121 68.2141 279.439 68.2862 279.723 68.2897C280.011 68.2947 280.255 68.2395 280.456 68.1242C280.658 68.0089 280.804 67.8429 280.894 67.6262C280.972 67.4209 280.979 67.2214 280.913 67.028C280.849 66.8311 280.71 66.6285 280.496 66.4202C280.286 66.2099 280.003 65.9802 279.645 65.7311L278.622 65.0157C277.772 64.4268 277.174 63.7856 276.828 63.092C276.482 62.3949 276.475 61.6374 276.807 60.8194C277.071 60.1498 277.484 59.636 278.048 59.278C278.611 58.9201 279.269 58.7285 280.022 58.7033C280.774 58.678 281.56 58.8294 282.38 59.1572C283.217 59.4922 283.886 59.9252 284.388 60.4563C284.894 60.9853 285.216 61.573 285.353 62.2195C285.49 62.8659 285.427 63.5264 285.166 64.2009L282.665 63.2004Z" fill="black"/>
<path d="M276.233 174.312L279.318 176.244L273.712 185.193C273.183 186.029 272.524 186.637 271.735 187.016C270.948 187.392 270.097 187.533 269.181 187.441C268.269 187.351 267.356 187.02 266.442 186.447C265.633 185.94 264.986 185.339 264.502 184.642C264.021 183.948 263.771 183.181 263.751 182.342C263.736 181.505 264.02 180.624 264.605 179.7L267.721 181.651C267.525 181.992 267.41 182.316 267.376 182.623C267.349 182.929 267.402 183.206 267.534 183.453C267.667 183.7 267.876 183.913 268.163 184.093C268.462 184.28 268.754 184.375 269.04 184.378C269.328 184.377 269.604 184.283 269.868 184.096C270.136 183.912 270.389 183.634 270.628 183.261L276.233 174.312ZM285.847 185.736C286.096 185.247 286.134 184.769 285.962 184.303C285.797 183.836 285.409 183.411 284.798 183.029C284.393 182.775 284.023 182.617 283.688 182.553C283.352 182.49 283.059 182.509 282.808 182.61C282.56 182.706 282.359 182.871 282.207 183.105C282.078 183.293 282.009 183.488 282.001 183.688C281.997 183.891 282.041 184.1 282.134 184.317C282.234 184.532 282.376 184.756 282.559 184.988C282.742 185.22 282.961 185.46 283.217 185.708L284.171 186.657C284.724 187.197 285.173 187.736 285.516 188.274C285.864 188.815 286.104 189.349 286.236 189.878C286.373 190.409 286.397 190.938 286.308 191.463C286.22 191.988 286.015 192.512 285.695 193.032C285.179 193.847 284.533 194.419 283.757 194.749C282.982 195.079 282.113 195.159 281.151 194.991C280.193 194.825 279.175 194.404 278.096 193.729C277.013 193.05 276.171 192.297 275.57 191.469C274.968 190.64 274.651 189.755 274.619 188.814C274.587 187.873 274.881 186.893 275.501 185.874L278.497 187.75C278.261 188.183 278.155 188.6 278.179 189.002C278.203 189.405 278.343 189.785 278.598 190.145C278.858 190.507 279.218 190.832 279.677 191.12C280.099 191.384 280.492 191.551 280.859 191.622C281.229 191.696 281.558 191.682 281.844 191.58C282.131 191.478 282.358 191.298 282.526 191.039C282.675 190.792 282.73 190.536 282.691 190.271C282.654 190.001 282.522 189.707 282.293 189.388C282.072 189.068 281.759 188.705 281.356 188.3L280.201 187.137C279.241 186.178 278.619 185.21 278.333 184.233C278.05 183.252 278.218 182.272 278.837 181.293C279.334 180.49 279.988 179.923 280.8 179.592C281.611 179.261 282.506 179.167 283.484 179.311C284.462 179.454 285.442 179.833 286.423 180.448C287.426 181.076 288.189 181.792 288.713 182.595C289.243 183.396 289.521 184.23 289.548 185.097C289.574 185.964 289.339 186.803 288.843 187.613L285.847 185.736Z" fill="#802A00"/>
<path d="M176.712 50.1684L171.192 41.6126L173.26 40.2785L175.475 43.7125L178.847 41.5374L176.631 38.1034L178.695 36.772L184.215 45.3277L182.151 46.6592L179.933 43.221L176.562 45.3961L178.78 48.8342L176.712 50.1684ZM180.796 37.7951L179.712 36.1157L186.944 31.4503L188.027 33.1297L185.433 34.8034L189.869 41.6797L187.831 42.995L183.394 36.1187L180.796 37.7951ZM187.954 30.7987L190.515 29.1465L196.105 33.0422L196.205 32.9775L194.96 26.2788L197.52 24.6266L203.04 33.1824L201.027 34.4815L197.636 29.226L197.565 29.2718L198.865 35.799L197.579 36.6291L192.149 32.7248L192.078 32.7707L195.487 38.0553L193.474 39.3544L187.954 30.7987ZM204.33 32.3502L198.81 23.7944L200.878 22.4603L205.315 29.3367L208.874 27.0403L209.957 28.7197L204.33 32.3502Z" fill="#5D2958"/>
<path d="M174.024 150.427C173.825 150.233 173.612 150.084 173.387 149.98C173.16 149.872 172.921 149.808 172.671 149.788C172.421 149.768 172.164 149.794 171.9 149.866C171.634 149.935 171.365 150.05 171.094 150.211C170.548 150.535 170.153 150.948 169.91 151.448C169.671 151.947 169.594 152.514 169.677 153.148C169.759 153.778 170.013 154.452 170.439 155.171C170.868 155.893 171.337 156.446 171.849 156.832C172.36 157.217 172.893 157.426 173.447 157.459C174.002 157.491 174.561 157.34 175.126 157.005C175.624 156.71 175.998 156.379 176.246 156.013C176.497 155.642 176.622 155.253 176.624 154.845C176.625 154.438 176.505 154.032 176.263 153.625L176.805 153.385L174.068 155.01L172.89 153.025L177.744 150.145L178.628 151.634C179.226 152.642 179.524 153.633 179.521 154.605C179.522 155.576 179.263 156.475 178.744 157.304C178.228 158.13 177.487 158.83 176.519 159.404C175.446 160.041 174.364 160.369 173.274 160.386C172.184 160.403 171.157 160.116 170.191 159.525C169.224 158.93 168.387 158.038 167.683 156.851C167.135 155.927 166.786 155.027 166.637 154.149C166.486 153.268 166.508 152.432 166.703 151.642C166.902 150.85 167.25 150.134 167.746 149.492C168.246 148.848 168.872 148.304 169.623 147.858C170.275 147.471 170.937 147.204 171.609 147.059C172.284 146.911 172.939 146.879 173.574 146.963C174.212 147.045 174.806 147.24 175.356 147.548C175.905 147.856 176.379 148.271 176.778 148.793L174.024 150.427ZM183.001 155.35L177.991 146.906L180.602 145.357L181.515 146.896L181.603 146.844C181.426 146.196 181.432 145.632 181.619 145.155C181.804 144.673 182.127 144.295 182.589 144.021C182.714 143.948 182.847 143.881 182.99 143.821C183.131 143.757 183.268 143.708 183.401 143.674L184.787 146.01C184.633 146.042 184.444 146.107 184.22 146.205C183.999 146.302 183.808 146.397 183.647 146.493C183.328 146.682 183.083 146.925 182.911 147.22C182.741 147.509 182.658 147.824 182.661 148.163C182.666 148.497 182.769 148.833 182.969 149.17L185.689 153.755L183.001 155.35ZM189.516 151.484L184.506 143.04L187.194 141.445L192.205 149.888L189.516 151.484ZM185.269 141.257C184.892 141.481 184.493 141.549 184.074 141.46C183.653 141.369 183.337 141.145 183.126 140.789C182.917 140.438 182.874 140.057 182.998 139.646C183.119 139.233 183.368 138.914 183.746 138.69C184.127 138.464 184.526 138.398 184.944 138.492C185.363 138.58 185.677 138.8 185.885 139.152C186.096 139.507 186.141 139.892 186.02 140.306C185.9 140.714 185.65 141.031 185.269 141.257ZM197.071 147.164C196.448 147.534 195.786 147.709 195.085 147.688C194.385 147.668 193.691 147.426 193.004 146.961C192.317 146.497 191.69 145.786 191.122 144.83C190.533 143.837 190.206 142.926 190.14 142.098C190.075 141.269 190.205 140.55 190.532 139.94C190.863 139.328 191.323 138.846 191.913 138.496C192.356 138.233 192.781 138.085 193.188 138.052C193.592 138.015 193.967 138.055 194.314 138.171C194.661 138.288 194.963 138.443 195.222 138.636L195.277 138.604L192.749 134.343L195.437 132.748L202.117 144.006L199.457 145.585L198.644 144.216L198.562 144.265C198.603 144.593 198.586 144.932 198.512 145.283C198.438 145.635 198.285 145.973 198.052 146.3C197.823 146.624 197.496 146.912 197.071 147.164ZM196.763 144.515C197.089 144.322 197.313 144.065 197.435 143.745C197.555 143.421 197.577 143.053 197.502 142.642C197.427 142.231 197.254 141.798 196.984 141.344C196.71 140.882 196.412 140.521 196.09 140.262C195.771 140 195.441 139.849 195.1 139.809C194.762 139.766 194.43 139.842 194.104 140.035C193.771 140.233 193.543 140.492 193.421 140.812C193.299 141.133 193.276 141.495 193.353 141.901C193.434 142.304 193.609 142.732 193.878 143.187C194.148 143.641 194.443 144.001 194.764 144.267C195.085 144.532 195.415 144.691 195.753 144.743C196.093 144.789 196.429 144.713 196.763 144.515Z" fill="#355345"/>
<path d="M19.9099 88.6252L23.8279 79.2274L27.1135 80.5972C27.7682 80.8701 28.2609 81.2084 28.5918 81.612C28.9239 82.0126 29.1149 82.446 29.1648 82.912C29.2159 83.3751 29.1458 83.836 28.9545 84.2949C28.7862 84.6987 28.5753 85.0022 28.3218 85.2053C28.0714 85.4097 27.798 85.5399 27.5018 85.596C27.2086 85.6533 26.9121 85.6625 26.6122 85.6237L26.574 85.7155C26.8539 85.8537 27.1009 86.0752 27.315 86.3799C27.5291 86.6846 27.6626 87.0491 27.7155 87.4734C27.7685 87.8976 27.6917 88.3575 27.485 88.8531C27.2886 89.3242 27.0049 89.7033 26.6339 89.9903C26.2629 90.2773 25.8005 90.4346 25.2467 90.4623C24.693 90.49 24.0459 90.3495 23.3056 90.0409L19.9099 88.6252ZM21.4688 88.0901L23.7265 89.0313C24.4699 89.3413 25.0575 89.4175 25.4894 89.26C25.9257 89.1008 26.2299 88.8146 26.4021 88.4016C26.5347 88.0835 26.5761 87.756 26.5262 87.4192C26.4776 87.0793 26.3372 86.7658 26.105 86.4787C25.874 86.1885 25.5536 85.958 25.1437 85.7871L22.8309 84.8229L21.4688 88.0901ZM23.2442 83.8317L25.355 84.7117C25.6976 84.8546 26.0347 84.9161 26.3661 84.8963C26.7006 84.8777 26.9999 84.7799 27.2641 84.6028C27.5313 84.4269 27.7338 84.1738 27.8716 83.8434C28.0437 83.4304 28.046 83.0202 27.8783 82.6127C27.7119 82.2022 27.3167 81.8669 26.6926 81.6067L24.5451 80.7114L23.2442 83.8317ZM30.9696 93.4084C30.3333 93.1431 29.8381 92.7589 29.4841 92.2558C29.1331 91.754 28.9365 91.1747 28.8943 90.5179C28.8552 89.8625 28.9874 89.1707 29.291 88.4426C29.5971 87.7084 29.9973 87.123 30.4918 86.6863C30.9893 86.251 31.5398 85.9813 32.1433 85.8775C32.7498 85.7748 33.3713 85.8562 34.0076 86.1214C34.6439 86.3867 35.1375 86.7703 35.4885 87.2721C35.8425 87.7752 36.0384 88.356 36.0763 89.0146C36.1172 89.6744 35.9846 90.3714 35.6785 91.1056C35.375 91.8337 34.9751 92.4139 34.4789 92.8462C33.9857 93.2798 33.4358 93.5479 32.8293 93.6505C32.2258 93.7544 31.6059 93.6737 30.9696 93.4084ZM31.3751 92.4356C31.8585 92.6371 32.3078 92.679 32.7232 92.5613C33.1385 92.4436 33.5053 92.2141 33.8236 91.8728C34.1418 91.5315 34.3992 91.1252 34.5956 90.6541C34.792 90.183 34.9001 89.7128 34.9198 89.2434C34.9395 88.774 34.8456 88.3489 34.6382 87.9679C34.4307 87.587 34.0853 87.2958 33.602 87.0943C33.1186 86.8927 32.6687 86.8524 32.252 86.9731C31.8354 87.0939 31.4673 87.3265 31.1478 87.6708C30.8283 88.0152 30.5703 88.423 30.3739 88.8941C30.1775 89.3652 30.0701 89.8339 30.0516 90.3002C30.0332 90.7665 30.1283 91.1886 30.337 91.5665C30.5458 91.9444 30.8918 92.2341 31.3751 92.4356ZM38.6798 96.6229C38.0435 96.3576 37.5484 95.9734 37.1943 95.4703C36.8434 94.9685 36.6468 94.3892 36.6046 93.7324C36.5655 93.0769 36.6977 92.3852 37.0012 91.6571C37.3073 90.9229 37.7076 90.3375 38.202 89.9008C38.6995 89.4655 39.25 89.1958 39.8535 89.0919C40.4601 88.9893 41.0815 89.0706 41.7178 89.3359C42.3541 89.6012 42.8478 89.9848 43.1988 90.4866C43.5528 90.9897 43.7487 91.5705 43.7866 92.2291C43.8275 92.8889 43.6949 93.5859 43.3888 94.3201C43.0852 95.0482 42.6854 95.6284 42.1891 96.0607C41.696 96.4943 41.1461 96.7624 40.5395 96.865C39.936 96.9689 39.3161 96.8882 38.6798 96.6229ZM39.0854 95.6501C39.5688 95.8516 40.0181 95.8935 40.4335 95.7758C40.8488 95.6581 41.2156 95.4286 41.5338 95.0873C41.8521 94.7459 42.1094 94.3397 42.3058 93.8686C42.5023 93.3975 42.6103 92.9273 42.6301 92.4579C42.6498 91.9885 42.5559 91.5634 42.3485 91.1824C42.141 90.8015 41.7956 90.5103 41.3123 90.3087C40.8289 90.1072 40.3789 90.0669 39.9623 90.1876C39.5457 90.3084 39.1776 90.541 38.8581 90.8853C38.5386 91.2297 38.2806 91.6374 38.0842 92.1086C37.8878 92.5797 37.7803 93.0484 37.7619 93.5147C37.7434 93.981 37.8386 94.4031 38.0473 94.781C38.256 95.1589 38.6021 95.4486 39.0854 95.6501ZM49.5918 92.7264L49.2091 93.6441L45.5565 92.1213L45.9391 91.2035L49.5918 92.7264ZM47.7077 89.9587L48.7907 90.4102L45.9899 97.1282C45.8623 97.4341 45.811 97.682 45.836 97.872C45.8653 98.0601 45.9394 98.2095 46.0585 98.3202C46.1818 98.4291 46.3231 98.5167 46.4821 98.583C46.6015 98.6328 46.7019 98.6675 46.7835 98.6871C46.8663 98.7037 46.9326 98.717 46.9823 98.7269L46.797 99.7916C46.7121 99.7885 46.5982 99.7733 46.4551 99.746C46.3108 99.7217 46.1377 99.6675 45.9358 99.5833C45.6299 99.4558 45.3575 99.265 45.1187 99.0111C44.8829 98.7584 44.7248 98.4572 44.6443 98.1077C44.5669 97.7594 44.6136 97.3803 44.7845 96.9703L47.7077 89.9587ZM53.9581 97.4985L53.5372 98.508L49.4257 96.7939L49.8466 95.7843L53.9581 97.4985ZM20.4944 100.867L19.4067 100.736C19.4132 100.549 19.3886 100.353 19.3331 100.151C19.2819 99.9463 19.1763 99.7515 19.0165 99.5664C18.8567 99.3812 18.6193 99.223 18.3042 99.0916C17.8728 98.9118 17.4719 98.8613 17.1014 98.9403C16.7353 99.0175 16.4891 99.2075 16.3629 99.5104C16.2506 99.7796 16.2599 100.033 16.3906 100.271C16.5214 100.508 16.7731 100.766 17.1458 101.043L18.0849 101.736C18.6513 102.152 19.0233 102.582 19.2009 103.026C19.3798 103.467 19.3666 103.933 19.1612 104.426C18.9929 104.83 18.7261 105.142 18.361 105.363C17.9989 105.586 17.5731 105.703 17.0836 105.714C16.5941 105.726 16.0755 105.617 15.5279 105.389C14.809 105.089 14.2791 104.685 13.938 104.177C13.597 103.668 13.4888 103.088 13.6133 102.436L14.7484 102.608C14.6881 103.028 14.7546 103.39 14.9478 103.693C15.144 103.997 15.4639 104.242 15.9075 104.427C16.4123 104.637 16.8577 104.697 17.2437 104.607C17.634 104.515 17.8923 104.317 18.0186 104.014C18.1206 103.769 18.1204 103.529 18.018 103.292C17.9168 103.052 17.706 102.817 17.3856 102.587L16.3257 101.822C15.7439 101.4 15.3686 100.965 15.1997 100.517C15.0351 100.068 15.0542 99.6003 15.257 99.1139C15.4228 98.7162 15.6811 98.411 16.0319 98.1982C16.3859 97.9866 16.7934 97.8747 17.2546 97.8623C17.7189 97.8511 18.1988 97.9489 18.6944 98.1555C19.3919 98.4463 19.8757 98.8276 20.1459 99.2993C20.4191 99.7723 20.5353 100.295 20.4944 100.867ZM25.9764 101.299L25.5938 102.217L21.9411 100.694L22.3237 99.7763L25.9764 101.299ZM24.0924 98.5315L25.1753 98.983L22.3745 105.701C22.247 106.007 22.1957 106.255 22.2206 106.445C22.2499 106.633 22.3241 106.782 22.4431 106.893C22.5665 107.002 22.7077 107.089 22.8668 107.156C22.9861 107.206 23.0865 107.24 23.1681 107.26C23.251 107.276 23.3173 107.29 23.367 107.3L23.1817 108.364C23.0968 108.361 22.9828 108.346 22.8398 108.319C22.6955 108.295 22.5224 108.24 22.3205 108.156C22.0146 108.029 21.7422 107.838 21.5033 107.584C21.2676 107.331 21.1094 107.03 21.0289 106.68C20.9515 106.332 20.9982 105.953 21.1691 105.543L24.0924 98.5315ZM24.6669 109.027L27.6054 101.978L28.6516 102.414L28.2078 103.479L28.2812 103.51C28.5551 103.215 28.9056 103.028 29.3326 102.952C29.7597 102.875 30.1843 102.924 30.6065 103.1C30.686 103.133 30.7848 103.176 30.9028 103.229C31.0209 103.282 31.1092 103.324 31.1678 103.356L30.7087 104.457C30.6758 104.433 30.5974 104.384 30.4735 104.311C30.354 104.236 30.2223 104.168 30.0785 104.108C29.7359 103.965 29.4 103.91 29.0709 103.941C28.746 103.971 28.4533 104.079 28.1927 104.265C27.9365 104.449 27.742 104.7 27.6094 105.018L25.7498 109.478L24.6669 109.027ZM31.48 112.061C31.0334 111.875 30.6631 111.622 30.3692 111.302C30.0766 110.979 29.8902 110.612 29.8099 110.201C29.731 109.788 29.7872 109.352 29.9785 108.893C30.1468 108.489 30.3628 108.195 30.6265 108.01C30.8914 107.823 31.187 107.712 31.513 107.68C31.8391 107.647 32.1775 107.662 32.528 107.726C32.8829 107.787 33.2329 107.865 33.5781 107.959C34.0294 108.082 34.3938 108.186 34.6714 108.269C34.9534 108.351 35.1702 108.382 35.3219 108.363C35.4767 108.344 35.5904 108.248 35.6631 108.074L35.6784 108.037C35.8672 107.584 35.8899 107.181 35.7467 106.827C35.6066 106.474 35.2872 106.194 34.7885 105.986C34.2715 105.77 33.819 105.714 33.4309 105.818C33.0429 105.922 32.7356 106.078 32.5092 106.285L31.6343 105.489C31.9965 105.138 32.3802 104.906 32.7856 104.795C33.1953 104.682 33.602 104.654 34.0056 104.711C34.4135 104.766 34.7949 104.868 35.1497 105.016C35.3761 105.11 35.6247 105.246 35.8954 105.424C36.1705 105.599 36.4112 105.827 36.6177 106.107C36.8272 106.389 36.9542 106.734 36.9987 107.144C37.0433 107.554 36.9488 108.039 36.7154 108.599L34.7794 113.243L33.6964 112.791L34.0944 111.837L34.0393 111.814C33.9021 111.936 33.7115 112.049 33.4675 112.152C33.2235 112.255 32.9337 112.308 32.5982 112.312C32.2627 112.315 31.8899 112.232 31.48 112.061ZM32.0508 111.157C32.4791 111.336 32.8751 111.402 33.239 111.356C33.6058 111.312 33.9197 111.188 34.1806 110.984C34.4445 110.782 34.6377 110.533 34.7601 110.24L35.1733 109.249C35.1045 109.285 34.9825 109.293 34.8074 109.274C34.6365 109.253 34.4432 109.217 34.2272 109.167C34.0156 109.114 33.8099 109.061 33.61 109.006C33.4145 108.95 33.2554 108.905 33.1328 108.872C32.836 108.791 32.5481 108.741 32.2689 108.722C31.9941 108.701 31.7479 108.74 31.5304 108.839C31.3172 108.937 31.1533 109.124 31.0385 109.399C30.8816 109.775 30.9022 110.118 31.1002 110.427C31.3026 110.734 31.6194 110.977 32.0508 111.157ZM35.654 116.71L39.6945 107.018L40.7407 107.455L40.274 108.574L40.4024 108.628C40.533 108.539 40.7082 108.428 40.928 108.297C41.1521 108.165 41.4285 108.079 41.7571 108.04C42.0901 107.999 42.486 108.074 42.9449 108.266C43.5384 108.513 43.9996 108.88 44.3287 109.365C44.6577 109.851 44.8357 110.419 44.8626 111.069C44.8895 111.719 44.7486 112.415 44.44 113.155C44.1288 113.901 43.7321 114.496 43.2499 114.937C42.7689 115.376 42.2411 115.651 41.6664 115.764C41.093 115.873 40.5126 115.805 39.9253 115.56C39.4725 115.372 39.1412 115.146 38.9315 114.882C38.723 114.616 38.5855 114.355 38.519 114.101C38.4538 113.844 38.4082 113.635 38.3822 113.474L38.2904 113.435L36.737 117.161L35.654 116.71ZM39.2898 110.986C39.0679 111.519 38.9502 112.021 38.9365 112.493C38.9242 112.962 39.0201 113.373 39.2243 113.728C39.4297 114.079 39.7496 114.345 40.184 114.526C40.6368 114.715 41.0643 114.753 41.4666 114.641C41.8733 114.527 42.2379 114.298 42.5605 113.955C42.8875 113.61 43.1555 113.187 43.3647 112.685C43.5713 112.19 43.681 111.711 43.6939 111.25C43.711 110.786 43.6151 110.375 43.4061 110.015C43.2015 109.653 42.8697 109.376 42.4108 109.185C41.9703 109.001 41.5536 108.959 41.1607 109.057C40.7691 109.152 40.4139 109.367 40.0951 109.701C39.7776 110.032 39.5092 110.46 39.2898 110.986Z" fill="black"/>
<path d="M340.417 100.605C340.284 100.309 340.117 100.057 339.917 99.8474C339.716 99.6331 339.485 99.4616 339.222 99.3328C338.959 99.2041 338.669 99.1226 338.351 99.0883C338.033 99.0492 337.692 99.059 337.329 99.1177C336.598 99.236 335.993 99.5151 335.515 99.9549C335.042 100.394 334.716 100.976 334.536 101.7C334.355 102.419 334.342 103.259 334.498 104.221C334.654 105.188 334.927 105.99 335.318 106.627C335.708 107.264 336.197 107.719 336.785 107.991C337.373 108.264 338.045 108.339 338.8 108.217C339.468 108.109 340.015 107.91 340.441 107.619C340.872 107.323 341.175 106.954 341.35 106.513C341.525 106.071 341.569 105.578 341.481 105.034L342.171 105.005L338.505 105.598L338.075 102.94L344.576 101.889L344.898 103.884C345.117 105.234 345.017 106.436 344.598 107.491C344.184 108.545 343.518 109.41 342.6 110.088C341.688 110.764 340.583 111.207 339.288 111.417C337.85 111.649 336.535 111.542 335.345 111.095C334.155 110.648 333.162 109.897 332.367 108.842C331.571 107.782 331.045 106.457 330.787 104.867C330.587 103.63 330.594 102.503 330.807 101.487C331.02 100.465 331.401 99.5677 331.951 98.7939C332.505 98.0193 333.189 97.39 334.002 96.9059C334.82 96.4211 335.732 96.0974 336.739 95.9347C337.612 95.7934 338.445 95.7872 339.236 95.916C340.032 96.0441 340.757 96.2895 341.41 96.6523C342.068 97.0143 342.629 97.48 343.094 98.0495C343.559 98.619 343.896 99.272 344.106 100.009L340.417 100.605ZM348.766 109.672L346.937 98.3647L350.537 97.7826L352.365 109.09L348.766 109.672ZM348.528 96.7553C348.022 96.837 347.561 96.7404 347.144 96.4654C346.726 96.1855 346.478 95.8075 346.401 95.3315C346.325 94.8603 346.441 94.4285 346.751 94.036C347.059 93.6387 347.466 93.3991 347.972 93.3174C348.482 93.2348 348.944 93.3339 349.357 93.6146C349.774 93.8896 350.021 94.2627 350.097 94.7338C350.174 95.2099 350.058 95.6466 349.75 96.044C349.445 96.4356 349.038 96.6728 348.528 96.7553ZM359.211 96.3798L359.639 99.0301L352.506 100.184L352.077 97.5334L359.211 96.3798ZM353.134 94.5827L356.734 94.0005L358.425 104.462C358.461 104.682 358.524 104.856 358.615 104.982C358.71 105.103 358.831 105.182 358.978 105.218C359.124 105.25 359.293 105.25 359.485 105.219C359.622 105.197 359.765 105.162 359.913 105.112C360.065 105.058 360.179 105.014 360.254 104.982L361.219 107.492C361.056 107.569 360.823 107.67 360.52 107.794C360.223 107.918 359.86 108.024 359.431 108.114C358.594 108.29 357.854 108.308 357.212 108.17C356.574 108.027 356.055 107.728 355.654 107.274C355.259 106.819 355.004 106.208 354.89 105.441L353.134 94.5827Z" fill="#1B1C1D"/>
<path d="M92.3382 54.6081C92.3102 54.4092 92.2549 54.2303 92.1723 54.0711C92.0901 53.909 91.9822 53.7668 91.8485 53.6448C91.7148 53.5227 91.5565 53.424 91.3736 53.3485C91.191 53.27 90.9868 53.2168 90.7608 53.1887C90.3057 53.1322 89.898 53.1932 89.5378 53.3717C89.1807 53.5506 88.8858 53.8397 88.6532 54.2387C88.4211 54.6348 88.2678 55.1321 88.1934 55.7307C88.1187 56.3324 88.142 56.8563 88.2634 57.3025C88.3847 57.7486 88.5965 58.1037 88.8986 58.3676C89.2008 58.6315 89.587 58.7927 90.0574 58.8511C90.4727 58.9027 90.8323 58.8792 91.1361 58.7804C91.4433 58.6791 91.6873 58.5124 91.8681 58.2806C92.0488 58.0487 92.1603 57.7633 92.2024 57.4243L92.6176 57.527L90.3361 57.2436L90.5416 55.5898L94.5868 56.0923L94.4326 57.3338C94.3283 58.1737 94.0603 58.8708 93.6286 59.425C93.1999 59.9796 92.6542 60.3786 91.9913 60.6219C91.3314 60.8655 90.5984 60.9373 89.7921 60.8371C88.8972 60.726 88.1348 60.4343 87.505 59.9622C86.8751 59.4901 86.4154 58.8717 86.1259 58.1069C85.8367 57.3391 85.7536 56.4604 85.8765 55.4708C85.9721 54.7012 86.1714 54.0328 86.4745 53.4657C86.7779 52.8955 87.16 52.4282 87.6209 52.0636C88.0848 51.6995 88.6003 51.4441 89.1675 51.2975C89.7377 51.1512 90.3358 51.117 90.9619 51.1947C91.5056 51.2623 92.0014 51.4029 92.4493 51.6167C92.9003 51.8309 93.2884 52.1024 93.6135 52.4312C93.9416 52.7604 94.1944 53.1345 94.3719 53.5535C94.5493 53.9725 94.6365 54.4191 94.6334 54.8932L92.3382 54.6081ZM95.727 61.4441L96.6011 54.4073L98.8413 54.6856L97.9672 61.7224L95.727 61.4441ZM97.8254 53.7267C97.5108 53.6876 97.2534 53.5502 97.0532 53.3144C96.8534 53.0756 96.7719 52.8081 96.8087 52.5118C96.8451 52.2186 96.9892 51.9822 97.241 51.8026C97.4932 51.6199 97.7766 51.5481 98.0911 51.5872C98.4088 51.6267 98.666 51.7656 98.8628 52.004C99.063 52.2398 99.1449 52.5043 99.1084 52.7975C99.0716 53.0937 98.9272 53.3332 98.675 53.5159C98.4262 53.6958 98.143 53.7661 97.8254 53.7267ZM104.239 55.3561L104.034 57.0053L99.5951 56.4539L99.8 54.8046L104.239 55.3561ZM100.939 53.2343L103.18 53.5125L102.371 60.0225C102.354 60.16 102.361 60.2741 102.394 60.3649C102.429 60.4531 102.487 60.5208 102.568 60.5681C102.65 60.6123 102.75 60.6418 102.869 60.6566C102.955 60.6672 103.046 60.6708 103.142 60.6673C103.242 60.6611 103.317 60.6549 103.368 60.6488L103.506 62.3081C103.395 62.3253 103.239 62.3447 103.038 62.3662C102.84 62.3882 102.606 62.3885 102.336 62.3674C101.807 62.3265 101.364 62.2095 101.007 62.0162C100.653 61.8203 100.396 61.5527 100.237 61.2135C100.08 60.8746 100.035 60.4673 100.1 59.9916L100.939 53.2343ZM107.398 58.8188L106.9 62.832L104.659 62.5537L105.825 53.1712L107.992 53.4404L107.54 57.0779L107.618 57.0876C107.83 56.6737 108.132 56.3669 108.523 56.1673C108.917 55.9681 109.376 55.9012 109.902 55.9664C110.396 56.0279 110.813 56.1913 111.153 56.4568C111.492 56.7191 111.738 57.0614 111.89 57.4834C112.046 57.9059 112.089 58.3827 112.02 58.9137L111.463 63.3988L109.222 63.1205L109.725 59.0752C109.776 58.6847 109.717 58.3671 109.545 58.1225C109.374 57.878 109.108 57.7333 108.748 57.6886C108.513 57.6593 108.299 57.6855 108.106 57.7669C107.916 57.8457 107.759 57.9735 107.635 58.1504C107.513 58.3276 107.435 58.5504 107.398 58.8188ZM114.83 63.938C114.381 63.8822 113.992 63.7579 113.662 63.565C113.336 63.3694 113.091 63.1064 112.927 62.7759C112.767 62.4428 112.716 62.0441 112.774 61.5799C112.822 61.1889 112.932 60.8676 113.103 60.6159C113.273 60.3642 113.49 60.1694 113.752 60.0314C114.014 59.8934 114.308 59.8011 114.633 59.7547C114.959 59.7052 115.302 59.6874 115.663 59.7012C116.068 59.7143 116.395 59.7161 116.644 59.7068C116.894 59.6944 117.078 59.6568 117.198 59.5941C117.321 59.5288 117.391 59.4243 117.409 59.2807L117.412 59.2578C117.441 59.0227 117.382 58.8309 117.236 58.6825C117.091 58.5341 116.88 58.4429 116.605 58.4087C116.309 58.3719 116.063 58.4065 115.867 58.5124C115.671 58.6182 115.534 58.7812 115.457 59.0011L113.4 58.6711C113.514 58.2511 113.719 57.8889 114.014 57.5844C114.313 57.2773 114.697 57.0552 115.167 56.9182C115.64 56.7785 116.191 56.7477 116.82 56.8259C117.269 56.8816 117.677 56.9865 118.042 57.1404C118.408 57.2913 118.719 57.485 118.975 57.7215C119.231 57.9549 119.418 58.2262 119.534 58.5353C119.654 58.8448 119.691 59.1859 119.644 59.5585L119.05 64.3413L116.943 64.0795L117.065 63.0991L117.01 63.0923C116.855 63.315 116.669 63.4966 116.454 63.6373C116.241 63.7783 115.998 63.8737 115.725 63.9236C115.455 63.9738 115.157 63.9786 114.83 63.938ZM115.704 62.5579C115.945 62.5879 116.168 62.566 116.372 62.4921C116.58 62.4187 116.753 62.3036 116.89 62.147C117.028 61.9874 117.111 61.793 117.139 61.5639L117.222 60.8951C117.154 60.9207 117.072 60.9416 116.977 60.9577C116.885 60.9742 116.784 60.988 116.674 60.9991C116.564 61.0103 116.452 61.018 116.336 61.0223C116.221 61.0266 116.111 61.0299 116.005 61.0323C115.79 61.0397 115.603 61.0692 115.445 61.1209C115.29 61.1729 115.165 61.2505 115.072 61.3537C114.982 61.4541 114.927 61.5807 114.908 61.7334C114.879 61.9655 114.94 62.1529 115.09 62.2956C115.242 62.4386 115.447 62.5261 115.704 62.5579ZM120.42 64.5115L121.586 55.129L123.826 55.4073L123.385 58.9578L123.431 58.9635C123.549 58.7611 123.704 58.571 123.897 58.3934C124.092 58.2161 124.329 58.0812 124.608 57.9886C124.889 57.8933 125.215 57.8686 125.584 57.9145C126.073 57.9752 126.514 58.1602 126.906 58.4695C127.302 58.7792 127.598 59.2176 127.794 59.7847C127.991 60.3518 128.037 61.0492 127.935 61.8769C127.836 62.674 127.626 63.3256 127.306 63.8316C126.988 64.3381 126.599 64.6991 126.138 64.9148C125.68 65.1308 125.192 65.2066 124.673 65.1421C124.318 65.0981 124.019 65.0019 123.773 64.8536C123.528 64.7053 123.329 64.5254 123.175 64.3141C123.025 64.1031 122.916 63.8833 122.848 63.6547L122.779 63.6462L122.637 64.7869L120.42 64.5115ZM123.052 61.2656C123.004 61.6444 123.014 61.9805 123.08 62.274C123.149 62.5679 123.27 62.8046 123.443 62.9843C123.619 63.1613 123.843 63.2667 124.115 63.3004C124.39 63.3346 124.633 63.2872 124.845 63.1584C125.056 63.0266 125.229 62.8262 125.361 62.5574C125.497 62.2889 125.588 61.9653 125.635 61.5866C125.682 61.2079 125.673 60.8733 125.607 60.5828C125.543 60.2928 125.425 60.0594 125.252 59.8828C125.081 59.7066 124.857 59.6012 124.579 59.5667C124.304 59.5325 124.061 59.5784 123.85 59.7041C123.639 59.8299 123.465 60.0253 123.326 60.2903C123.191 60.5557 123.099 60.8808 123.052 61.2656Z" fill="#355345"/>
<path d="M85.4176 179.903L89.704 169.085L97.0887 172.011L96.2473 174.134L91.4774 172.244L90.5983 174.463L94.8981 176.166L94.0546 178.295L89.7549 176.592L88.0323 180.939L85.4176 179.903ZM100.988 173.556L96.7019 184.374L94.1188 183.35L98.4053 172.532L100.988 173.556ZM102.078 186.681C101.229 186.345 100.563 185.888 100.079 185.309C99.6006 184.728 99.3192 184.06 99.2351 183.306C99.156 182.549 99.2873 181.74 99.6292 180.877C99.9613 180.039 100.417 179.372 100.996 178.876C101.577 178.377 102.238 178.072 102.978 177.962C103.72 177.849 104.499 177.954 105.316 178.278C105.894 178.506 106.386 178.805 106.794 179.175C107.202 179.544 107.51 179.974 107.719 180.464C107.928 180.955 108.027 181.497 108.016 182.091C108.006 182.682 107.869 183.31 107.605 183.976L107.35 184.62L100.298 181.826L100.892 180.326L105.541 182.168C105.646 181.892 105.678 181.621 105.636 181.356C105.595 181.091 105.487 180.855 105.312 180.647C105.143 180.437 104.915 180.276 104.63 180.163C104.341 180.049 104.057 180.011 103.776 180.051C103.497 180.087 103.247 180.189 103.025 180.358C102.805 180.524 102.636 180.744 102.518 181.019L101.914 182.546C101.782 182.877 101.733 183.193 101.764 183.495C101.796 183.793 101.905 184.058 102.09 184.29C102.275 184.523 102.533 184.704 102.864 184.836C103.093 184.926 103.314 184.977 103.525 184.987C103.737 184.998 103.934 184.968 104.117 184.898C104.3 184.828 104.46 184.716 104.598 184.563L106.943 185.571C106.633 186.064 106.233 186.441 105.742 186.703C105.256 186.963 104.701 187.095 104.076 187.1C103.452 187.101 102.786 186.962 102.078 186.681ZM112.605 181.288L112.882 184.49L115.325 182.366L117.929 183.397L114.056 186.556L114.799 191.544L112.216 190.521L111.794 187.237L109.274 189.355L106.654 188.317L110.617 185.194L109.985 180.25L112.605 181.288Z" fill="#1B1C1D"/>
<defs>
<filter id="filter0_i_10_92" x="239.743" y="30.9997" width="61.4008" height="65.4008" filterUnits="userSpaceOnUse" color-interpolation-filters="sRGB">
<feFlood flood-opacity="0" result="BackgroundImageFix"/>
<feBlend mode="normal" in="SourceGraphic" in2="BackgroundImageFix" result="shape"/>
<feColorMatrix in="SourceAlpha" type="matrix" values="0 0 0 0 0 0 0 0 0 0 0 0 0 0 0 0 0 0 127 0" result="hardAlpha"/>
<feOffset dy="4"/>
<feGaussianBlur stdDeviation="2"/>
<feComposite in2="hardAlpha" operator="arithmetic" k2="-1" k3="1"/>
<feColorMatrix type="matrix" values="0 0 0 0 0 0 0 0 0 0 0 0 0 0 0 0 0 0 0.25 0"/>
<feBlend mode="normal" in2="shape" result="effect1_innerShadow_10_92"/>
</filter>
<filter id="filter1_i_10_92" x="157.351" y="2.43506" width="64.5335" height="68.5335" filterUnits="userSpaceOnUse" color-interpolation-filters="sRGB">
<feFlood flood-opacity="0" result="BackgroundImageFix"/>
<feBlend mode="normal" in="SourceGraphic" in2="BackgroundImageFix" result="shape"/>
<feColorMatrix in="SourceAlpha" type="matrix" values="0 0 0 0 0 0 0 0 0 0 0 0 0 0 0 0 0 0 127 0" result="hardAlpha"/>
<feOffset dy="4"/>
<feGaussianBlur stdDeviation="2"/>
<feComposite in2="hardAlpha" operator="arithmetic" k2="-1" k3="1"/>
<feColorMatrix type="matrix" values="0 0 0 0 0 0 0 0 0 0 0 0 0 0 0 0 0 0 0.25 0"/>
<feBlend mode="normal" in2="shape" result="effect1_innerShadow_10_92"/>
</filter>
<filter id="filter2_i_10_92" x="319.566" y="72.993" width="55.5808" height="59.5808" filterUnits="userSpaceOnUse" color-interpolation-filters="sRGB">
<feFlood flood-opacity="0" result="BackgroundImageFix"/>
<feBlend mode="normal" in="SourceGraphic" in2="BackgroundImageFix" result="shape"/>
<feColorMatrix in="SourceAlpha" type="matrix" values="0 0 0 0 0 0 0 0 0 0 0 0 0 0 0 0 0 0 127 0" result="hardAlpha"/>
<feOffset dy="4"/>
<feGaussianBlur stdDeviation="2"/>
<feComposite in2="hardAlpha" operator="arithmetic" k2="-1" k3="1"/>
<feColorMatrix type="matrix" values="0 0 0 0 0 0 0 0 0 0 0 0 0 0 0 0 0 0 0.25 0"/>
<feBlend mode="normal" in2="shape" result="effect1_innerShadow_10_92"/>
</filter>
<filter id="filter3_i_10_92" x="73.2472" y="149.037" width="61.3289" height="65.3289" filterUnits="userSpaceOnUse" color-interpolation-filters="sRGB">
<feFlood flood-opacity="0" result="BackgroundImageFix"/>
<feBlend mode="normal" in="SourceGraphic" in2="BackgroundImageFix" result="shape"/>
<feColorMatrix in="SourceAlpha" type="matrix" values="0 0 0 0 0 0 0 0 0 0 0 0 0 0 0 0 0 0 127 0" result="hardAlpha"/>
<feOffset dy="4"/>
<feGaussianBlur stdDeviation="2"/>
<feComposite in2="hardAlpha" operator="arithmetic" k2="-1" k3="1"/>
<feColorMatrix type="matrix" values="0 0 0 0 0 0 0 0 0 0 0 0 0 0 0 0 0 0 0.25 0"/>
<feBlend mode="normal" in2="shape" result="effect1_innerShadow_10_92"/>
</filter>
<filter id="filter4_i_10_92" x="245.495" y="150.433" width="64.377" height="68.377" filterUnits="userSpaceOnUse" color-interpolation-filters="sRGB">
<feFlood flood-opacity="0" result="BackgroundImageFix"/>
<feBlend mode="normal" in="SourceGraphic" in2="BackgroundImageFix" result="shape"/>
<feColorMatrix in="SourceAlpha" type="matrix" values="0 0 0 0 0 0 0 0 0 0 0 0 0 0 0 0 0 0 127 0" result="hardAlpha"/>
<feOffset dy="4"/>
<feGaussianBlur stdDeviation="2"/>
<feComposite in2="hardAlpha" operator="arithmetic" k2="-1" k3="1"/>
<feColorMatrix type="matrix" values="0 0 0 0 0 0 0 0 0 0 0 0 0 0 0 0 0 0 0.25 0"/>
<feBlend mode="normal" in2="shape" result="effect1_innerShadow_10_92"/>
</filter>
<filter id="filter5_i_10_92" x="2.61197" y="68.8424" width="61.6997" height="65.6997" filterUnits="userSpaceOnUse" color-interpolation-filters="sRGB">
<feFlood flood-opacity="0" result="BackgroundImageFix"/>
<feBlend mode="normal" in="SourceGraphic" in2="BackgroundImageFix" result="shape"/>
<feColorMatrix in="SourceAlpha" type="matrix" values="0 0 0 0 0 0 0 0 0 0 0 0 0 0 0 0 0 0 127 0" result="hardAlpha"/>
<feOffset dy="4"/>
<feGaussianBlur stdDeviation="2"/>
<feComposite in2="hardAlpha" operator="arithmetic" k2="-1" k3="1"/>
<feColorMatrix type="matrix" values="0 0 0 0 0 0 0 0 0 0 0 0 0 0 0 0 0 0 0.25 0"/>
<feBlend mode="normal" in2="shape" result="effect1_innerShadow_10_92"/>
</filter>
<filter id="filter6_i_10_92" x="79.9368" y="30.6248" width="54.3958" height="58.3958" filterUnits="userSpaceOnUse" color-interpolation-filters="sRGB">
<feFlood flood-opacity="0" result="BackgroundImageFix"/>
<feBlend mode="normal" in="SourceGraphic" in2="BackgroundImageFix" result="shape"/>
<feColorMatrix in="SourceAlpha" type="matrix" values="0 0 0 0 0 0 0 0 0 0 0 0 0 0 0 0 0 0 127 0" result="hardAlpha"/>
<feOffset dy="4"/>
<feGaussianBlur stdDeviation="2"/>
<feComposite in2="hardAlpha" operator="arithmetic" k2="-1" k3="1"/>
<feColorMatrix type="matrix" values="0 0 0 0 0 0 0 0 0 0 0 0 0 0 0 0 0 0 0.25 0"/>
<feBlend mode="normal" in2="shape" result="effect1_innerShadow_10_92"/>
</filter>
<filter id="filter7_i_10_92" x="152.733" y="114.124" width="64.0734" height="68.0734" filterUnits="userSpaceOnUse" color-interpolation-filters="sRGB">
<feFlood flood-opacity="0" result="BackgroundImageFix"/>
<feBlend mode="normal" in="SourceGraphic" in2="BackgroundImageFix" result="shape"/>
<feColorMatrix in="SourceAlpha" type="matrix" values="0 0 0 0 0 0 0 0 0 0 0 0 0 0 0 0 0 0 127 0" result="hardAlpha"/>
<feOffset dy="4"/>
<feGaussianBlur stdDeviation="2"/>
<feComposite in2="hardAlpha" operator="arithmetic" k2="-1" k3="1"/>
<feColorMatrix type="matrix" values="0 0 0 0 0 0 0 0 0 0 0 0 0 0 0 0 0 0 0.25 0"/>
<feBlend mode="normal" in2="shape" result="effect1_innerShadow_10_92"/>
</filter>
</defs>
</svg>
