<svg width="132" height="148" viewBox="0 0 132 148" fill="none" xmlns="http://www.w3.org/2000/svg">
<path d="M23.498 68.5034L41.498 104.003L41.498 107.004L62.498 111.504L73.498 114.504L89.498 99.5039L106.998 85.5039L111.998 64.5039L106.998 39.5034L84.4976 18.0039L59.9976 18.0039L41.498 24.5034L23.498 42.5034L23.498 68.5034Z" fill="#F5F3EA" stroke="#43423D"/>
<mask id="path-2-inside-1_547_38882" fill="white">
<path d="M114.455 77.0244C114.42 75.9845 114.313 74.9496 114.396 73.9347C114.571 71.9068 115.733 70.0988 115.107 67.8495C114.693 66.3304 115.215 64.5499 115.345 62.8804C115.414 62.0261 115.624 61.1814 115.642 60.3265C115.646 59.6832 115.395 59.0369 115.33 58.3791C115.183 56.8141 115.512 55.0235 114.857 53.729C114.062 52.1798 114.953 50.294 113.568 49.0181C113.986 47.5835 112.625 46.7218 112.369 45.4714C112.115 44.2621 111.297 43.1578 110.689 42.0267C109.737 40.2501 108.695 38.5155 107.821 36.7143C107.528 36.1204 106.338 35.5608 107.482 34.7509C107.187 34.6473 106.869 34.6513 106.739 34.4909C106.36 34.0627 106.06 33.5491 105.705 33.1055C105.22 32.5015 104.683 31.9478 104.232 31.3304C103.852 30.81 103.674 30.1077 103.227 29.7061C102.375 28.9525 101.396 28.3661 100.476 27.6901C100.095 27.4149 99.6689 27.1606 99.3945 26.8161C98.4924 25.6735 97.6655 24.4652 96.5276 23.5179C95.98 23.0642 95.4944 22.5111 94.8945 22.1587C93.2992 21.2471 91.644 20.425 90.0228 19.5386C89.4559 19.2238 88.969 18.7727 88.4021 18.458C87.7338 18.091 87.0195 17.7961 86.3052 17.5011C86.0201 17.3996 85.6563 17.4756 85.3991 17.3392C84.296 16.7571 83.252 15.9933 82.1002 15.5441C80.8821 15.0704 79.5539 14.7779 78.2461 14.5817C76.4919 14.3213 74.6608 14.4228 72.9496 14.008C71.6158 13.6938 70.3715 13.4395 69.0184 13.7449C68.5346 13.8567 67.9313 13.9534 67.514 13.7523C66.4746 13.2553 65.559 13.715 64.5997 13.8996C63.8428 14.0454 63.0895 14.2226 62.3291 14.337C61.8536 14.4098 61.3254 14.2975 60.8843 14.4491C59.3485 14.9405 57.8726 15.6798 56.1625 15.5004C55.6239 15.437 55.0336 15.7613 54.48 15.9606C53.359 16.3766 52.2206 16.7787 51.1206 17.2401C50.884 17.3432 50.7392 17.6395 50.5503 17.855C49.7994 17.8283 49.0313 17.9308 48.3823 18.2427C46.9915 18.9183 45.6581 19.7083 44.2939 20.4509C43.5751 20.8502 42.8214 21.2216 42.1335 21.6684C41.8133 21.8763 41.5757 22.2245 41.2738 22.5386C40.7754 22.7189 40.2133 22.8142 39.824 23.0586C38.8215 23.7349 37.8729 24.4943 36.9166 25.2418C35.8019 26.109 34.6816 26.9545 33.6446 27.8894C32.0545 29.3098 30.4316 30.6926 29.0122 32.272C27.567 33.8766 26.3666 35.6763 25.0766 37.4162C24.285 38.4951 23.4717 39.5798 22.7989 40.7249C22.1582 41.8155 21.7062 43.028 21.1745 44.1827C20.7493 45.1249 20.2424 46.019 19.9325 46.996C19.5941 48.0588 19.4353 49.1906 19.1942 50.3252C19.4033 50.5435 19.6511 50.821 19.7616 50.9263C19.5446 51.5141 19.363 51.9355 19.2324 52.3576C19.079 52.8872 18.9527 53.4329 18.8461 53.9828C18.7338 54.511 18.6174 55.0587 18.6364 55.5944C18.682 56.5344 18.9315 57.4769 18.9358 58.4184C18.9368 59.8089 18.6157 61.2231 18.7856 62.5882C18.9818 64.2146 19.7023 65.7786 19.8789 67.4007C20.0759 69.1192 20.3601 70.7643 21.0626 72.3653C21.4251 73.2091 21.4937 74.1847 21.7083 75.0993C21.8539 75.713 22.033 76.3133 22.1777 76.8348C22.4712 77.3777 22.6183 78.0326 23.0133 78.2904C23.8307 78.8219 24.015 79.6381 24.2231 80.4388C24.4465 81.2633 25.4028 83.4499 25.8564 84.0575C26.1441 84.4356 26.4374 84.8353 26.6302 85.275C27.1736 86.5662 27.6284 87.8897 28.1955 89.1655C28.5944 90.0783 29.0959 90.9415 29.5779 91.8004C29.8602 92.3001 30.1976 92.7807 30.5036 93.2649C30.6387 93.447 30.5897 93.7739 30.6391 94.0707C30.9066 95.794 31.6438 97.2797 32.751 98.6601C33.607 99.7314 34.17 101.027 34.4042 102.426C34.4677 102.849 34.5446 103.304 34.7205 103.679C35.4361 105.171 36.2228 106.616 36.8951 108.118C37.193 108.785 38.9069 110.437 39.6341 110.479C39.787 110.481 39.951 110.383 40.1046 110.334C40.626 110.189 41.1615 110.027 41.7165 109.869C41.9207 111.313 42.7849 111.865 43.917 111.829C44.6999 111.802 45.5117 111.974 46.2678 112.217C47.4244 112.595 48.5035 113.05 49.7689 112.531C50.1179 112.381 50.6729 112.703 51.1223 112.85C51.304 112.909 51.4405 113.132 51.6243 113.181C53.3544 113.651 55.0901 114.143 56.8564 114.539C59.0978 115.056 61.3559 115.495 63.6098 115.954C64.1282 116.064 64.6662 116.178 65.1908 116.259C66.2206 116.417 67.2545 116.555 68.2863 116.703C68.8697 116.796 69.5254 116.741 70.0085 117.017C72.2057 118.272 75.4476 117.305 76.5083 115.056C76.7617 114.537 77.2051 114.039 77.6836 113.711C78.6722 113.052 79.8344 112.635 80.767 111.903C82.4223 110.608 84.0879 109.265 85.5087 107.727C86.5678 106.593 87.8629 105.886 89.0235 104.947C90.3307 103.896 92.0043 103.188 92.6803 101.451C92.7694 101.225 93.0653 101.083 93.2829 100.925C94.7178 99.8497 96.5521 99.1559 96.7893 96.8856C98.6288 98.0434 99.7633 96.5056 100.865 95.7481C102.243 94.7939 103.225 93.2543 104.403 91.9917C106.11 90.1667 107.882 88.4169 109.519 86.5362C110.184 85.7675 110.553 84.7521 111.062 83.8481C111.292 83.4371 111.525 83.0162 111.781 82.631C112.234 81.9402 112.744 81.2716 113.173 80.555C113.475 80.0468 113.541 79.3042 113.959 78.9739C114.666 78.3881 114.529 77.7353 114.504 77.0348L114.455 77.0244ZM103.106 84.2426C102.342 85.2867 101.256 86.0679 100.315 86.9823C99.2973 87.9723 98.3954 89.0892 97.2695 89.9131C95.7718 90.9953 94.9114 92.7344 93.1659 93.5391C92.5644 93.8202 92.1156 94.4405 91.6408 94.9427C90.7944 95.8465 89.9732 96.7761 89.055 97.777C88.1697 97.5173 87.3202 97.8581 86.468 98.5971C85.5543 99.3843 84.4413 99.9554 83.4115 100.616C83.2929 100.693 83.0841 100.761 83.0752 100.851C82.8673 102.647 81.1712 102.931 80.0643 103.81C78.2522 105.265 76.4555 106.743 74.6336 108.196C73.7205 108.933 72.8152 109.681 71.856 110.346C71.5909 110.535 71.1026 110.523 70.7526 110.438C69.1742 110.072 67.6021 109.677 66.0404 109.232C65.8468 109.181 65.5912 108.748 65.6348 108.543C65.9693 106.825 66.3409 105.125 66.7495 103.443C67.1165 101.957 67.5226 100.479 67.919 98.9993C68.1348 98.1762 68.38 97.3593 68.5253 96.5315C68.9642 94.1302 69.3402 91.7361 69.779 89.3348C69.9596 88.3407 70.041 87.2845 70.4656 86.3933C70.8679 85.5587 71.5391 84.7097 72.3156 84.2307C73.4655 83.5346 74.1077 82.4852 74.8981 81.5081C75.5889 80.6633 76.2971 79.8324 77.0536 79.0629C77.3514 78.7683 77.81 78.6307 78.1952 78.4058C78.4875 78.2328 78.9343 78.1029 79.0296 77.8471C79.6602 76.1307 81.2904 75.2913 82.3442 73.9409C84.0057 71.7996 85.7259 69.6707 86.6086 67.0571C86.7691 66.5903 86.8015 65.8611 86.5369 65.5186C86.0365 64.8908 85.2339 64.434 84.3951 64.8691C82.4845 65.8738 80.5507 66.8429 78.7808 68.0513C76.7716 69.4236 75.064 71.1564 73.6355 73.1633C73.2983 73.6437 72.5799 73.8488 72.0889 74.2351C71.6355 74.5886 71.2052 74.9776 70.8001 75.3925C70.6432 75.5534 70.6318 75.8474 70.4826 76.0202C69.5102 77.1323 68.5321 78.2228 67.5442 79.3112C66.9439 79.9708 66.1291 80.5337 65.763 81.2942C65.1192 82.6397 64.7445 84.114 64.2411 85.5201C63.963 86.2993 63.5264 87.055 63.3992 87.8459C63.11 89.5428 63.0556 91.2897 62.7449 92.9923C62.5559 94.0256 62.1203 95.0167 61.7553 96.0125C61.3965 96.9791 61.1927 97.9376 61.1798 99.0084C61.1699 100.161 60.8143 101.354 60.3872 102.449C59.9922 103.489 60.2807 104.778 59.3211 105.637C59.2737 105.668 59.3109 105.829 59.3216 105.923C59.4245 106.497 59.5218 107.049 59.6451 107.72L56.1238 106.971C57.734 105.023 57.9589 102.955 57.9895 100.743C58.0075 99.4075 58.6179 98.0753 58.8852 96.7213C59.084 95.6901 59.136 94.6277 59.2683 93.5721C59.3269 93.1041 59.4344 92.6464 59.5224 92.1846C59.8967 90.0866 60.2418 87.9824 60.6336 85.8983C60.8621 84.6792 61.3295 83.4904 61.3715 82.2827C61.4146 81.3104 61.0679 80.2962 60.7478 79.3489C60.105 77.5152 59.3045 75.7502 58.6834 73.9109C58.397 73.0935 58.3983 72.1737 58.2027 71.3142C58.0832 70.8185 57.8436 70.3587 57.6591 69.8798C57.5489 69.5804 57.4311 69.2691 57.3111 68.9676C57.119 68.4769 56.901 68.0114 56.7402 67.5172C56.4903 66.7689 56.2209 66.0164 56.0555 65.2554C55.391 62.1289 54.2966 59.1973 52.2475 56.7171C51.8591 56.2358 50.9581 55.8091 50.4135 55.9183C49.5896 56.0908 48.8889 56.7904 48.9667 57.819C49.0631 59.097 49.2321 60.37 49.3502 61.6423C49.4768 63.0187 49.5524 64.3945 49.7202 65.7694C49.8221 66.5885 50.0812 67.3899 50.2578 68.1942C50.3507 68.6229 50.4199 69.067 50.5128 69.4956C50.5705 69.7533 50.64 70.0032 50.7529 70.2419C51.0206 70.8099 51.5223 71.3357 51.5798 71.9307C51.8367 74.3776 52.6646 76.6391 53.5707 78.9173C54.0638 80.1569 54.0816 81.6124 54.2417 82.9755C54.294 83.3546 54.0712 83.7776 53.988 84.1688C53.8498 85.0596 53.7528 85.9488 53.6146 86.8395C53.3238 88.8326 53.0506 90.8397 52.6795 92.8259C52.5577 93.4952 52.1522 94.1042 51.8816 94.7521C51.7647 95.0135 51.6555 95.2868 51.6503 95.5515C51.6332 96.1613 51.7201 96.7625 51.6931 97.3702C51.6363 98.5031 51.7977 99.7642 51.3719 100.757C50.8514 101.955 50.7599 103.204 50.3826 104.401C50.3618 104.499 50.2999 104.598 50.2791 104.696C50.2155 105.092 50.2585 105.755 50.0791 105.829C49.6317 106.01 49.0332 106.037 48.5462 105.923C47.271 105.621 46.0069 105.219 44.7443 104.859C44.6876 104.837 44.6198 104.771 44.5569 104.778C42.1769 105.346 42.0627 103.43 41.5247 102.018C40.9923 100.626 40.6804 99.1596 39.7341 97.9361C39.3499 97.4353 39.2467 96.7182 38.9852 96.1207C38.3752 94.662 37.7965 93.1998 37.1272 91.7796C36.7424 90.9924 36.299 90.1927 35.6945 89.5735C34.5129 88.3511 34.5003 86.6309 33.6361 85.2613C32.7243 83.7793 32.1446 82.0817 31.454 80.473C31.2079 79.8993 31.0721 79.2877 30.8553 78.7202C30.7165 78.3635 30.5183 78.0454 30.3438 77.7118C29.6066 76.2261 28.5539 74.8777 28.56 73.0695C28.5655 72.6106 28.1988 72.1237 27.9215 71.6967C27.5056 71.0563 27.3208 70.4343 27.3034 69.6025C27.2778 68.4724 26.7088 67.3496 26.387 66.218C26.1875 65.5213 25.9705 64.8106 25.8478 64.0894C25.7195 63.3464 25.6344 62.5923 25.6199 61.8429C25.6041 60.715 25.649 59.5897 25.6744 58.4603C25.7066 57.2506 25.9176 56.0175 25.7298 54.8326C25.4581 53.1288 25.8942 51.6062 26.4211 50.0416C27.1773 47.8305 27.8455 45.6007 28.5256 43.3632C28.6152 43.0858 28.5134 42.7472 28.4936 42.5999C28.9152 42.4441 29.3195 42.4176 29.4616 42.182C30.3997 40.991 31.2875 39.7484 32.2025 38.5219C33.8688 36.31 35.917 34.4655 37.9226 32.5813C38.8668 31.6983 40.0427 31.1202 40.7132 29.8416C41.0745 29.1517 42.2678 28.9248 43.0562 28.4381C45.03 27.2322 46.9156 25.8643 48.9526 24.7944C50.5771 23.9334 52.449 23.544 54.1197 22.7541C55.6564 22.0176 57.2184 21.7873 58.8812 21.6602C60.0258 21.5661 61.1207 21.0321 62.249 20.8221C63.1435 20.6544 64.0991 20.7757 64.9879 20.5864C65.6721 20.4456 66.2972 20.0059 66.975 19.7513C67.1976 19.6657 67.6684 19.6635 67.716 19.7759C68.009 20.3698 68.4774 20.2342 68.9025 20.1099C69.794 19.8598 70.567 20.1672 71.4221 20.3285C73.3183 20.6907 75.283 20.73 77.186 21.0118C77.9007 21.1126 78.5663 21.5404 79.2616 21.7802C79.7676 21.949 80.318 22.0047 80.7961 22.2086C82.3764 22.9023 84.3095 22.802 85.4744 24.44C85.7985 24.8871 86.4847 25.0739 87.0146 25.3705C88.5379 26.2362 90.1273 26.983 91.551 27.9808C92.7159 28.8009 93.6872 29.907 94.7365 30.8866C94.8141 30.9542 94.8612 31.1175 94.9317 31.1223C96.0151 31.2197 96.1826 31.9709 96.6548 32.8278C97.3132 34.0106 98.7352 34.824 99.9295 35.6503C100.422 35.9799 100.773 36.1057 100.553 36.8052C100.339 37.4754 100.474 37.9948 101.124 38.542C101.808 39.1268 102.145 40.088 102.628 40.896C103.318 42.0752 104.067 43.2159 104.678 44.4295C105.373 45.8245 105.997 47.2657 106.546 48.7217C107.063 50.0891 107.492 51.4887 107.845 52.9032C108.012 53.5622 107.827 54.2896 107.905 54.9809C108.009 55.9334 108.225 56.8892 108.349 57.8458C108.603 59.7298 108.866 61.6158 108.473 63.5155C108.329 64.2414 108.529 65.0303 108.492 65.7791C108.455 66.5789 108.307 67.3753 108.238 68.1786C108.201 68.641 108.244 69.1103 108.254 69.6439C108.232 69.6495 108.076 69.7084 108.199 69.6628C107.99 71.2235 107.855 72.6262 107.593 74.0018C107.405 74.9841 106.962 75.9124 106.762 76.9024C106.674 77.3642 106.882 77.8786 106.931 78.3185C105.676 80.2804 104.472 82.3351 103.086 84.2385L103.106 84.2426ZM74.0033 127.466C73.6717 127.968 73.3827 128.51 73.0784 129.028C73.0045 129.135 72.9425 129.234 72.8805 129.334C72.2798 128.889 71.6869 128.456 71.0959 128.014C70.4831 129.07 69.8157 129.275 68.0767 128.895C66.4257 128.534 64.792 128.044 63.1098 127.829C62.166 127.7 61.1684 127.969 60.3591 127.255C58.8971 127.977 58.0342 126.505 56.8094 126.255C54.1895 125.739 51.5549 125.292 48.9433 124.736C47.926 124.52 46.9559 124.13 45.9407 123.904C45.1093 123.727 44.2425 123.717 43.407 123.56C42.6929 123.408 42.0074 123.17 41.3176 122.952C40.1842 122.609 39.018 121.891 37.9399 122.009C36.9755 122.121 36.3915 121.598 35.6125 121.463C34.1894 121.232 33.4055 120.207 32.9284 118.94C32.8485 118.739 32.8892 118.451 32.9839 118.246C33.5464 117.139 33.6919 115.637 35.3156 115.501C36.252 115.424 37.2187 115.446 38.1444 115.612C39.7198 115.896 41.2495 116.395 42.8285 116.71C43.6795 116.891 44.6089 116.751 45.4599 116.932C47.4274 117.391 49.3617 118.006 51.3411 118.458C52.3249 118.687 53.4051 118.559 54.3889 118.789C55.6445 119.086 56.8397 119.667 58.0974 119.955C59.6953 120.326 61.3354 120.449 62.9417 120.78C64.0959 121.026 65.2168 121.428 66.3648 121.702C67.2683 121.925 68.2064 122.032 69.1294 122.259C70.4025 122.571 71.6936 122.845 72.9076 123.338C74.4711 123.967 74.9501 126.042 74.025 127.461L74.0033 127.466ZM65.3461 136.259C65.0767 137.622 64.3549 138.277 63.3406 138.143C62.3576 138.005 61.3596 137.988 60.401 137.784C59.1587 137.52 57.9491 137.15 56.7437 136.761C56.2007 136.574 55.7909 136.242 55.0977 136.473C54.6251 136.628 53.982 136.286 53.4111 136.134C52.3868 135.855 51.3832 135.478 50.3561 135.26C48.6758 134.893 46.9726 134.633 45.2819 134.315C44.8906 134.231 44.4627 133.936 44.1478 134.022C42.6267 134.445 41.8258 132.874 40.4518 132.797C39.3328 132.723 38.5094 131.883 38.2555 130.817C37.9868 129.676 37.9499 128.503 39.1588 127.625C40.3559 126.755 40.5723 126.699 40.9947 127.453C42.3221 127.654 43.3914 128.106 44.3081 127.881C45.7421 127.532 46.8513 128.422 48.1414 128.461C48.7609 128.48 49.364 128.721 49.9886 128.813C50.7934 128.923 51.6356 128.856 52.4216 129.054C53.6849 129.363 54.9164 129.871 56.1755 130.2C58.0076 130.671 59.8723 131.036 61.7224 131.471C62.9389 131.76 64.1547 132.1 64.8565 133.272C65.0007 133.507 64.9929 133.832 65.0541 134.121C64.7657 134.131 64.485 134.154 64.1986 134.154C63.834 134.138 63.4736 134.102 63.1013 134.074C63.0861 134.194 63.0611 134.311 63.048 134.421C63.3862 134.513 63.7342 134.607 64.0745 134.69C65.1267 134.934 65.5054 135.413 65.3399 136.288L65.3461 136.259Z"/>
</mask>
<path d="M114.455 77.0244C114.42 75.9845 114.313 74.9496 114.396 73.9347C114.571 71.9068 115.733 70.0988 115.107 67.8495C114.693 66.3304 115.215 64.5499 115.345 62.8804C115.414 62.0261 115.624 61.1814 115.642 60.3265C115.646 59.6832 115.395 59.0369 115.33 58.3791C115.183 56.8141 115.512 55.0235 114.857 53.729C114.062 52.1798 114.953 50.294 113.568 49.0181C113.986 47.5835 112.625 46.7218 112.369 45.4714C112.115 44.2621 111.297 43.1578 110.689 42.0267C109.737 40.2501 108.695 38.5155 107.821 36.7143C107.528 36.1204 106.338 35.5608 107.482 34.7509C107.187 34.6473 106.869 34.6513 106.739 34.4909C106.36 34.0627 106.06 33.5491 105.705 33.1055C105.22 32.5015 104.683 31.9478 104.232 31.3304C103.852 30.81 103.674 30.1077 103.227 29.7061C102.375 28.9525 101.396 28.3661 100.476 27.6901C100.095 27.4149 99.6689 27.1606 99.3945 26.8161C98.4924 25.6735 97.6655 24.4652 96.5276 23.5179C95.98 23.0642 95.4944 22.5111 94.8945 22.1587C93.2992 21.2471 91.644 20.425 90.0228 19.5386C89.4559 19.2238 88.969 18.7727 88.4021 18.458C87.7338 18.091 87.0195 17.7961 86.3052 17.5011C86.0201 17.3996 85.6563 17.4756 85.3991 17.3392C84.296 16.7571 83.252 15.9933 82.1002 15.5441C80.8821 15.0704 79.5539 14.7779 78.2461 14.5817C76.4919 14.3213 74.6608 14.4228 72.9496 14.008C71.6158 13.6938 70.3715 13.4395 69.0184 13.7449C68.5346 13.8567 67.9313 13.9534 67.514 13.7523C66.4746 13.2553 65.559 13.715 64.5997 13.8996C63.8428 14.0454 63.0895 14.2226 62.3291 14.337C61.8536 14.4098 61.3254 14.2975 60.8843 14.4491C59.3485 14.9405 57.8726 15.6798 56.1625 15.5004C55.6239 15.437 55.0336 15.7613 54.48 15.9606C53.359 16.3766 52.2206 16.7787 51.1206 17.2401C50.884 17.3432 50.7392 17.6395 50.5503 17.855C49.7994 17.8283 49.0313 17.9308 48.3823 18.2427C46.9915 18.9183 45.6581 19.7083 44.2939 20.4509C43.5751 20.8502 42.8214 21.2216 42.1335 21.6684C41.8133 21.8763 41.5757 22.2245 41.2738 22.5386C40.7754 22.7189 40.2133 22.8142 39.824 23.0586C38.8215 23.7349 37.8729 24.4943 36.9166 25.2418C35.8019 26.109 34.6816 26.9545 33.6446 27.8894C32.0545 29.3098 30.4316 30.6926 29.0122 32.272C27.567 33.8766 26.3666 35.6763 25.0766 37.4162C24.285 38.4951 23.4717 39.5798 22.7989 40.7249C22.1582 41.8155 21.7062 43.028 21.1745 44.1827C20.7493 45.1249 20.2424 46.019 19.9325 46.996C19.5941 48.0588 19.4353 49.1906 19.1942 50.3252C19.4033 50.5435 19.6511 50.821 19.7616 50.9263C19.5446 51.5141 19.363 51.9355 19.2324 52.3576C19.079 52.8872 18.9527 53.4329 18.8461 53.9828C18.7338 54.511 18.6174 55.0587 18.6364 55.5944C18.682 56.5344 18.9315 57.4769 18.9358 58.4184C18.9368 59.8089 18.6157 61.2231 18.7856 62.5882C18.9818 64.2146 19.7023 65.7786 19.8789 67.4007C20.0759 69.1192 20.3601 70.7643 21.0626 72.3653C21.4251 73.2091 21.4937 74.1847 21.7083 75.0993C21.8539 75.713 22.033 76.3133 22.1777 76.8348C22.4712 77.3777 22.6183 78.0326 23.0133 78.2904C23.8307 78.8219 24.015 79.6381 24.2231 80.4388C24.4465 81.2633 25.4028 83.4499 25.8564 84.0575C26.1441 84.4356 26.4374 84.8353 26.6302 85.275C27.1736 86.5662 27.6284 87.8897 28.1955 89.1655C28.5944 90.0783 29.0959 90.9415 29.5779 91.8004C29.8602 92.3001 30.1976 92.7807 30.5036 93.2649C30.6387 93.447 30.5897 93.7739 30.6391 94.0707C30.9066 95.794 31.6438 97.2797 32.751 98.6601C33.607 99.7314 34.17 101.027 34.4042 102.426C34.4677 102.849 34.5446 103.304 34.7205 103.679C35.4361 105.171 36.2228 106.616 36.8951 108.118C37.193 108.785 38.9069 110.437 39.6341 110.479C39.787 110.481 39.951 110.383 40.1046 110.334C40.626 110.189 41.1615 110.027 41.7165 109.869C41.9207 111.313 42.7849 111.865 43.917 111.829C44.6999 111.802 45.5117 111.974 46.2678 112.217C47.4244 112.595 48.5035 113.05 49.7689 112.531C50.1179 112.381 50.6729 112.703 51.1223 112.85C51.304 112.909 51.4405 113.132 51.6243 113.181C53.3544 113.651 55.0901 114.143 56.8564 114.539C59.0978 115.056 61.3559 115.495 63.6098 115.954C64.1282 116.064 64.6662 116.178 65.1908 116.259C66.2206 116.417 67.2545 116.555 68.2863 116.703C68.8697 116.796 69.5254 116.741 70.0085 117.017C72.2057 118.272 75.4476 117.305 76.5083 115.056C76.7617 114.537 77.2051 114.039 77.6836 113.711C78.6722 113.052 79.8344 112.635 80.767 111.903C82.4223 110.608 84.0879 109.265 85.5087 107.727C86.5678 106.593 87.8629 105.886 89.0235 104.947C90.3307 103.896 92.0043 103.188 92.6803 101.451C92.7694 101.225 93.0653 101.083 93.2829 100.925C94.7178 99.8497 96.5521 99.1559 96.7893 96.8856C98.6288 98.0434 99.7633 96.5056 100.865 95.7481C102.243 94.7939 103.225 93.2543 104.403 91.9917C106.11 90.1667 107.882 88.4169 109.519 86.5362C110.184 85.7675 110.553 84.7521 111.062 83.8481C111.292 83.4371 111.525 83.0162 111.781 82.631C112.234 81.9402 112.744 81.2716 113.173 80.555C113.475 80.0468 113.541 79.3042 113.959 78.9739C114.666 78.3881 114.529 77.7353 114.504 77.0348L114.455 77.0244ZM103.106 84.2426C102.342 85.2867 101.256 86.0679 100.315 86.9823C99.2973 87.9723 98.3954 89.0892 97.2695 89.9131C95.7718 90.9953 94.9114 92.7344 93.1659 93.5391C92.5644 93.8202 92.1156 94.4405 91.6408 94.9427C90.7944 95.8465 89.9732 96.7761 89.055 97.777C88.1697 97.5173 87.3202 97.8581 86.468 98.5971C85.5543 99.3843 84.4413 99.9554 83.4115 100.616C83.2929 100.693 83.0841 100.761 83.0752 100.851C82.8673 102.647 81.1712 102.931 80.0643 103.81C78.2522 105.265 76.4555 106.743 74.6336 108.196C73.7205 108.933 72.8152 109.681 71.856 110.346C71.5909 110.535 71.1026 110.523 70.7526 110.438C69.1742 110.072 67.6021 109.677 66.0404 109.232C65.8468 109.181 65.5912 108.748 65.6348 108.543C65.9693 106.825 66.3409 105.125 66.7495 103.443C67.1165 101.957 67.5226 100.479 67.919 98.9993C68.1348 98.1762 68.38 97.3593 68.5253 96.5315C68.9642 94.1302 69.3402 91.7361 69.779 89.3348C69.9596 88.3407 70.041 87.2845 70.4656 86.3933C70.8679 85.5587 71.5391 84.7097 72.3156 84.2307C73.4655 83.5346 74.1077 82.4852 74.8981 81.5081C75.5889 80.6633 76.2971 79.8324 77.0536 79.0629C77.3514 78.7683 77.81 78.6307 78.1952 78.4058C78.4875 78.2328 78.9343 78.1029 79.0296 77.8471C79.6602 76.1307 81.2904 75.2913 82.3442 73.9409C84.0057 71.7996 85.7259 69.6707 86.6086 67.0571C86.7691 66.5903 86.8015 65.8611 86.5369 65.5186C86.0365 64.8908 85.2339 64.434 84.3951 64.8691C82.4845 65.8738 80.5507 66.8429 78.7808 68.0513C76.7716 69.4236 75.064 71.1564 73.6355 73.1633C73.2983 73.6437 72.5799 73.8488 72.0889 74.2351C71.6355 74.5886 71.2052 74.9776 70.8001 75.3925C70.6432 75.5534 70.6318 75.8474 70.4826 76.0202C69.5102 77.1323 68.5321 78.2228 67.5442 79.3112C66.9439 79.9708 66.1291 80.5337 65.763 81.2942C65.1192 82.6397 64.7445 84.114 64.2411 85.5201C63.963 86.2993 63.5264 87.055 63.3992 87.8459C63.11 89.5428 63.0556 91.2897 62.7449 92.9923C62.5559 94.0256 62.1203 95.0167 61.7553 96.0125C61.3965 96.9791 61.1927 97.9376 61.1798 99.0084C61.1699 100.161 60.8143 101.354 60.3872 102.449C59.9922 103.489 60.2807 104.778 59.3211 105.637C59.2737 105.668 59.3109 105.829 59.3216 105.923C59.4245 106.497 59.5218 107.049 59.6451 107.72L56.1238 106.971C57.734 105.023 57.9589 102.955 57.9895 100.743C58.0075 99.4075 58.6179 98.0753 58.8852 96.7213C59.084 95.6901 59.136 94.6277 59.2683 93.5721C59.3269 93.1041 59.4344 92.6464 59.5224 92.1846C59.8967 90.0866 60.2418 87.9824 60.6336 85.8983C60.8621 84.6792 61.3295 83.4904 61.3715 82.2827C61.4146 81.3104 61.0679 80.2962 60.7478 79.3489C60.105 77.5152 59.3045 75.7502 58.6834 73.9109C58.397 73.0935 58.3983 72.1737 58.2027 71.3142C58.0832 70.8185 57.8436 70.3587 57.6591 69.8798C57.5489 69.5804 57.4311 69.2691 57.3111 68.9676C57.119 68.4769 56.901 68.0114 56.7402 67.5172C56.4903 66.7689 56.2209 66.0164 56.0555 65.2554C55.391 62.1289 54.2966 59.1973 52.2475 56.7171C51.8591 56.2358 50.9581 55.8091 50.4135 55.9183C49.5896 56.0908 48.8889 56.7904 48.9667 57.819C49.0631 59.097 49.2321 60.37 49.3502 61.6423C49.4768 63.0187 49.5524 64.3945 49.7202 65.7694C49.8221 66.5885 50.0812 67.3899 50.2578 68.1942C50.3507 68.6229 50.4199 69.067 50.5128 69.4956C50.5705 69.7533 50.64 70.0032 50.7529 70.2419C51.0206 70.8099 51.5223 71.3357 51.5798 71.9307C51.8367 74.3776 52.6646 76.6391 53.5707 78.9173C54.0638 80.1569 54.0816 81.6124 54.2417 82.9755C54.294 83.3546 54.0712 83.7776 53.988 84.1688C53.8498 85.0596 53.7528 85.9488 53.6146 86.8395C53.3238 88.8326 53.0506 90.8397 52.6795 92.8259C52.5577 93.4952 52.1522 94.1042 51.8816 94.7521C51.7647 95.0135 51.6555 95.2868 51.6503 95.5515C51.6332 96.1613 51.7201 96.7625 51.6931 97.3702C51.6363 98.5031 51.7977 99.7642 51.3719 100.757C50.8514 101.955 50.7599 103.204 50.3826 104.401C50.3618 104.499 50.2999 104.598 50.2791 104.696C50.2155 105.092 50.2585 105.755 50.0791 105.829C49.6317 106.01 49.0332 106.037 48.5462 105.923C47.271 105.621 46.0069 105.219 44.7443 104.859C44.6876 104.837 44.6198 104.771 44.5569 104.778C42.1769 105.346 42.0627 103.43 41.5247 102.018C40.9923 100.626 40.6804 99.1596 39.7341 97.9361C39.3499 97.4353 39.2467 96.7182 38.9852 96.1207C38.3752 94.662 37.7965 93.1998 37.1272 91.7796C36.7424 90.9924 36.299 90.1927 35.6945 89.5735C34.5129 88.3511 34.5003 86.6309 33.6361 85.2613C32.7243 83.7793 32.1446 82.0817 31.454 80.473C31.2079 79.8993 31.0721 79.2877 30.8553 78.7202C30.7165 78.3635 30.5183 78.0454 30.3438 77.7118C29.6066 76.2261 28.5539 74.8777 28.56 73.0695C28.5655 72.6106 28.1988 72.1237 27.9215 71.6967C27.5056 71.0563 27.3208 70.4343 27.3034 69.6025C27.2778 68.4724 26.7088 67.3496 26.387 66.218C26.1875 65.5213 25.9705 64.8106 25.8478 64.0894C25.7195 63.3464 25.6344 62.5923 25.6199 61.8429C25.6041 60.715 25.649 59.5897 25.6744 58.4603C25.7066 57.2506 25.9176 56.0175 25.7298 54.8326C25.4581 53.1288 25.8942 51.6062 26.4211 50.0416C27.1773 47.8305 27.8455 45.6007 28.5256 43.3632C28.6152 43.0858 28.5134 42.7472 28.4936 42.5999C28.9152 42.4441 29.3195 42.4176 29.4616 42.182C30.3997 40.991 31.2875 39.7484 32.2025 38.5219C33.8688 36.31 35.917 34.4655 37.9226 32.5813C38.8668 31.6983 40.0427 31.1202 40.7132 29.8416C41.0745 29.1517 42.2678 28.9248 43.0562 28.4381C45.03 27.2322 46.9156 25.8643 48.9526 24.7944C50.5771 23.9334 52.449 23.544 54.1197 22.7541C55.6564 22.0176 57.2184 21.7873 58.8812 21.6602C60.0258 21.5661 61.1207 21.0321 62.249 20.8221C63.1435 20.6544 64.0991 20.7757 64.9879 20.5864C65.6721 20.4456 66.2972 20.0059 66.975 19.7513C67.1976 19.6657 67.6684 19.6635 67.716 19.7759C68.009 20.3698 68.4774 20.2342 68.9025 20.1099C69.794 19.8598 70.567 20.1672 71.4221 20.3285C73.3183 20.6907 75.283 20.73 77.186 21.0118C77.9007 21.1126 78.5663 21.5404 79.2616 21.7802C79.7676 21.949 80.318 22.0047 80.7961 22.2086C82.3764 22.9023 84.3095 22.802 85.4744 24.44C85.7985 24.8871 86.4847 25.0739 87.0146 25.3705C88.5379 26.2362 90.1273 26.983 91.551 27.9808C92.7159 28.8009 93.6872 29.907 94.7365 30.8866C94.8141 30.9542 94.8612 31.1175 94.9317 31.1223C96.0151 31.2197 96.1826 31.9709 96.6548 32.8278C97.3132 34.0106 98.7352 34.824 99.9295 35.6503C100.422 35.9799 100.773 36.1057 100.553 36.8052C100.339 37.4754 100.474 37.9948 101.124 38.542C101.808 39.1268 102.145 40.088 102.628 40.896C103.318 42.0752 104.067 43.2159 104.678 44.4295C105.373 45.8245 105.997 47.2657 106.546 48.7217C107.063 50.0891 107.492 51.4887 107.845 52.9032C108.012 53.5622 107.827 54.2896 107.905 54.9809C108.009 55.9334 108.225 56.8892 108.349 57.8458C108.603 59.7298 108.866 61.6158 108.473 63.5155C108.329 64.2414 108.529 65.0303 108.492 65.7791C108.455 66.5789 108.307 67.3753 108.238 68.1786C108.201 68.641 108.244 69.1103 108.254 69.6439C108.232 69.6495 108.076 69.7084 108.199 69.6628C107.99 71.2235 107.855 72.6262 107.593 74.0018C107.405 74.9841 106.962 75.9124 106.762 76.9024C106.674 77.3642 106.882 77.8786 106.931 78.3185C105.676 80.2804 104.472 82.3351 103.086 84.2385L103.106 84.2426ZM74.0033 127.466C73.6717 127.968 73.3827 128.51 73.0784 129.028C73.0045 129.135 72.9425 129.234 72.8805 129.334C72.2798 128.889 71.6869 128.456 71.0959 128.014C70.4831 129.07 69.8157 129.275 68.0767 128.895C66.4257 128.534 64.792 128.044 63.1098 127.829C62.166 127.7 61.1684 127.969 60.3591 127.255C58.8971 127.977 58.0342 126.505 56.8094 126.255C54.1895 125.739 51.5549 125.292 48.9433 124.736C47.926 124.52 46.9559 124.13 45.9407 123.904C45.1093 123.727 44.2425 123.717 43.407 123.56C42.6929 123.408 42.0074 123.17 41.3176 122.952C40.1842 122.609 39.018 121.891 37.9399 122.009C36.9755 122.121 36.3915 121.598 35.6125 121.463C34.1894 121.232 33.4055 120.207 32.9284 118.94C32.8485 118.739 32.8892 118.451 32.9839 118.246C33.5464 117.139 33.6919 115.637 35.3156 115.501C36.252 115.424 37.2187 115.446 38.1444 115.612C39.7198 115.896 41.2495 116.395 42.8285 116.71C43.6795 116.891 44.6089 116.751 45.4599 116.932C47.4274 117.391 49.3617 118.006 51.3411 118.458C52.3249 118.687 53.4051 118.559 54.3889 118.789C55.6445 119.086 56.8397 119.667 58.0974 119.955C59.6953 120.326 61.3354 120.449 62.9417 120.78C64.0959 121.026 65.2168 121.428 66.3648 121.702C67.2683 121.925 68.2064 122.032 69.1294 122.259C70.4025 122.571 71.6936 122.845 72.9076 123.338C74.4711 123.967 74.9501 126.042 74.025 127.461L74.0033 127.466ZM65.3461 136.259C65.0767 137.622 64.3549 138.277 63.3406 138.143C62.3576 138.005 61.3596 137.988 60.401 137.784C59.1587 137.52 57.9491 137.15 56.7437 136.761C56.2007 136.574 55.7909 136.242 55.0977 136.473C54.6251 136.628 53.982 136.286 53.4111 136.134C52.3868 135.855 51.3832 135.478 50.3561 135.26C48.6758 134.893 46.9726 134.633 45.2819 134.315C44.8906 134.231 44.4627 133.936 44.1478 134.022C42.6267 134.445 41.8258 132.874 40.4518 132.797C39.3328 132.723 38.5094 131.883 38.2555 130.817C37.9868 129.676 37.9499 128.503 39.1588 127.625C40.3559 126.755 40.5723 126.699 40.9947 127.453C42.3221 127.654 43.3914 128.106 44.3081 127.881C45.7421 127.532 46.8513 128.422 48.1414 128.461C48.7609 128.48 49.364 128.721 49.9886 128.813C50.7934 128.923 51.6356 128.856 52.4216 129.054C53.6849 129.363 54.9164 129.871 56.1755 130.2C58.0076 130.671 59.8723 131.036 61.7224 131.471C62.9389 131.76 64.1547 132.1 64.8565 133.272C65.0007 133.507 64.9929 133.832 65.0541 134.121C64.7657 134.131 64.485 134.154 64.1986 134.154C63.834 134.138 63.4736 134.102 63.1013 134.074C63.0861 134.194 63.0611 134.311 63.048 134.421C63.3862 134.513 63.7342 134.607 64.0745 134.69C65.1267 134.934 65.5054 135.413 65.3399 136.288L65.3461 136.259Z" fill="#43423D" stroke="#43423D" stroke-width="2" mask="url(#path-2-inside-1_547_38882)"/>
</svg>
