<svg width="49" height="48" viewBox="0 0 49 48" fill="none" xmlns="http://www.w3.org/2000/svg">
<g clip-path="url(#clip0_547_38846)">
<path d="M37.9413 28.5489C37.3626 28.3708 36.8041 28.1118 36.2416 27.8811C36.0757 27.8164 35.9259 27.7071 35.76 27.6464C35.1449 27.4076 34.5136 27.1932 33.9025 26.9423C33.6152 26.8209 33.3602 26.6185 33.0729 26.4971C32.3566 26.1976 31.6241 25.9386 30.9078 25.6392C29.8839 25.2102 28.8803 24.7408 27.8564 24.332C27.476 24.1823 27.2373 23.9638 27.217 23.5672C27.1766 22.7295 26.7436 22.0213 26.4805 21.2604C26.3186 20.7991 26.088 20.362 25.9342 19.9007C25.8047 19.5081 25.744 19.0954 25.6509 18.6907C25.6428 18.6502 25.6064 18.6178 25.5861 18.5814C25.3271 18.1241 24.9953 17.6911 24.8172 17.2055C24.4975 16.3354 24.3964 15.3641 23.9553 14.571C23.6598 14.0327 23.6356 13.5026 23.587 12.9846C23.5384 12.4868 23.413 12.1266 23.0204 11.8717C22.2799 11.382 21.7011 11.208 21.0091 12.0457C20.8311 12.2602 20.7663 12.5637 20.6247 12.8065C20.4507 13.1181 20.2119 13.4055 20.0581 13.7211C19.6049 14.6317 19.184 15.5584 18.7307 16.477C18.5567 16.8251 18.3301 17.1448 18.1561 17.4888C17.8647 18.0634 17.6017 18.6543 17.3022 19.2249C16.938 19.9128 16.5535 20.5927 16.1731 21.2685C15.9384 21.6813 15.6915 22.0901 15.4568 22.5028C15.3192 22.7456 15.1938 22.9966 15.0562 23.2434C14.8174 23.6724 14.6636 24.2268 14.3035 24.4979C13.7733 24.9026 13.0732 25.0726 12.4743 25.4004C11.3088 26.0358 10.0178 26.3555 8.85232 27.0191C7.66253 27.699 6.39181 28.2737 5.07658 28.7188C4.76902 28.8241 4.51406 29.1235 4.2753 29.3704C4.04463 29.6092 4.18222 29.8924 4.25102 30.1717C4.41694 30.8313 4.76092 31.24 5.36795 31.2319C5.97903 31.2198 6.47275 31.4829 6.99075 31.7095C7.36306 31.8714 7.73133 32.0413 8.10364 32.1951C8.6095 32.3974 9.18011 32.4986 9.60908 32.8062C10.1554 33.1987 10.7665 33.3768 11.3614 33.6277C11.7863 33.8017 12.2274 33.9555 12.6523 34.1336C13.2108 34.3723 13.745 34.6799 14.3156 34.862C14.866 35.0401 15.3111 35.3072 15.5742 35.813C15.6996 36.0518 15.732 36.3391 15.8008 36.6062C15.9222 37.0635 16.0477 37.5248 16.161 37.9862C16.2662 38.4354 16.2905 38.9048 16.6628 39.261C16.857 39.4471 17.027 39.6859 16.7721 39.9732C16.7397 40.0096 16.7559 40.1148 16.7801 40.1796C16.8894 40.4912 16.9987 40.8069 17.1282 41.1063C17.3588 41.6324 17.6219 42.1464 17.6786 42.7413C17.719 43.1743 17.8364 43.579 18.0751 43.9675C18.3908 44.4895 18.6741 45.0682 18.8076 45.655C18.9574 46.3106 19.1759 46.9136 19.6211 47.3992C19.872 47.6744 20.3009 48.0548 20.564 48.0022C21.1346 47.8848 21.7821 47.7068 22.0492 47.0269C22.0654 46.9703 22.1868 46.9541 22.2799 46.9095C22.0896 46.691 22.0128 46.517 22.2515 46.3268C22.3284 46.2701 22.3446 46.1285 22.3891 46.0273C22.5267 45.7279 22.6522 45.4203 22.8019 45.1249C22.9071 44.9185 23.0649 44.7364 23.1702 44.5259C23.3482 44.1536 23.502 43.7692 23.6679 43.3847C23.8379 43.0003 24.0038 42.6158 24.1657 42.2314C24.1981 42.1585 24.1859 42.0654 24.2264 41.9966C24.3842 41.685 24.5623 41.3896 24.712 41.074C24.9751 40.4993 25.23 39.9165 25.4728 39.3298C25.7076 38.7794 25.918 38.2249 26.1487 37.6705C26.2822 37.3387 26.4279 37.0068 26.5817 36.6831C26.6748 36.4929 26.7881 36.3148 26.8933 36.1327C27.0875 35.8009 27.1928 35.4043 27.6905 35.3314C28.2895 35.2424 28.9612 35.2991 29.4104 34.7406C29.4266 34.7204 29.4631 34.7204 29.4873 34.7123C29.9608 34.4816 30.4343 34.2469 30.9078 34.0162C30.9847 33.9798 31.0616 33.9069 31.1385 33.9029C31.7738 33.8665 32.3809 33.8219 32.9757 33.4699C33.429 33.2028 34.0279 33.1825 34.5378 32.9883C35.4443 32.6564 36.3306 32.272 37.225 31.9159C37.6013 31.7702 38.0101 31.6852 38.3702 31.5071C39.0299 31.1834 39.4022 30.2 39.1027 29.5525C38.8801 29.0709 38.5078 28.7229 37.9615 28.5529L37.9413 28.5489ZM34.3881 30.1595C33.8215 30.4064 33.2874 30.8232 32.7532 30.8273C31.8062 30.8394 31.1182 31.5557 30.1874 31.5597C29.8435 31.5597 29.4995 31.8349 29.1555 31.9766C28.7791 32.1344 28.4068 32.361 28.0102 32.4217C26.8407 32.6079 25.8613 33.1583 24.9589 33.8827C24.8294 33.9838 24.712 34.1659 24.6958 34.3238C24.6028 35.0927 24.2062 35.7321 23.8622 36.3958C23.7003 36.7074 23.6072 37.0473 23.4575 37.367C23.1904 37.9417 22.8909 38.5082 22.6279 39.0869C22.4701 39.4471 22.3932 39.8397 22.2313 40.1917C21.9601 40.7907 21.6647 41.3775 21.3612 41.9602C21.2115 42.2556 21.0172 42.5268 20.8554 42.8182C20.7866 42.9436 20.7542 43.0853 20.6571 43.3402C20.5235 43.0205 20.3333 42.7696 20.3293 42.5146C20.3171 41.8226 20.0662 41.2237 19.791 40.6086C19.5563 40.0946 19.3823 39.5442 19.273 38.9939C19.1597 38.4071 19.1354 38.3342 18.496 38.2371C18.3706 38.2169 18.2532 38.1481 18.0751 38.0833C18.1804 37.9902 18.2573 37.9336 18.322 37.8688C18.6134 37.5694 18.7388 37.282 18.5405 36.8288C18.3382 36.3674 18.3099 35.8373 18.2087 35.3355C18.2046 35.3233 18.2208 35.3031 18.2087 35.291C17.7959 34.5059 17.7312 33.5346 16.9784 32.9316C16.9016 32.8669 16.8125 32.8264 16.7235 32.79C15.7684 32.4055 14.8093 32.0211 13.8543 31.6407C13.5062 31.5031 13.1541 31.3817 12.8021 31.2522C12.7899 31.2441 12.7656 31.2522 12.7616 31.236C12.3691 30.5602 11.5759 30.7787 11.0214 30.4469C10.5439 30.1636 10.034 29.945 9.53624 29.6941C9.52814 29.6415 9.52005 29.593 9.51196 29.5444C9.98949 29.2975 10.4589 29.0345 10.9405 28.8119C11.5637 28.5205 12.1991 28.2615 12.8263 27.9904C12.8668 27.9742 12.8992 27.9257 12.9356 27.9216C13.7693 27.8649 14.4937 27.436 15.1169 26.9949C15.7522 26.5416 16.6992 26.3797 16.9299 25.3923C16.9987 25.0969 17.3467 24.8662 17.5652 24.6032C17.6219 24.5384 17.6866 24.4615 17.6947 24.3806C17.7595 23.7493 18.2168 23.3324 18.5122 22.8266C18.7591 22.4017 19.0424 22.0374 19.0788 21.479C19.1031 21.0743 19.5482 20.706 19.7789 20.3054C20.0581 19.8198 20.3131 19.326 20.5761 18.8323C20.6773 18.6462 20.7542 18.4438 20.8594 18.2577C20.9241 18.1322 21.0375 18.031 21.0941 17.9056C21.2681 17.5292 21.426 17.1488 21.5555 16.8413C22.3365 16.9708 22.2394 17.5576 22.3932 18.0189C22.5753 18.549 22.8019 19.067 23.0123 19.5891C23.2511 20.1921 23.4899 20.791 23.7286 21.3899C23.9188 21.8756 24.1293 22.3491 24.2911 22.8428C24.534 23.5631 24.6918 24.3037 24.7484 25.0645C24.7606 25.1778 24.8011 25.3154 24.8779 25.3923C25.3231 25.8334 25.8087 26.2057 26.4117 26.4404C27.2696 26.7763 28.0993 27.1891 28.9491 27.5493C29.7382 27.8771 30.5436 28.1685 31.3246 28.5084C31.8102 28.7229 32.2595 29.0143 32.741 29.2368C33.1052 29.4068 33.4937 29.5161 33.8701 29.6618C34.117 29.7548 34.4529 29.7832 34.3679 30.1474L34.3881 30.1595ZM48.795 13.8506C48.2972 13.3205 47.844 12.6932 47.0386 12.5637C46.9941 12.5556 46.9577 12.499 46.9091 12.4747C46.7028 12.3735 46.5004 12.2602 46.2859 12.1833C45.9824 12.074 45.6425 12.0376 45.3592 11.8919C45.0395 11.726 44.7805 11.463 44.477 11.2647C44.3718 11.1959 44.1492 11.2485 44.0885 11.1716C43.6393 10.5848 42.9837 10.3582 42.3443 10.087C42.061 9.96966 41.6927 9.86444 41.5511 9.63781C41.3042 9.22908 41.195 8.73536 41.0371 8.27402C41.0088 8.18094 40.9643 8.05549 40.9967 7.9786C41.2476 7.40799 40.8752 6.95069 40.7417 6.44888C40.6324 6.03609 40.4099 5.62331 40.4099 5.21053C40.4058 4.42948 39.9768 3.956 39.4184 3.53513C39.3415 3.47847 39.2282 3.45823 39.127 3.45419C38.4835 3.42586 37.4192 4.08955 37.2695 4.68444C37.144 5.18625 36.5775 5.46549 36.6422 6.04419C36.6463 6.06038 36.5937 6.07656 36.5815 6.10084C36.3589 6.4772 36.1161 6.84952 35.93 7.24206C35.756 7.60628 35.6143 7.99478 35.5131 8.38328C35.3472 9.00245 34.6754 9.41119 34.7847 10.1437C34.7847 10.1841 34.6754 10.2732 34.6026 10.2975C34.376 10.3824 34.1129 10.4027 33.9146 10.5322C33.3642 10.8843 32.7572 11.0421 32.138 11.208C31.7941 11.297 31.4582 11.4589 31.1506 11.641C31.0535 11.6977 31.0535 11.9243 30.9968 12.1064C30.062 11.9203 29.4064 12.5556 28.6456 12.8308C28.338 12.9482 28.079 13.2436 27.8524 13.5107C27.5206 13.9113 27.2616 14.4212 27.4437 14.919C27.6541 15.5058 28.2409 16.2221 29.196 16.2099C29.5116 16.2018 29.8435 16.2099 30.1389 16.303C30.6286 16.4689 31.0778 16.7482 31.62 16.736C31.8062 16.7279 32.0085 16.6915 32.1826 16.736C32.911 16.9262 33.6354 17.1367 34.3557 17.3633C34.465 17.3997 34.5702 17.5535 34.6066 17.6749C34.8211 18.3629 35.0113 19.0589 35.2096 19.751C35.3513 20.2487 35.4889 20.7465 35.6305 21.2443C35.6426 21.2888 35.671 21.3252 35.6912 21.3616C35.9947 21.8391 35.9583 22.4947 36.4803 22.8509C36.3913 23.3729 36.7717 23.6886 36.9822 24.0852C37.1521 24.4049 37.2007 24.6598 37.662 24.6234C37.9696 24.6032 38.3014 24.765 38.5564 24.4899C38.8356 24.1823 39.0582 23.8181 39.3536 23.5307C39.7502 23.1463 39.8231 22.6809 39.8352 22.175C39.8352 22.0455 39.8757 21.912 39.9161 21.7865C40.0497 21.3657 40.1751 20.9448 40.333 20.532C40.6608 19.6822 41.0007 18.8323 41.3649 17.9946C41.4337 17.8327 41.6239 17.679 41.7939 17.6142C42.15 17.4726 42.5223 17.3876 42.8987 17.3026C43.3762 17.1933 43.9225 17.2257 44.3151 16.991C45.088 16.5377 45.9177 16.3152 46.7675 16.1938C47.67 16.0643 48.2284 15.4815 48.7747 14.8704C49.0378 14.575 49.0459 14.1379 48.795 13.8668V13.8506ZM42.3281 14.83C42.2957 15.1173 42.2593 15.3925 41.9234 15.0485C41.8627 14.9918 41.7332 14.9554 41.6522 14.9756C40.7296 15.1901 39.7988 15.437 39.2525 16.2909C38.9773 16.7198 38.8478 17.2419 38.6414 17.7154C38.4269 18.1929 38.1962 18.6623 37.9736 19.1318C37.9129 19.1318 37.8563 19.1237 37.7996 19.1196C37.743 18.7959 37.7187 18.4681 37.6297 18.1565C37.4921 17.6547 37.318 17.165 37.14 16.6753C37.0388 16.3961 36.9093 16.1209 36.7596 15.8619C36.4844 15.3803 36.023 15.1416 35.5293 14.9595C35.1287 14.8097 34.728 14.664 34.3315 14.5022C34.2546 14.4738 34.2222 14.3403 34.202 14.312C33.5464 14.2472 32.9272 14.1865 32.1704 14.1137C32.5023 13.9396 32.7289 13.8223 32.9555 13.709C33.5342 13.4216 34.1048 13.1141 34.7038 12.8672C34.9142 12.7822 35.1772 12.8429 35.416 12.8187C36.1161 12.7539 36.7151 12.4747 37.0186 11.8191C37.2816 11.2566 37.4678 10.6495 37.6499 10.0546C37.8077 9.53664 38.1031 9.136 38.4269 8.72727C38.6049 9.24527 38.7668 9.71066 38.9287 10.176C39.0299 10.4715 39.1472 10.7669 39.216 11.0704C39.3617 11.7665 40.0052 12.2845 40.7174 12.333C40.9805 12.3492 41.2435 12.507 41.4944 12.6325C41.9113 12.847 42.324 13.0777 42.7328 13.3124C42.9553 13.4419 43.1536 13.6118 43.3803 13.7211C43.615 13.8304 43.8699 13.887 44.133 13.968C43.7081 14.66 43.0848 14.8745 42.3362 14.83H42.3281ZM4.89447 11.9769C5.1737 12.1671 5.41652 12.4261 5.71599 12.5718C6.63058 13.0129 7.52089 13.4581 7.74347 14.5912C7.75966 14.6721 7.83655 14.7409 7.86488 14.8219C7.93772 15.0363 8.04699 15.263 8.05508 15.4856C8.07127 15.8579 8.00652 16.2423 8.39097 16.4932C8.44358 16.5256 8.49214 16.6268 8.4881 16.6834C8.4193 17.3026 8.92111 17.6749 9.16393 18.1403C9.29343 18.3872 9.6536 18.5693 9.94902 18.6462C10.7058 18.8485 11.4626 18.1727 11.7823 17.4888C12.0493 16.9101 12.3043 16.3273 12.5431 15.7405C12.6038 15.5908 12.6645 15.3682 12.5997 15.2549C12.4459 14.9837 12.5269 14.8907 12.7859 14.8178C13.0692 14.7409 13.2553 14.5831 13.3403 14.2634C13.4415 13.8628 13.575 13.454 13.7976 13.1141C14.1213 12.6244 14.7486 12.6082 15.2342 12.3856C15.562 12.2359 15.9667 12.2642 16.2986 12.1226C16.8004 11.9081 17.2698 11.6167 17.7757 11.3456C17.8242 11.0664 17.6219 10.6657 18.0671 10.4755C18.1925 10.7183 18.3018 10.9288 18.4232 11.1675C18.9614 11.0016 19.354 10.605 19.5684 10.176C19.8193 9.65805 19.5927 9.136 19.3782 8.80821C19.0221 8.27806 18.4151 7.91385 17.9173 7.47678C17.4034 7.02758 16.5131 7.35538 16.1407 6.6148C16.1286 6.59456 16.0598 6.59861 16.0193 6.58647C15.8453 6.52577 15.6713 6.4853 15.5135 6.41245C15.2585 6.287 14.9955 6.1575 14.7648 5.99158C14.5544 5.84185 14.3642 5.65974 14.2063 5.45739C14.1213 5.34813 14.1213 5.17006 14.0971 5.01628C13.9999 4.43758 13.915 3.85483 13.8057 3.28017C13.7531 3.01308 13.6883 2.75003 13.6033 2.49103C13.49 2.143 13.3565 1.80306 13.231 1.45908C13.1299 1.18794 13.1015 0.839906 12.9113 0.66589C12.6159 0.390702 12.2315 0.127655 11.847 0.0548115C11.3088 -0.0463604 10.7139 -0.0706417 10.3537 0.556624C10.1392 0.92489 9.87617 1.27697 9.58075 1.58453C9.03442 2.15109 8.57308 2.78241 8.26147 3.49466C8.00652 4.08145 7.73133 4.63588 7.37116 5.17816C6.84102 5.97539 6.10853 6.14536 5.26678 6.24249C4.99969 6.27486 4.74069 6.42459 4.47764 6.52981C4.03653 6.70788 3.60756 7.02353 3.16241 7.04377C2.51491 7.06805 2.07784 7.43631 1.59627 7.73578C1.37773 7.87338 1.17134 8.10405 1.07017 8.33877C0.8395 8.86486 1.20777 9.86444 1.73386 10.1841C2.07784 10.3905 2.45825 10.5443 2.81033 10.7426C3.29191 11.0097 3.7573 11.3011 4.23078 11.5803C4.45336 11.7139 4.68403 11.8312 4.89852 11.981L4.89447 11.9769ZM5.70789 8.93771C6.64677 8.90533 7.3833 8.31449 8.23314 8.03525C8.88064 7.82481 9.37032 7.35942 9.68597 6.67955C10.0583 5.88231 10.6006 5.16197 11.0619 4.4133C11.1226 4.4133 11.1793 4.4133 11.24 4.4133C11.4949 5.21458 11.7458 6.01991 12.017 6.82119C12.0696 6.97092 12.2031 7.09233 12.2962 7.22588C12.3448 7.29467 12.4095 7.36347 12.4298 7.44036C12.4986 7.75197 12.6361 7.95836 12.9963 7.9786C13.138 7.98669 13.2756 8.11619 13.4091 8.20117C13.5062 8.26592 13.5791 8.41566 13.6721 8.41566C14.3601 8.45613 14.7648 8.98222 15.2747 9.32621C15.3395 9.37477 15.4366 9.37477 15.5175 9.395C15.5297 9.44761 15.5418 9.49617 15.5539 9.54878C15.2181 9.70257 14.8822 9.86849 14.5503 9.99799C14.2589 10.1113 13.9554 10.2084 13.656 10.2934C13.4051 10.3663 13.1501 10.4391 12.8951 10.4634C12.3286 10.516 12.0453 10.8357 11.8187 11.3456C11.5071 12.0457 11.0741 12.6892 10.7179 13.3731C10.5682 13.6564 10.4792 13.972 10.3051 14.405C10.1797 13.8992 10.0381 13.4985 9.99354 13.0898C9.89236 12.1105 9.47149 11.4023 8.4881 11.0866C8.31003 11.0259 8.19672 10.779 8.02271 10.686C7.60588 10.4674 7.14049 10.3258 6.73985 10.083C6.31897 9.82802 5.94666 9.48403 5.56625 9.16838C5.55411 9.16028 5.65933 8.94985 5.71194 8.9458L5.70789 8.93771Z" fill="#43423D"/>
</g>
<defs>
<clipPath id="clip0_547_38846">
<rect width="47.9798" height="48" fill="white" transform="translate(0.998047)"/>
</clipPath>
</defs>
</svg>
