<svg width="128" height="46" viewBox="0 0 128 46" fill="none" xmlns="http://www.w3.org/2000/svg">
<path d="M32.3418 19.7207C32.4232 19.7533 32.5046 19.7695 32.5859 19.7695C32.6673 19.7695 32.7568 19.7777 32.8545 19.7939C32.9847 19.8265 33.0661 19.8428 33.0986 19.8428C33.1475 19.8265 33.1882 19.8184 33.2207 19.8184C33.2695 19.8184 33.3184 19.8265 33.3672 19.8428C33.416 19.8428 33.4648 19.8428 33.5137 19.8428C33.6113 19.859 33.7008 19.8672 33.7822 19.8672C33.8636 19.8672 33.9531 19.8672 34.0508 19.8672C34.1159 19.8672 34.181 19.8672 34.2461 19.8672C34.3112 19.8509 34.3844 19.8346 34.4658 19.8184C34.6449 19.8021 34.7425 19.7939 34.7588 19.7939C34.7913 19.7777 34.8239 19.7695 34.8564 19.7695H35.2715C35.3854 19.7533 35.4505 19.7533 35.4668 19.7695C35.4993 19.7695 35.5319 19.7614 35.5645 19.7451C35.6784 19.7451 35.7598 19.7451 35.8086 19.7451C35.8574 19.7288 35.9144 19.7126 35.9795 19.6963C36.1585 19.5986 36.248 19.5254 36.248 19.4766C36.248 19.4115 36.248 19.3545 36.248 19.3057C36.248 19.2406 36.2399 19.1836 36.2236 19.1348C36.2236 19.0697 36.2236 19.0046 36.2236 18.9395C36.2399 18.8255 36.248 18.7197 36.248 18.6221C36.2643 18.5081 36.2725 18.3942 36.2725 18.2803C36.2725 18.0361 36.2562 17.8001 36.2236 17.5723C36.2074 17.3444 36.2074 17.1084 36.2236 16.8643C36.2074 16.6852 36.1992 16.555 36.1992 16.4736C36.1992 16.376 36.1911 16.2865 36.1748 16.2051C36.1423 16.026 36.126 15.904 36.126 15.8389C36.126 15.7738 36.1178 15.7005 36.1016 15.6191C36.1016 15.5215 36.0934 15.4238 36.0771 15.3262C36.0771 15.2122 36.0771 15.1064 36.0771 15.0088C36.0446 14.8623 36.0283 14.7809 36.0283 14.7646C36.0446 14.7484 36.0527 14.724 36.0527 14.6914C36.0365 14.4473 36.012 14.3008 35.9795 14.252C35.9958 14.0892 36.012 14.0078 36.0283 14.0078C36.0446 14.0078 36.0527 13.9915 36.0527 13.959C36.0527 13.8125 36.0365 13.7067 36.0039 13.6416C35.9876 13.5765 35.9958 13.5033 36.0283 13.4219L36.2236 13.2021C36.4027 13.1208 36.5166 13.0882 36.5654 13.1045C36.6143 13.1045 36.6712 13.0964 36.7363 13.0801C36.8177 13.0801 36.8991 13.0801 36.9805 13.0801C37.0618 13.0638 37.1595 13.0557 37.2734 13.0557C37.7454 13.0719 38.1361 13.0475 38.4453 12.9824C38.5755 12.9661 38.7057 12.9661 38.8359 12.9824C38.9824 12.9987 39.1126 13.0068 39.2266 13.0068L39.6172 12.9824C39.6497 12.9987 39.7067 13.0068 39.7881 13.0068C39.8857 12.9906 39.9753 12.9824 40.0566 12.9824C40.1055 12.9824 40.1462 12.9906 40.1787 13.0068C40.2275 13.0068 40.2764 13.0068 40.3252 13.0068C40.4229 13.0068 40.5205 13.0068 40.6182 13.0068C40.7158 12.9906 40.8216 12.9824 40.9355 12.9824C41.0658 13.015 41.1634 13.0312 41.2285 13.0312C41.375 13.0475 41.5133 13.0638 41.6436 13.0801C41.79 13.0964 41.9447 13.1208 42.1074 13.1533C42.2214 13.2835 42.2783 13.3649 42.2783 13.3975C42.2946 13.4137 42.3027 13.4382 42.3027 13.4707C42.3516 13.5846 42.3678 13.666 42.3516 13.7148C42.3516 13.7474 42.3516 13.7962 42.3516 13.8613C42.3353 13.9915 42.319 14.1543 42.3027 14.3496C42.3027 14.5286 42.3027 14.724 42.3027 14.9355C42.3027 15.0007 42.2946 15.0739 42.2783 15.1553C42.2783 15.2367 42.2783 15.3018 42.2783 15.3506C42.3109 15.611 42.319 15.7982 42.3027 15.9121C42.2865 16.0098 42.2702 16.1237 42.2539 16.2539L42.2051 16.5225V16.8643C42.2051 17.0433 42.2051 17.1491 42.2051 17.1816C42.2214 17.1979 42.2214 17.2223 42.2051 17.2549C42.2051 17.4827 42.1888 17.7106 42.1562 17.9385C42.14 18.1501 42.1318 18.3454 42.1318 18.5244C42.1318 18.5895 42.14 18.6546 42.1562 18.7197C42.1725 18.7848 42.1807 18.8499 42.1807 18.915C42.1644 19.0941 42.1481 19.1836 42.1318 19.1836C42.1318 19.1836 42.1318 19.1917 42.1318 19.208C42.1481 19.2894 42.1562 19.3545 42.1562 19.4033C42.1562 19.4521 42.1481 19.4928 42.1318 19.5254C42.1318 19.6556 42.1237 19.7939 42.1074 19.9404C42.1074 20.0869 42.1074 20.2415 42.1074 20.4043C42.0911 20.5182 42.083 20.6566 42.083 20.8193C42.0993 20.9658 42.1074 21.1286 42.1074 21.3076C42.1074 21.4704 42.0993 21.5599 42.083 21.5762C42.083 21.5924 42.083 21.6169 42.083 21.6494C42.1156 21.8122 42.1318 21.9017 42.1318 21.918V22.7725C42.1318 22.9027 42.1318 22.9759 42.1318 22.9922C42.1481 22.9922 42.1562 23.0085 42.1562 23.041C42.1725 23.1061 42.1725 23.1712 42.1562 23.2363C42.1562 23.2852 42.1644 23.3421 42.1807 23.4072C42.1807 23.4561 42.1807 23.5049 42.1807 23.5537C42.1969 23.6025 42.2051 23.6514 42.2051 23.7002C42.2214 23.749 42.2214 23.7979 42.2051 23.8467C42.2051 23.8955 42.2051 23.9443 42.2051 23.9932C42.2051 24.0745 42.2051 24.1559 42.2051 24.2373C42.2214 24.3187 42.2376 24.4001 42.2539 24.4814C42.2702 24.5954 42.2702 24.7012 42.2539 24.7988C42.2539 24.8802 42.2702 24.986 42.3027 25.1162C42.319 25.2464 42.3271 25.3766 42.3271 25.5068C42.3271 25.6208 42.3353 25.7591 42.3516 25.9219C42.3678 26.1335 42.3678 26.2718 42.3516 26.3369C42.3353 26.402 42.3271 26.4671 42.3271 26.5322C42.376 26.8415 42.4004 27.11 42.4004 27.3379C42.4004 27.5495 42.4085 27.7448 42.4248 27.9238C42.4248 28.0052 42.4329 28.0785 42.4492 28.1436C42.4655 28.1924 42.4736 28.2575 42.4736 28.3389C42.4899 28.5993 42.498 28.7458 42.498 28.7783C42.498 28.8597 42.4899 28.9329 42.4736 28.998C42.4736 29.0632 42.4736 29.1364 42.4736 29.2178C42.4899 29.348 42.5062 29.4701 42.5225 29.584C42.555 29.6816 42.5794 29.7874 42.5957 29.9014C42.5957 30.0316 42.6038 30.1292 42.6201 30.1943C42.6201 30.3734 42.6201 30.4629 42.6201 30.4629C42.6364 30.4466 42.6364 30.4629 42.6201 30.5117C42.6201 30.5605 42.6038 30.6094 42.5713 30.6582C42.555 30.6908 42.5469 30.7314 42.5469 30.7803C42.3516 30.9105 42.1807 30.9756 42.0342 30.9756C41.8551 30.9919 41.7412 31 41.6924 31C41.6598 30.9837 41.6273 30.9756 41.5947 30.9756C41.4971 30.9756 41.4076 30.9837 41.3262 31C41.2611 31.0163 41.196 31 41.1309 30.9512C41.0983 30.9837 41.0413 30.9919 40.96 30.9756C40.8949 30.943 40.8379 30.943 40.7891 30.9756C40.6751 30.943 40.6019 30.9268 40.5693 30.9268C40.5531 30.9105 40.5286 30.8942 40.4961 30.8779C40.431 30.8779 40.3659 30.8861 40.3008 30.9023C40.2357 30.9023 40.1624 30.9105 40.0811 30.9268C40.0322 30.9268 39.9834 30.9349 39.9346 30.9512C39.8857 30.9512 39.8206 30.9512 39.7393 30.9512C39.6579 30.9349 39.5684 30.943 39.4707 30.9756C39.2917 30.9756 39.1777 30.9756 39.1289 30.9756C39.0964 30.9593 39.0557 30.9593 39.0068 30.9756C38.9743 30.9756 38.9336 30.9837 38.8848 31C38.8359 31 38.779 31 38.7139 31C38.486 31.0326 38.3314 31.0488 38.25 31.0488C38.1686 31.0651 38.0872 31.0732 38.0059 31.0732C37.9408 31.0732 37.8675 31.0651 37.7861 31.0488C37.721 31.0488 37.6478 31.0488 37.5664 31.0488C37.485 31.0488 37.4036 31.0488 37.3223 31.0488C37.2572 31.0488 37.1839 31.057 37.1025 31.0732C37.0212 31.0732 36.9479 31.0651 36.8828 31.0488C36.834 31.0488 36.777 31.0651 36.7119 31.0977C36.598 31.0326 36.5329 30.9919 36.5166 30.9756C36.5166 30.9593 36.5003 30.943 36.4678 30.9268C36.3864 30.8942 36.3376 30.8535 36.3213 30.8047C36.3213 30.7396 36.3132 30.6419 36.2969 30.5117C36.2969 30.3978 36.2887 30.3164 36.2725 30.2676C36.2725 30.2025 36.2806 30.1292 36.2969 30.0479C36.3294 29.8851 36.3376 29.8037 36.3213 29.8037C36.3213 29.7874 36.3213 29.763 36.3213 29.7305C36.3701 29.5352 36.3864 29.3724 36.3701 29.2422C36.3701 29.0957 36.3701 28.9574 36.3701 28.8271C36.3701 28.762 36.3783 28.7051 36.3945 28.6562C36.4108 28.5911 36.4189 28.526 36.4189 28.4609C36.4352 28.347 36.4434 28.2249 36.4434 28.0947C36.4434 27.9645 36.4434 27.8506 36.4434 27.7529C36.4434 27.6878 36.4352 27.6227 36.4189 27.5576C36.4189 27.4925 36.4189 27.4193 36.4189 27.3379C36.4515 27.1426 36.4596 27.0205 36.4434 26.9717C36.4434 26.9229 36.4434 26.8822 36.4434 26.8496C36.4434 26.7682 36.4515 26.7031 36.4678 26.6543C36.484 26.6055 36.4922 26.5404 36.4922 26.459C36.4922 26.2474 36.484 26.1172 36.4678 26.0684V25.3848C36.4678 25.2546 36.4678 25.165 36.4678 25.1162C36.484 25.0674 36.4922 25.0104 36.4922 24.9453C36.4922 24.8802 36.484 24.8232 36.4678 24.7744C36.4515 24.7256 36.4515 24.6686 36.4678 24.6035C36.3538 24.5872 36.2399 24.5872 36.126 24.6035C36.0283 24.6198 35.9307 24.6279 35.833 24.6279C35.7516 24.6442 35.6702 24.6523 35.5889 24.6523C35.5075 24.6361 35.4342 24.6279 35.3691 24.6279C35.2878 24.6117 35.1982 24.6117 35.1006 24.6279C35.0029 24.6279 34.9053 24.6198 34.8076 24.6035C34.6449 24.571 34.5391 24.5628 34.4902 24.5791C34.4414 24.5954 34.3926 24.6035 34.3438 24.6035C34.181 24.6035 34.0915 24.6035 34.0752 24.6035C33.9287 24.6198 33.7822 24.6279 33.6357 24.6279C33.4893 24.6279 33.3509 24.6279 33.2207 24.6279C33.1393 24.6442 33.0661 24.6523 33.001 24.6523C32.9359 24.6361 32.8545 24.6279 32.7568 24.6279C32.6917 24.6279 32.6185 24.6279 32.5371 24.6279C32.472 24.6279 32.4069 24.6361 32.3418 24.6523C32.3092 24.7012 32.3011 24.7663 32.3174 24.8477C32.3499 24.9128 32.3581 24.9697 32.3418 25.0186C32.3418 25.1162 32.3499 25.1976 32.3662 25.2627C32.3825 25.3278 32.3906 25.3929 32.3906 25.458C32.4069 25.6045 32.4069 25.7591 32.3906 25.9219C32.3906 26.0684 32.3988 26.2148 32.415 26.3613C32.4476 26.5566 32.4557 26.6868 32.4395 26.752C32.4395 26.8496 32.4639 26.9717 32.5127 27.1182V27.4355C32.529 27.5495 32.5371 27.6634 32.5371 27.7773C32.5371 27.875 32.5452 27.9808 32.5615 28.0947C32.5778 28.2249 32.5859 28.3633 32.5859 28.5098C32.6022 28.6562 32.6185 28.7946 32.6348 28.9248C32.6673 29.0062 32.6836 29.1038 32.6836 29.2178C32.7324 29.4782 32.7487 29.7061 32.7324 29.9014C32.7161 30.0804 32.7243 30.2594 32.7568 30.4385C32.7894 30.6175 32.8057 30.7314 32.8057 30.7803C32.8057 30.8128 32.8057 30.8372 32.8057 30.8535C32.7894 30.9023 32.7568 30.9349 32.708 30.9512C32.6755 30.9674 32.6429 31 32.6104 31.0488C32.5778 31.0814 32.5127 31.0895 32.415 31.0732C32.3337 31.057 32.2523 31.0407 32.1709 31.0244C32.0081 31.0244 31.9186 31.0163 31.9023 31C31.8861 31 31.8698 31 31.8535 31C31.5443 31.0488 31.3164 31.0651 31.1699 31.0488C31.0397 31.0326 30.9095 31.0407 30.7793 31.0732C30.5677 31.1221 30.4131 31.1465 30.3154 31.1465C30.234 31.1465 30.1527 31.1546 30.0713 31.1709C29.9899 31.1709 29.9167 31.1709 29.8516 31.1709C29.7865 31.1872 29.7132 31.1872 29.6318 31.1709C29.5342 31.1709 29.4365 31.1628 29.3389 31.1465C29.2412 31.1302 29.1354 31.1383 29.0215 31.1709C28.7936 31.2197 28.639 31.236 28.5576 31.2197C28.4762 31.2197 28.3867 31.2279 28.2891 31.2441L27.3857 31.2686C27.1579 31.2848 26.9544 31.2686 26.7754 31.2197C26.6126 31.1872 26.4499 31.1383 26.2871 31.0732C26.2708 30.9105 26.2464 30.8128 26.2139 30.7803C26.1976 30.6501 26.1813 30.5524 26.165 30.4873C26.165 30.4059 26.1732 30.3245 26.1895 30.2432C26.2708 29.999 26.3034 29.8037 26.2871 29.6572C26.2871 29.5107 26.2871 29.348 26.2871 29.1689C26.3197 28.9574 26.3359 28.8353 26.3359 28.8027L26.2871 28.5342V28.2412C26.3197 28.1436 26.3278 28.0866 26.3115 28.0703C26.3115 28.0378 26.3115 28.0052 26.3115 27.9727C26.2952 27.8424 26.2952 27.7529 26.3115 27.7041C26.3278 27.6553 26.3359 27.6064 26.3359 27.5576C26.3359 27.5251 26.3197 27.4274 26.2871 27.2646L26.3115 26.4346V25.7998V25.4824V25.165C26.3115 25.1162 26.3197 25.0674 26.3359 25.0186C26.3522 24.9697 26.3604 24.9209 26.3604 24.8721L26.3359 24.5547C26.3359 24.457 26.3278 24.3594 26.3115 24.2617C26.3115 24.1641 26.3034 24.0664 26.2871 23.9688C26.2871 23.7734 26.2952 23.5781 26.3115 23.3828C26.3278 23.1875 26.3359 22.9759 26.3359 22.748C26.3359 22.569 26.3278 22.3574 26.3115 22.1133C26.3115 21.8691 26.3115 21.6331 26.3115 21.4053C26.3115 21.2913 26.3115 21.1855 26.3115 21.0879C26.3278 20.974 26.3278 20.86 26.3115 20.7461C26.3115 20.681 26.3034 20.624 26.2871 20.5752C26.2871 20.5101 26.2871 20.445 26.2871 20.3799C26.2871 20.1357 26.279 19.9404 26.2627 19.7939C26.2464 19.6312 26.222 19.501 26.1895 19.4033C26.1569 19.208 26.1406 19.0859 26.1406 19.0371C26.1569 18.972 26.165 18.9069 26.165 18.8418C26.1488 18.7441 26.1325 18.6383 26.1162 18.5244C26.1162 18.4105 26.1162 18.3128 26.1162 18.2314C26.0999 18.1175 26.0918 18.0524 26.0918 18.0361C26.1081 18.0199 26.1162 17.9954 26.1162 17.9629C26.0999 17.8978 26.0837 17.8408 26.0674 17.792C26.0674 17.7432 26.0674 17.6781 26.0674 17.5967C26.0674 17.4339 26.0592 17.3281 26.043 17.2793C26.043 17.2305 26.043 17.1816 26.043 17.1328V16.8398C25.9941 16.6771 25.9697 16.5713 25.9697 16.5225C25.9697 16.4574 25.9697 16.4085 25.9697 16.376L25.9209 15.9854L25.8721 15.5703L25.8232 15.1309C25.7907 14.9681 25.7744 14.846 25.7744 14.7646C25.7581 14.6995 25.7337 14.6182 25.7012 14.5205C25.6849 14.4229 25.6768 14.3252 25.6768 14.2275C25.6768 14.1624 25.6768 14.0973 25.6768 14.0322C25.693 13.9671 25.7012 13.902 25.7012 13.8369C25.7337 13.6579 25.7419 13.5521 25.7256 13.5195C25.7256 13.487 25.7419 13.4544 25.7744 13.4219C25.8721 13.3079 25.9372 13.2428 25.9697 13.2266C26.1325 13.1452 26.2301 13.0964 26.2627 13.0801C26.3115 13.0638 26.3522 13.0475 26.3848 13.0312C26.5801 13.015 26.6777 13.0068 26.6777 13.0068C26.694 12.9906 26.7103 12.9824 26.7266 12.9824H27.2148C27.2962 12.9499 27.3776 12.9417 27.459 12.958C27.5566 12.9743 27.6462 12.9824 27.7275 12.9824L28.3623 13.0068C28.6064 13.0231 28.7692 13.0394 28.8506 13.0557C28.932 13.0557 29.0133 13.0638 29.0947 13.0801C29.1436 13.0801 29.1924 13.0882 29.2412 13.1045C29.29 13.1045 29.3633 13.0964 29.4609 13.0801C29.4935 13.0801 29.5342 13.0882 29.583 13.1045C29.6481 13.1045 29.7132 13.1045 29.7783 13.1045C29.876 13.1208 29.9736 13.1289 30.0713 13.1289C30.1689 13.1126 30.2666 13.1208 30.3643 13.1533C30.5107 13.1859 30.6654 13.2021 30.8281 13.2021C30.8932 13.2184 30.9502 13.2266 30.999 13.2266C31.0641 13.2266 31.1292 13.2347 31.1943 13.251C31.2594 13.251 31.3327 13.251 31.4141 13.251C31.4954 13.251 31.5687 13.2591 31.6338 13.2754C31.764 13.3079 31.8779 13.3242 31.9756 13.3242C32.1058 13.3568 32.1709 13.3893 32.1709 13.4219C32.1709 13.4544 32.179 13.487 32.1953 13.5195C32.2767 13.6823 32.3255 13.7718 32.3418 13.7881C32.4232 13.9346 32.4557 14.0241 32.4395 14.0566C32.4395 14.0729 32.4476 14.1055 32.4639 14.1543C32.5127 14.2682 32.5371 14.4066 32.5371 14.5693C32.5371 14.6995 32.5371 14.8216 32.5371 14.9355C32.5371 15.0495 32.529 15.1471 32.5127 15.2285C32.4801 15.4076 32.472 15.5133 32.4883 15.5459C32.5046 15.5622 32.5127 15.5866 32.5127 15.6191C32.4639 15.7493 32.4395 15.8307 32.4395 15.8633C32.4395 15.8958 32.4313 15.9284 32.415 15.9609C32.4313 16.0098 32.4313 16.0586 32.415 16.1074C32.3988 16.1562 32.3906 16.1969 32.3906 16.2295C32.3906 16.2783 32.3906 16.3353 32.3906 16.4004C32.4069 16.4492 32.415 16.5062 32.415 16.5713C32.3988 16.7015 32.3825 16.8398 32.3662 16.9863C32.3499 17.1328 32.3418 17.2712 32.3418 17.4014C32.3255 17.5804 32.3255 17.7676 32.3418 17.9629C32.3581 18.1582 32.3581 18.3454 32.3418 18.5244C32.3092 18.9313 32.3092 19.3301 32.3418 19.7207ZM55.0889 19.623C55.1051 19.737 55.1051 19.8672 55.0889 20.0137C55.0563 20.1439 55.04 20.2334 55.04 20.2822C55.0563 20.3148 55.0645 20.3473 55.0645 20.3799C55.0645 20.4775 55.0645 20.5833 55.0645 20.6973C55.0807 20.7949 55.097 20.8926 55.1133 20.9902C55.1133 21.1204 55.1051 21.2507 55.0889 21.3809C55.0726 21.4948 55.0563 21.6169 55.04 21.7471C55.0563 21.9098 55.0563 22.0075 55.04 22.04C55.04 22.0726 55.04 22.1133 55.04 22.1621C55.0726 22.3737 55.0807 22.5446 55.0645 22.6748C55.0645 22.805 55.0645 22.9352 55.0645 23.0654C55.0645 23.2282 55.0726 23.3258 55.0889 23.3584C55.1051 23.391 55.1133 23.4235 55.1133 23.4561V23.9932C55.1133 24.1071 55.1133 24.1722 55.1133 24.1885C55.1296 24.2048 55.1377 24.2292 55.1377 24.2617C55.1377 24.3919 55.1296 24.514 55.1133 24.6279C55.1133 24.7419 55.1296 24.8232 55.1621 24.8721C55.1947 24.9372 55.2028 25.043 55.1865 25.1895C55.1702 25.3359 55.154 25.458 55.1377 25.5557C55.1214 25.7347 55.1214 25.9056 55.1377 26.0684C55.154 26.2148 55.1784 26.3695 55.2109 26.5322C55.2435 26.7764 55.2598 26.9229 55.2598 26.9717C55.2435 27.0368 55.2354 27.0938 55.2354 27.1426C55.2516 27.1914 55.2598 27.2402 55.2598 27.2891C55.2598 27.3704 55.2598 27.4355 55.2598 27.4844C55.276 27.5332 55.2923 27.5902 55.3086 27.6553C55.3411 27.7855 55.3656 27.8913 55.3818 27.9727C55.3818 28.054 55.3737 28.1273 55.3574 28.1924C55.3574 28.2575 55.3574 28.3307 55.3574 28.4121C55.3574 28.4935 55.3656 28.5667 55.3818 28.6318C55.3981 28.6807 55.4144 28.7376 55.4307 28.8027C55.4469 28.9004 55.4469 29.0062 55.4307 29.1201C55.4307 29.2178 55.4388 29.3317 55.4551 29.4619C55.4714 29.5107 55.4795 29.5677 55.4795 29.6328C55.4795 29.6979 55.4958 29.7712 55.5283 29.8525C55.5609 29.9502 55.5771 30.0234 55.5771 30.0723C55.5771 30.1211 55.5853 30.1699 55.6016 30.2188C55.6667 30.5117 55.6829 30.7396 55.6504 30.9023C55.5527 31.0814 55.5039 31.2116 55.5039 31.293C55.3737 31.3581 55.276 31.3906 55.2109 31.3906C55.1458 31.3906 55.0889 31.3906 55.04 31.3906C54.9587 31.4069 54.8854 31.4069 54.8203 31.3906C54.7552 31.3743 54.682 31.3662 54.6006 31.3662C54.4867 31.3499 54.3646 31.3418 54.2344 31.3418C54.1204 31.3418 54.0065 31.3418 53.8926 31.3418C53.86 31.3255 53.8112 31.3174 53.7461 31.3174C53.681 31.3174 53.6403 31.3174 53.624 31.3174C53.4938 31.3337 53.4206 31.3337 53.4043 31.3174C53.388 31.3174 53.3636 31.3174 53.3311 31.3174C53.2334 31.3174 53.1276 31.3255 53.0137 31.3418C52.8997 31.3581 52.7939 31.3743 52.6963 31.3906C52.5986 31.3906 52.501 31.3825 52.4033 31.3662C52.3057 31.3662 52.208 31.3743 52.1104 31.3906C52.0127 31.3906 51.915 31.3988 51.8174 31.415C51.736 31.4313 51.6628 31.4395 51.5977 31.4395C51.4837 31.4395 51.3698 31.4395 51.2559 31.4395C51.1582 31.4395 51.0443 31.4557 50.9141 31.4883C50.8652 31.4883 50.8164 31.4964 50.7676 31.5127C50.7188 31.529 50.6699 31.5371 50.6211 31.5371C50.556 31.5371 50.4909 31.5371 50.4258 31.5371C50.3607 31.5371 50.2874 31.5534 50.2061 31.5859L49.9375 31.6104C49.7422 31.6104 49.6364 31.6022 49.6201 31.5859C49.6038 31.5697 49.5794 31.5615 49.5469 31.5615L49.2783 31.4883C49.1156 31.3743 49.0342 31.3011 49.0342 31.2686C49.0342 31.2523 49.026 31.236 49.0098 31.2197C48.9772 31.1221 48.9691 31.0488 48.9854 31C49.0016 30.9674 49.0179 30.9349 49.0342 30.9023C49.0342 30.7559 49.0342 30.6826 49.0342 30.6826C49.0505 30.6663 49.0586 30.6419 49.0586 30.6094C49.0423 30.528 49.0342 30.471 49.0342 30.4385C49.0505 30.4059 49.0586 30.3734 49.0586 30.3408L49.083 29.9502C49.0993 29.9014 49.1074 29.8363 49.1074 29.7549C49.1074 29.6735 49.1156 29.6084 49.1318 29.5596C49.1644 29.3968 49.1725 29.3073 49.1562 29.291C49.1562 29.2747 49.1562 29.2503 49.1562 29.2178C49.1725 29.055 49.1725 28.9736 49.1562 28.9736C49.1562 28.9574 49.1562 28.9329 49.1562 28.9004C49.1888 28.7865 49.2132 28.7051 49.2295 28.6562C49.2458 28.5911 49.2539 28.5342 49.2539 28.4854C49.2539 28.3063 49.2702 28.1842 49.3027 28.1191C49.2865 28.0703 49.2865 28.0133 49.3027 27.9482C49.319 27.8831 49.3271 27.8343 49.3271 27.8018C49.3271 27.6064 49.3271 27.4762 49.3271 27.4111C49.3271 27.346 49.3271 27.2972 49.3271 27.2646C49.3434 27.1833 49.3516 27.0856 49.3516 26.9717C49.3516 26.8577 49.3516 26.7601 49.3516 26.6787C49.3516 26.3695 49.3597 26.1172 49.376 25.9219C49.3923 25.7266 49.4004 25.5394 49.4004 25.3604C49.4004 25.279 49.4004 25.2139 49.4004 25.165C49.4004 25.0999 49.3923 25.0267 49.376 24.9453V24.2617C49.3923 24.2129 49.3923 24.1641 49.376 24.1152C49.376 24.0664 49.3923 24.0257 49.4248 23.9932L49.4004 23.1143C49.4167 23.0329 49.4167 22.9596 49.4004 22.8945C49.4004 22.8132 49.4085 22.7399 49.4248 22.6748C49.4248 22.512 49.4329 22.4062 49.4492 22.3574C49.4655 22.2923 49.4736 22.2272 49.4736 22.1621C49.4736 22.097 49.4655 22.04 49.4492 21.9912C49.4329 21.9424 49.4248 21.8936 49.4248 21.8447L49.4736 21.3076C49.4411 21.0798 49.4329 20.9414 49.4492 20.8926C49.4655 20.8275 49.4736 20.7624 49.4736 20.6973C49.4574 20.4043 49.4492 20.1764 49.4492 20.0137C49.4655 19.8346 49.4655 19.6637 49.4492 19.501C49.4167 19.2406 49.3923 19.0859 49.376 19.0371C49.3434 18.793 49.3271 18.6546 49.3271 18.6221C49.3434 18.5732 49.3353 18.5081 49.3027 18.4268C49.2539 18.3291 49.2132 18.264 49.1807 18.2314C49.1644 18.1989 49.1481 18.1663 49.1318 18.1338C49.0505 18.1663 48.9609 18.1826 48.8633 18.1826C48.7819 18.1663 48.7005 18.1663 48.6191 18.1826C48.5215 18.1826 48.4157 18.1908 48.3018 18.207C48.2041 18.207 48.1146 18.207 48.0332 18.207C47.9193 18.207 47.8135 18.207 47.7158 18.207C47.6344 18.1908 47.5449 18.1989 47.4473 18.2314C47.3984 18.2314 47.3089 18.2477 47.1787 18.2803C47.016 18.3291 46.8776 18.3535 46.7637 18.3535C46.6986 18.3535 46.6335 18.3617 46.5684 18.3779C46.5195 18.3942 46.4788 18.4105 46.4463 18.4268C46.2835 18.4593 46.1859 18.4756 46.1533 18.4756L45.7871 18.5244C45.5592 18.5895 45.4128 18.6302 45.3477 18.6465C45.2826 18.6628 45.2256 18.679 45.1768 18.6953C45.1442 18.7116 45.0954 18.7197 45.0303 18.7197C44.8838 18.6872 44.7861 18.6709 44.7373 18.6709C44.6885 18.6546 44.6478 18.6383 44.6152 18.6221C44.5827 18.5895 44.542 18.5651 44.4932 18.5488C44.4606 18.5163 44.4281 18.4837 44.3955 18.4512C44.3141 18.2721 44.2653 18.1745 44.249 18.1582C44.249 18.1257 44.249 18.1012 44.249 18.085C44.2979 17.9059 44.3223 17.7839 44.3223 17.7188C44.3385 17.6536 44.3548 17.5804 44.3711 17.499C44.3711 17.3525 44.3955 17.2305 44.4443 17.1328C44.4932 16.9701 44.5176 16.8398 44.5176 16.7422C44.5501 16.6608 44.5745 16.5794 44.5908 16.498C44.6071 16.4004 44.6234 16.3027 44.6396 16.2051C44.6559 16.1237 44.6641 16.0505 44.6641 15.9854C44.6641 15.9202 44.6722 15.847 44.6885 15.7656C44.7699 15.6029 44.8105 15.4808 44.8105 15.3994C44.8431 15.3018 44.8512 15.2367 44.835 15.2041C44.835 15.1715 44.8431 15.1309 44.8594 15.082C44.8757 14.9844 44.8919 14.9111 44.9082 14.8623C44.9245 14.7972 44.9326 14.7484 44.9326 14.7158L44.957 14.2764L45.0059 13.8857C45.0384 13.8369 45.0465 13.7962 45.0303 13.7637C45.0303 13.7311 45.0303 13.6742 45.0303 13.5928C45.1279 13.4463 45.1768 13.373 45.1768 13.373C45.193 13.3568 45.2012 13.3405 45.2012 13.3242C45.3314 13.1777 45.429 13.1045 45.4941 13.1045C45.5755 13.0882 45.6488 13.0638 45.7139 13.0312C45.7464 13.015 45.7952 13.015 45.8604 13.0312C45.9255 13.0312 45.9906 13.0231 46.0557 13.0068C46.1696 12.9743 46.251 12.9661 46.2998 12.9824C46.3486 12.9987 46.4137 13.0068 46.4951 13.0068C46.5765 13.0231 46.6497 13.0394 46.7148 13.0557C46.7962 13.0557 46.8776 13.0557 46.959 13.0557C47.1543 13.0394 47.2682 13.0394 47.3008 13.0557C47.3496 13.0719 47.3984 13.0801 47.4473 13.0801C47.6751 13.0801 47.8135 13.0882 47.8623 13.1045C47.9274 13.1208 47.9844 13.137 48.0332 13.1533C48.0983 13.1533 48.1634 13.1615 48.2285 13.1777C48.2936 13.1777 48.3587 13.1696 48.4238 13.1533C48.5052 13.1208 48.5785 13.1126 48.6436 13.1289C48.7249 13.1452 48.7982 13.1533 48.8633 13.1533C48.9284 13.1533 48.9854 13.1533 49.0342 13.1533C49.083 13.137 49.1318 13.1289 49.1807 13.1289L49.5469 13.1777C49.7259 13.1615 49.8317 13.1533 49.8643 13.1533C49.9945 13.1696 50.0677 13.1777 50.084 13.1777C50.1165 13.1615 50.1491 13.1533 50.1816 13.1533C50.3607 13.1696 50.4746 13.1859 50.5234 13.2021C50.556 13.1859 50.6048 13.1777 50.6699 13.1777C50.7513 13.1777 50.8245 13.1859 50.8896 13.2021C51.1175 13.2021 51.3128 13.2021 51.4756 13.2021C51.6221 13.2184 51.7035 13.2266 51.7197 13.2266C51.736 13.2103 51.7604 13.2021 51.793 13.2021H52.1592H52.4277C52.5742 13.2021 52.6637 13.194 52.6963 13.1777C52.7288 13.1615 52.7614 13.1533 52.7939 13.1533C52.859 13.137 52.916 13.1289 52.9648 13.1289C53.0137 13.1289 53.0706 13.1208 53.1357 13.1045C53.2822 13.0882 53.3636 13.0801 53.3799 13.0801C53.3962 13.0638 53.4124 13.0557 53.4287 13.0557C53.5589 13.0394 53.6322 13.0394 53.6484 13.0557C53.681 13.0557 53.7135 13.0475 53.7461 13.0312C53.9251 13.0312 54.0146 13.0312 54.0146 13.0312C54.0146 13.015 54.0228 13.0068 54.0391 13.0068C54.1693 12.9906 54.2425 12.9906 54.2588 13.0068C54.2751 13.0068 54.2995 13.0068 54.332 13.0068C54.5111 13.0068 54.6087 13.015 54.625 13.0312C54.6413 13.0312 54.6657 13.0312 54.6982 13.0312C54.7633 13.0312 54.8203 13.0231 54.8691 13.0068C54.9342 12.9906 54.9993 12.9824 55.0645 12.9824C55.1133 12.9661 55.1702 12.9661 55.2354 12.9824C55.3167 12.9987 55.3656 12.9987 55.3818 12.9824C55.5609 12.9661 55.6585 12.9661 55.6748 12.9824C55.6911 12.9824 55.7074 12.9824 55.7236 12.9824C55.9678 12.9499 56.1224 12.9499 56.1875 12.9824C56.2689 12.9499 56.3503 12.9336 56.4316 12.9336C56.5293 12.9336 56.6188 12.9255 56.7002 12.9092C56.863 12.9092 56.9606 12.9092 56.9932 12.9092C57.0257 12.8929 57.0664 12.8848 57.1152 12.8848C57.3757 12.8359 57.5628 12.8197 57.6768 12.8359C57.7907 12.8359 57.9046 12.8278 58.0186 12.8115C58.2627 12.7464 58.4173 12.722 58.4824 12.7383C58.5638 12.7383 58.637 12.7383 58.7021 12.7383C58.8649 12.7057 58.9626 12.6976 58.9951 12.7139C59.0277 12.7301 59.0602 12.7383 59.0928 12.7383C59.2393 12.722 59.3369 12.7139 59.3857 12.7139C59.4346 12.6976 59.4753 12.6895 59.5078 12.6895C59.5566 12.6732 59.6055 12.665 59.6543 12.665C59.7031 12.665 59.752 12.6488 59.8008 12.6162C59.8659 12.6488 59.9147 12.6813 59.9473 12.7139C59.9961 12.7301 60.0368 12.779 60.0693 12.8604C60.1833 13.0231 60.2484 13.1452 60.2646 13.2266C60.2809 13.3079 60.2809 13.4219 60.2646 13.5684C60.2484 13.6497 60.2321 13.7474 60.2158 13.8613C60.2158 13.9753 60.1995 14.0892 60.167 14.2031C60.1344 14.3171 60.1182 14.3903 60.1182 14.4229C60.1344 14.4391 60.1344 14.4635 60.1182 14.4961C60.0693 14.7402 60.0368 14.9193 60.0205 15.0332C60.0042 15.1309 59.988 15.2367 59.9717 15.3506C59.9066 15.5459 59.8659 15.6842 59.8496 15.7656C59.8496 15.847 59.8415 15.9284 59.8252 16.0098C59.8089 16.2051 59.7845 16.3353 59.752 16.4004C59.7357 16.4818 59.7275 16.555 59.7275 16.6201C59.7438 16.6852 59.7438 16.7585 59.7275 16.8398C59.695 17.0026 59.6706 17.1084 59.6543 17.1572C59.6055 17.2549 59.5811 17.3281 59.5811 17.377C59.5973 17.4258 59.5973 17.4746 59.5811 17.5234C59.5322 17.6699 59.4997 17.7757 59.4834 17.8408C59.4671 17.9059 59.4427 17.9792 59.4102 18.0605C59.4264 18.1582 59.4102 18.2314 59.3613 18.2803C59.3125 18.3291 59.2718 18.3942 59.2393 18.4756C59.1904 18.4919 59.1416 18.5163 59.0928 18.5488C59.0602 18.5651 59.0277 18.5895 58.9951 18.6221C58.8975 18.6709 58.8079 18.6709 58.7266 18.6221C58.5801 18.5732 58.4824 18.5407 58.4336 18.5244C58.3848 18.4919 58.3278 18.4674 58.2627 18.4512C58.1325 18.4512 58.0592 18.443 58.043 18.4268C58.043 18.4105 58.0267 18.4023 57.9941 18.4023C57.9453 18.3861 57.8558 18.3779 57.7256 18.3779C57.5303 18.3454 57.4163 18.3372 57.3838 18.3535C57.3512 18.3535 57.3187 18.3535 57.2861 18.3535C57.1071 18.321 57.0013 18.3128 56.9688 18.3291C56.9525 18.3454 56.9281 18.3454 56.8955 18.3291C56.7653 18.2965 56.6595 18.2803 56.5781 18.2803C56.4967 18.264 56.4154 18.2477 56.334 18.2314H55.8945C55.7643 18.2152 55.6423 18.2152 55.5283 18.2314C55.3981 18.2477 55.3167 18.2965 55.2842 18.3779C55.2354 18.5081 55.2109 18.6383 55.2109 18.7686L55.1377 19.3545C55.1377 19.4847 55.1214 19.5742 55.0889 19.623ZM86.8936 29.8281C86.861 29.8932 86.8203 29.9421 86.7715 29.9746C86.7227 29.9909 86.6657 30.0153 86.6006 30.0479C86.4378 30.1292 86.332 30.1699 86.2832 30.1699C86.2344 30.1699 86.1937 30.1862 86.1611 30.2188C86.1123 30.235 86.0635 30.2594 86.0146 30.292C85.9821 30.3245 85.9414 30.3571 85.8926 30.3896C85.7135 30.4385 85.6077 30.4792 85.5752 30.5117C85.5426 30.528 85.502 30.5443 85.4531 30.5605C85.3066 30.6419 85.2008 30.6826 85.1357 30.6826C85.0706 30.6663 84.9974 30.6663 84.916 30.6826C84.8346 30.6989 84.7451 30.7233 84.6475 30.7559C84.5661 30.7721 84.4766 30.7965 84.3789 30.8291C84.3138 30.8454 84.2161 30.8861 84.0859 30.9512C83.9395 30.9837 83.8581 31 83.8418 31C83.8255 30.9837 83.8011 30.9756 83.7686 30.9756C83.5895 31.057 83.443 31.0977 83.3291 31.0977C83.2314 31.1139 83.1419 31.1383 83.0605 31.1709C82.9954 31.1872 82.9385 31.2035 82.8896 31.2197C82.8408 31.236 82.7839 31.2523 82.7188 31.2686C82.556 31.3174 82.4421 31.3418 82.377 31.3418C82.3281 31.3418 82.2874 31.3581 82.2549 31.3906C82.1247 31.4557 82.0352 31.5046 81.9863 31.5371C81.6934 31.5859 81.5306 31.6104 81.498 31.6104C81.4167 31.6104 81.3434 31.5859 81.2783 31.5371C81.2132 31.5046 81.1481 31.472 81.083 31.4395C81.0016 31.2441 80.9528 31.1058 80.9365 31.0244C80.9365 30.9593 80.9284 30.8779 80.9121 30.7803C80.8633 30.5687 80.8307 30.4466 80.8145 30.4141C80.7982 30.3652 80.7819 30.3164 80.7656 30.2676C80.7168 30.0072 80.6924 29.8281 80.6924 29.7305C80.6924 29.6328 80.6842 29.5189 80.668 29.3887C80.6354 29.2422 80.6191 29.1527 80.6191 29.1201C80.6191 29.0713 80.611 29.0143 80.5947 28.9492C80.5947 28.8678 80.5866 28.7865 80.5703 28.7051C80.554 28.6237 80.5459 28.5342 80.5459 28.4365C80.5133 28.2575 80.4971 28.1517 80.4971 28.1191C80.5133 27.9889 80.5133 27.8831 80.4971 27.8018C80.4808 27.7204 80.4645 27.6471 80.4482 27.582C80.3994 27.3704 80.375 27.1995 80.375 27.0693C80.3262 26.8252 80.2936 26.6624 80.2773 26.5811C80.2611 26.4997 80.2448 26.4183 80.2285 26.3369C80.2122 26.2555 80.196 26.1742 80.1797 26.0928C80.1634 26.0114 80.1471 25.93 80.1309 25.8486L80.082 25.5557C80.0495 25.3604 80.0251 25.2139 80.0088 25.1162C79.9925 25.0023 79.9681 24.8965 79.9355 24.7988C79.9193 24.7337 79.9111 24.6768 79.9111 24.6279C79.9111 24.5628 79.903 24.4977 79.8867 24.4326C79.8704 24.3512 79.8542 24.2617 79.8379 24.1641C79.8379 24.0664 79.8298 23.9769 79.8135 23.8955C79.7809 23.7165 79.7565 23.6025 79.7402 23.5537C79.7077 23.4235 79.6914 23.334 79.6914 23.2852C79.6914 23.2201 79.6833 23.1549 79.667 23.0898C79.6507 22.9434 79.6344 22.862 79.6182 22.8457C79.6182 22.8294 79.6182 22.8132 79.6182 22.7969C79.6019 22.7155 79.5938 22.6504 79.5938 22.6016C79.5938 22.5365 79.5856 22.4714 79.5693 22.4062C79.5531 22.3411 79.5286 22.276 79.4961 22.2109C79.4798 22.1458 79.4798 22.0563 79.4961 21.9424C79.4798 21.861 79.4635 21.804 79.4473 21.7715C79.4473 21.7389 79.4473 21.682 79.4473 21.6006C79.4473 21.4541 79.4391 21.3564 79.4229 21.3076C79.374 21.1123 79.3496 20.9902 79.3496 20.9414C79.3496 20.8763 79.3333 20.8193 79.3008 20.7705C79.2194 20.7705 79.1706 20.7949 79.1543 20.8438C79.138 20.8926 79.1136 20.9333 79.0811 20.9658C79.0322 20.9821 78.9997 21.0228 78.9834 21.0879C78.9834 21.153 78.959 21.1937 78.9102 21.21C78.8451 21.3564 78.8125 21.446 78.8125 21.4785C78.8125 21.4948 78.8044 21.5192 78.7881 21.5518C78.7718 21.5843 78.7474 21.625 78.7148 21.6738C78.6986 21.7227 78.6742 21.7715 78.6416 21.8203C78.5765 21.9668 78.5277 22.097 78.4951 22.2109C78.43 22.3411 78.373 22.4388 78.3242 22.5039C78.2754 22.6667 78.2266 22.7725 78.1777 22.8213C78.1452 22.8538 78.1208 22.8945 78.1045 22.9434C78.0719 23.0247 78.0394 23.1305 78.0068 23.2607C77.958 23.3421 77.9092 23.4235 77.8604 23.5049C77.8115 23.5863 77.779 23.6839 77.7627 23.7979C77.6976 23.8955 77.665 23.9525 77.665 23.9688C77.665 23.985 77.6569 24.0094 77.6406 24.042C77.5755 24.1396 77.5267 24.221 77.4941 24.2861C77.429 24.4489 77.3883 24.5547 77.3721 24.6035C77.3721 24.6523 77.3558 24.7012 77.3232 24.75L77.1768 24.9941C77.1117 25.1732 77.0791 25.2871 77.0791 25.3359C77.0791 25.3685 77.071 25.401 77.0547 25.4336C77.0059 25.5964 76.9489 25.7428 76.8838 25.873C76.835 26.0033 76.778 26.1416 76.7129 26.2881C76.6478 26.4834 76.599 26.6136 76.5664 26.6787C76.5339 26.8089 76.5013 26.9066 76.4688 26.9717C76.3874 27.167 76.3304 27.2809 76.2979 27.3135C76.2979 27.3949 76.2897 27.46 76.2734 27.5088C76.2572 27.5576 76.2409 27.6064 76.2246 27.6553C76.2083 27.7041 76.1921 27.7611 76.1758 27.8262C76.1758 27.875 76.1676 27.9238 76.1514 27.9727C76.07 28.1517 76.0212 28.2819 76.0049 28.3633C75.9886 28.4284 75.9642 28.4854 75.9316 28.5342C75.8991 28.6481 75.8665 28.7376 75.834 28.8027C75.8177 28.8516 75.7933 28.9085 75.7607 28.9736C75.7282 29.055 75.7038 29.1364 75.6875 29.2178C75.6712 29.2829 75.6468 29.348 75.6143 29.4131C75.598 29.4945 75.5573 29.6165 75.4922 29.7793C75.4434 29.8932 75.4189 29.9746 75.4189 30.0234C75.4189 30.056 75.4027 30.0885 75.3701 30.1211C75.305 30.3001 75.2562 30.4059 75.2236 30.4385C75.2074 30.4873 75.1992 30.5443 75.1992 30.6094C75.1992 30.6582 75.1829 30.6989 75.1504 30.7314C75.1016 30.7803 75.0527 30.8291 75.0039 30.8779C74.9714 30.9268 74.9388 30.9593 74.9062 30.9756C74.8411 31.1058 74.7923 31.1709 74.7598 31.1709C74.7435 31.1872 74.7272 31.2116 74.7109 31.2441C74.6621 31.2441 74.6133 31.236 74.5645 31.2197C74.5319 31.2197 74.4912 31.2197 74.4424 31.2197C74.3773 31.2197 74.3122 31.2197 74.2471 31.2197C74.1982 31.236 74.1413 31.236 74.0762 31.2197C73.9785 31.2035 73.8727 31.2197 73.7588 31.2686C73.6611 31.2523 73.5879 31.2441 73.5391 31.2441C73.4902 31.2604 73.4414 31.2604 73.3926 31.2441C73.2298 31.179 73.1322 31.1465 73.0996 31.1465C72.9694 31.0651 72.888 31.0081 72.8555 30.9756C72.7415 30.8454 72.6602 30.7477 72.6113 30.6826C72.5788 30.6175 72.5544 30.5361 72.5381 30.4385C72.4893 30.3734 72.4486 30.3001 72.416 30.2188C72.3835 30.1374 72.3509 30.0479 72.3184 29.9502C72.2695 29.8688 72.237 29.8118 72.2207 29.7793C72.2207 29.7467 72.2126 29.7142 72.1963 29.6816C72.18 29.6003 72.1556 29.5352 72.123 29.4863C72.1068 29.4212 72.0905 29.3724 72.0742 29.3398C72.0417 29.2585 72.001 29.1771 71.9521 29.0957C71.9196 29.0143 71.9033 28.9329 71.9033 28.8516C71.8057 28.5749 71.7406 28.4121 71.708 28.3633C71.6755 28.2168 71.6348 28.111 71.5859 28.0459C71.6022 27.9808 71.5941 27.932 71.5615 27.8994C71.5452 27.8506 71.5208 27.7936 71.4883 27.7285C71.4069 27.5495 71.3662 27.4355 71.3662 27.3867C71.3662 27.3379 71.3499 27.2809 71.3174 27.2158C71.2686 27.1344 71.236 27.0449 71.2197 26.9473C71.1546 26.7682 71.1139 26.6624 71.0977 26.6299C71.0977 26.5811 71.0895 26.5404 71.0732 26.5078C70.9919 26.3288 70.9512 26.223 70.9512 26.1904C70.9512 26.1579 70.943 26.1253 70.9268 26.0928C70.8454 25.93 70.7965 25.8242 70.7803 25.7754C70.7803 25.7103 70.764 25.6533 70.7314 25.6045C70.6826 25.458 70.6582 25.3685 70.6582 25.3359C70.6582 25.3034 70.6501 25.2708 70.6338 25.2383C70.585 25.1081 70.5605 25.0267 70.5605 24.9941C70.5605 24.9616 70.5524 24.929 70.5361 24.8965C70.4385 24.7012 70.3896 24.571 70.3896 24.5059C70.3896 24.4408 70.3734 24.3757 70.3408 24.3105C70.2594 24.099 70.2025 23.9525 70.1699 23.8711C70.1211 23.7083 70.0885 23.6188 70.0723 23.6025C70.0234 23.4886 69.9909 23.3991 69.9746 23.334C69.9746 23.2689 69.9583 23.2119 69.9258 23.1631C69.9095 23.0492 69.8851 22.9759 69.8525 22.9434C69.82 22.8945 69.8118 22.8538 69.8281 22.8213C69.7956 22.6748 69.7549 22.5771 69.7061 22.5283C69.6735 22.4632 69.6735 22.4062 69.7061 22.3574C69.6572 22.3086 69.6247 22.2516 69.6084 22.1865C69.5921 22.1051 69.5677 22.0238 69.5352 21.9424C69.4863 21.8285 69.4619 21.7633 69.4619 21.7471C69.4619 21.7145 69.4538 21.682 69.4375 21.6494C69.3398 21.4215 69.291 21.2832 69.291 21.2344C69.2422 21.1042 69.2015 20.9984 69.1689 20.917C69.1038 20.7868 69.0632 20.6973 69.0469 20.6484C69.0306 20.5996 68.998 20.5589 68.9492 20.5264C68.8841 20.5915 68.8434 20.6403 68.8271 20.6729C68.8109 20.6891 68.7946 20.7135 68.7783 20.7461C68.7295 20.8926 68.6969 20.974 68.6807 20.9902C68.6807 20.9902 68.6807 20.9984 68.6807 21.0146C68.6644 21.096 68.64 21.1693 68.6074 21.2344C68.5911 21.2832 68.5749 21.3483 68.5586 21.4297C68.526 21.5111 68.5098 21.6006 68.5098 21.6982C68.5098 21.7959 68.4935 21.8854 68.4609 21.9668C68.4284 22.1296 68.3958 22.276 68.3633 22.4062C68.347 22.4714 68.3389 22.5283 68.3389 22.5771C68.3389 22.626 68.3307 22.6748 68.3145 22.7236C68.3145 22.805 68.2982 22.9108 68.2656 23.041V23.3828C68.2493 23.4967 68.2331 23.6107 68.2168 23.7246C68.2168 23.8223 68.2005 23.9362 68.168 24.0664L68.1191 24.5059C68.0703 24.8314 68.0296 25.0267 67.9971 25.0918C67.9971 25.2708 67.9889 25.3766 67.9727 25.4092C67.9727 25.4255 67.9727 25.4499 67.9727 25.4824C67.9564 25.6452 67.9401 25.7428 67.9238 25.7754C67.9238 25.8079 67.9238 25.8568 67.9238 25.9219C67.9076 26.1335 67.8831 26.3044 67.8506 26.4346C67.8343 26.516 67.8262 26.5973 67.8262 26.6787C67.8424 26.7438 67.8506 26.7926 67.8506 26.8252C67.8343 26.874 67.8099 26.9229 67.7773 26.9717C67.7611 27.0205 67.7448 27.0693 67.7285 27.1182V27.4844L67.6797 27.875C67.6797 28.0215 67.6797 28.1273 67.6797 28.1924C67.696 28.2412 67.7041 28.2982 67.7041 28.3633C67.7041 28.5098 67.7041 28.6807 67.7041 28.876C67.7041 29.055 67.696 29.234 67.6797 29.4131C67.6797 29.5596 67.6797 29.6735 67.6797 29.7549C67.6797 29.82 67.6715 29.8851 67.6553 29.9502C67.639 30.0153 67.6227 30.0804 67.6064 30.1455C67.6064 30.1943 67.5983 30.2594 67.582 30.3408L67.5088 30.9268C67.4762 31.0732 67.4437 31.1628 67.4111 31.1953C67.3949 31.2279 67.3786 31.2604 67.3623 31.293C67.3298 31.3418 67.3135 31.3988 67.3135 31.4639C67.3135 31.5452 67.2972 31.6104 67.2646 31.6592C67.2158 31.6592 67.167 31.6673 67.1182 31.6836C67.0693 31.7161 67.0205 31.7406 66.9717 31.7568C66.7275 31.708 66.5729 31.6836 66.5078 31.6836C66.4427 31.6999 66.3695 31.6999 66.2881 31.6836C66.1742 31.651 66.1009 31.6348 66.0684 31.6348C66.0521 31.651 66.0358 31.6592 66.0195 31.6592C65.8568 31.5452 65.751 31.4964 65.7021 31.5127C65.6533 31.529 65.6126 31.5208 65.5801 31.4883C65.3848 31.4232 65.2464 31.3906 65.165 31.3906C65.0999 31.4069 65.0267 31.4069 64.9453 31.3906C64.8639 31.3743 64.7907 31.3581 64.7256 31.3418C64.6605 31.3418 64.5872 31.3337 64.5059 31.3174C64.4408 31.3011 64.3838 31.293 64.335 31.293C64.2861 31.293 64.2292 31.2767 64.1641 31.2441C64.0827 31.2116 64.0176 31.1953 63.9688 31.1953C63.9362 31.1953 63.9036 31.1872 63.8711 31.1709C63.7083 31.1058 63.6025 31.0732 63.5537 31.0732C63.5049 31.0732 63.4642 31.0732 63.4316 31.0732C63.3503 31.0895 63.2852 31.0814 63.2363 31.0488C63.2038 31.0326 63.1631 31.0244 63.1143 31.0244C63.0817 31.0081 63.0329 31 62.9678 31C62.9189 31.0163 62.8701 31.0163 62.8213 31C62.7074 30.9674 62.6341 30.9593 62.6016 30.9756C62.5853 30.9756 62.5609 30.9674 62.5283 30.9512C62.3493 30.8861 62.2272 30.8372 62.1621 30.8047C62.1133 30.7721 62.0563 30.7396 61.9912 30.707C61.8936 30.6419 61.8122 30.5931 61.7471 30.5605C61.7145 30.528 61.6738 30.4954 61.625 30.4629C61.5924 30.4303 61.5436 30.4141 61.4785 30.4141C61.446 30.235 61.4134 30.1211 61.3809 30.0723C61.4134 29.9909 61.4297 29.9095 61.4297 29.8281C61.4297 29.7467 61.4378 29.6572 61.4541 29.5596C61.5355 29.3805 61.5843 29.2585 61.6006 29.1934C61.6169 29.1608 61.625 29.1201 61.625 29.0713C61.625 29.0225 61.6331 28.9736 61.6494 28.9248C61.7145 28.7295 61.7471 28.6156 61.7471 28.583C61.7471 28.5342 61.7552 28.4854 61.7715 28.4365C61.804 28.3226 61.8122 28.2575 61.7959 28.2412C61.7959 28.2249 61.7959 28.2005 61.7959 28.168C61.8447 28.0703 61.8691 28.0133 61.8691 27.9971C61.8854 27.9645 61.9017 27.9238 61.918 27.875C61.9668 27.696 61.9912 27.5983 61.9912 27.582C62.0075 27.5658 62.0156 27.5495 62.0156 27.5332C62.0156 27.4193 62.0238 27.3542 62.04 27.3379C62.0563 27.3053 62.0645 27.2728 62.0645 27.2402C62.0807 27.1426 62.0889 27.0449 62.0889 26.9473C62.0889 26.8333 62.1051 26.7194 62.1377 26.6055C62.154 26.5241 62.1621 26.4508 62.1621 26.3857C62.1784 26.3044 62.1947 26.223 62.2109 26.1416L62.2354 25.8486C62.2516 25.7998 62.2679 25.7347 62.2842 25.6533C62.3005 25.5719 62.3167 25.4906 62.333 25.4092C62.333 25.3278 62.3411 25.2708 62.3574 25.2383C62.3737 25.1895 62.3818 25.1406 62.3818 25.0918L62.4551 24.7988C62.4876 24.6035 62.5202 24.457 62.5527 24.3594C62.5527 24.3105 62.5527 24.2617 62.5527 24.2129C62.5527 24.1478 62.569 24.0908 62.6016 24.042C62.6341 23.863 62.6423 23.7653 62.626 23.749C62.626 23.7327 62.6423 23.7409 62.6748 23.7734C62.6911 23.5781 62.6911 23.4642 62.6748 23.4316C62.6748 23.3828 62.6829 23.334 62.6992 23.2852C62.7155 23.1224 62.7399 22.9596 62.7725 22.7969C62.7725 22.6992 62.7562 22.6097 62.7236 22.5283C62.7074 22.4307 62.7155 22.333 62.748 22.2354C62.7643 22.1377 62.7806 22.0482 62.7969 21.9668C62.8132 21.8691 62.8294 21.7796 62.8457 21.6982C62.8945 21.4867 62.9189 21.3483 62.9189 21.2832C62.9189 21.2018 62.9189 21.1204 62.9189 21.0391C62.9515 20.9089 62.9678 20.8112 62.9678 20.7461C63.0166 20.5182 63.0329 20.3717 63.0166 20.3066C63.0166 20.2415 63.0329 20.1683 63.0654 20.0869C63.0654 19.9079 63.0817 19.7939 63.1143 19.7451C63.1468 19.6963 63.1712 19.6393 63.1875 19.5742C63.1875 19.4115 63.1956 19.2894 63.2119 19.208C63.2119 19.1592 63.2119 19.1104 63.2119 19.0615C63.2119 18.9964 63.2201 18.9313 63.2363 18.8662L63.2852 18.5977C63.3177 18.4349 63.334 18.3128 63.334 18.2314C63.3665 18.1663 63.3828 18.085 63.3828 17.9873C63.3991 17.8896 63.4235 17.8001 63.4561 17.7188C63.4886 17.5234 63.4967 17.4176 63.4805 17.4014C63.4805 17.3851 63.4805 17.3607 63.4805 17.3281L63.5781 16.9619C63.6107 16.848 63.6351 16.7259 63.6514 16.5957C63.6676 16.4492 63.6839 16.3109 63.7002 16.1807C63.7002 16.1481 63.7002 16.1074 63.7002 16.0586C63.7165 16.0098 63.7246 15.9609 63.7246 15.9121C63.7409 15.847 63.749 15.7982 63.749 15.7656C63.7653 15.7168 63.7653 15.668 63.749 15.6191C63.7816 15.4889 63.8141 15.3099 63.8467 15.082L63.8711 14.6426C63.8874 14.4961 63.9036 14.3984 63.9199 14.3496C63.9362 14.3008 63.9362 14.2357 63.9199 14.1543C63.9525 14.0729 63.9688 13.9997 63.9688 13.9346C63.9688 13.8532 63.985 13.7555 64.0176 13.6416C64.0827 13.43 64.1234 13.3161 64.1396 13.2998C64.221 13.1859 64.278 13.1045 64.3105 13.0557C64.3431 12.9906 64.3757 12.9336 64.4082 12.8848C64.4896 12.8848 64.5547 12.8604 64.6035 12.8115C64.6686 12.7464 64.7337 12.6976 64.7988 12.665C64.9941 12.6325 65.0999 12.6243 65.1162 12.6406C65.1325 12.6569 65.1569 12.665 65.1895 12.665C65.3359 12.6488 65.4173 12.6488 65.4336 12.665C65.4499 12.665 65.458 12.6488 65.458 12.6162C65.6208 12.6488 65.751 12.6732 65.8486 12.6895C65.9626 12.6895 66.0602 12.6813 66.1416 12.665H66.4102L66.8496 12.6895C67.0612 12.7546 67.1914 12.779 67.2402 12.7627C67.2891 12.7464 67.3379 12.7546 67.3867 12.7871C67.6146 12.8359 67.7611 12.8604 67.8262 12.8604C67.8913 12.8441 67.9645 12.8441 68.0459 12.8604L68.3145 12.8848H68.6318C68.8109 12.8848 68.9329 12.8766 68.998 12.8604C69.0794 12.8441 69.1608 12.8522 69.2422 12.8848C69.3073 12.8522 69.3968 12.8441 69.5107 12.8604C69.6247 12.8604 69.7386 12.8604 69.8525 12.8604C70.0479 12.8278 70.1536 12.8197 70.1699 12.8359C70.1862 12.8359 70.2106 12.8359 70.2432 12.8359C70.4059 12.8034 70.4873 12.7952 70.4873 12.8115C70.5036 12.8115 70.5199 12.8115 70.5361 12.8115C70.6175 12.8115 70.6745 12.8115 70.707 12.8115C70.7396 12.7952 70.7721 12.7871 70.8047 12.7871C70.9512 12.8034 71.0732 12.8441 71.1709 12.9092C71.2848 12.9743 71.3988 13.0231 71.5127 13.0557C71.5941 13.1533 71.651 13.2347 71.6836 13.2998C71.7487 13.3812 71.7812 13.4382 71.7812 13.4707C71.7975 13.487 71.8138 13.5114 71.8301 13.5439C71.8789 13.6742 71.9115 13.7555 71.9277 13.7881C71.9603 13.8044 71.9766 13.8288 71.9766 13.8613C72.0254 13.9753 72.0498 14.0485 72.0498 14.0811C72.0498 14.1136 72.0661 14.1462 72.0986 14.1787C72.0824 14.2275 72.0824 14.2764 72.0986 14.3252C72.1149 14.374 72.1312 14.4147 72.1475 14.4473C72.18 14.6589 72.2044 14.7891 72.2207 14.8379C72.237 14.8867 72.2451 14.9274 72.2451 14.96C72.2777 15.0413 72.2939 15.1146 72.2939 15.1797C72.2939 15.2285 72.3102 15.2855 72.3428 15.3506C72.3916 15.5133 72.4323 15.611 72.4648 15.6436C72.4811 15.7575 72.4893 15.8551 72.4893 15.9365C72.5218 16.083 72.5706 16.2458 72.6357 16.4248L72.709 16.7422C72.7578 16.8236 72.7822 16.8887 72.7822 16.9375C72.7822 16.9863 72.7904 17.027 72.8066 17.0596C72.888 17.1898 72.9287 17.2793 72.9287 17.3281C72.9287 17.3607 72.9368 17.3932 72.9531 17.4258C73.002 17.6048 73.0264 17.7106 73.0264 17.7432C73.0426 17.7594 73.0589 17.7839 73.0752 17.8164C73.124 18.0117 73.1566 18.1338 73.1729 18.1826C73.1891 18.2314 73.2054 18.2803 73.2217 18.3291C73.2868 18.5244 73.3275 18.6302 73.3438 18.6465C73.3763 18.6953 73.3926 18.7604 73.3926 18.8418C73.3926 18.9069 73.4089 18.972 73.4414 19.0371L73.5635 19.4766C73.596 19.5579 73.6123 19.6393 73.6123 19.7207C73.6286 19.7858 73.653 19.8672 73.6855 19.9648C73.7344 20.1439 73.7588 20.2415 73.7588 20.2578C73.7751 20.2578 73.7832 20.2741 73.7832 20.3066C73.8483 20.5671 73.9053 20.7217 73.9541 20.7705C74.1331 20.7705 74.2227 20.7705 74.2227 20.7705C74.304 20.624 74.3447 20.5264 74.3447 20.4775C74.3936 20.3473 74.4261 20.2578 74.4424 20.209C74.4587 20.1602 74.4749 20.1032 74.4912 20.0381C74.5075 19.973 74.5238 19.916 74.54 19.8672C74.5726 19.737 74.597 19.6149 74.6133 19.501C74.6458 19.387 74.7028 19.2894 74.7842 19.208C74.7679 19.1429 74.776 19.0941 74.8086 19.0615C74.8411 19.029 74.8493 18.972 74.833 18.8906C74.8981 18.8092 74.9307 18.736 74.9307 18.6709C74.9469 18.6058 74.9632 18.5407 74.9795 18.4756C75.0609 18.2965 75.1097 18.1908 75.126 18.1582C75.1423 18.0931 75.1585 18.028 75.1748 17.9629C75.1911 17.8978 75.2155 17.8245 75.248 17.7432C75.2969 17.613 75.3213 17.5234 75.3213 17.4746C75.3538 17.4258 75.3701 17.377 75.3701 17.3281C75.3864 17.2793 75.4108 17.2386 75.4434 17.2061C75.4434 17.1572 75.4515 17.1165 75.4678 17.084C75.484 17.0352 75.5003 16.9782 75.5166 16.9131C75.5654 16.7666 75.598 16.6771 75.6143 16.6445C75.6468 16.5957 75.6712 16.555 75.6875 16.5225C75.7363 16.3434 75.7689 16.2539 75.7852 16.2539C75.834 16.14 75.8747 16.0505 75.9072 15.9854C75.9398 15.9202 75.9561 15.8226 75.9561 15.6924C76.0537 15.5296 76.1432 15.3343 76.2246 15.1064C76.2572 15.0088 76.2816 14.9437 76.2979 14.9111C76.3141 14.8786 76.3304 14.8298 76.3467 14.7646C76.4118 14.5693 76.4525 14.4473 76.4688 14.3984C76.5013 14.3496 76.5339 14.3008 76.5664 14.252C76.6152 14.1055 76.6396 14.0241 76.6396 14.0078C76.6559 13.9753 76.6803 13.9427 76.7129 13.9102C76.7617 13.7799 76.7861 13.7148 76.7861 13.7148C76.8024 13.6986 76.8105 13.6742 76.8105 13.6416C76.8757 13.5765 76.9082 13.5195 76.9082 13.4707C76.9082 13.4219 76.9163 13.3812 76.9326 13.3486C77.0465 13.1859 77.1035 13.0964 77.1035 13.0801C77.1198 13.0475 77.1442 13.015 77.1768 12.9824C77.2419 12.8359 77.2826 12.7546 77.2988 12.7383C77.5104 12.6243 77.6406 12.5837 77.6895 12.6162C77.7871 12.5511 77.8766 12.5348 77.958 12.5674C78.0557 12.5837 78.1696 12.5674 78.2998 12.5186C78.3649 12.5348 78.4707 12.543 78.6172 12.543H79.1543L79.4229 12.5674C79.5368 12.5837 79.6263 12.5755 79.6914 12.543C79.9844 12.5267 80.196 12.5186 80.3262 12.5186C80.4564 12.5023 80.5785 12.5104 80.6924 12.543C80.8714 12.543 80.9609 12.5511 80.9609 12.5674C80.9772 12.5674 80.9935 12.5674 81.0098 12.5674C81.0911 12.5674 81.1888 12.5755 81.3027 12.5918C81.4167 12.5918 81.5143 12.5918 81.5957 12.5918C81.6771 12.5918 81.7422 12.5999 81.791 12.6162C81.8398 12.6325 81.8805 12.6406 81.9131 12.6406H82.2061C82.3851 12.6243 82.4827 12.6243 82.499 12.6406C82.5153 12.6406 82.5397 12.6406 82.5723 12.6406C82.6862 12.6895 82.7676 12.7139 82.8164 12.7139C82.8652 12.6976 82.9141 12.7057 82.9629 12.7383C83.1257 12.7057 83.2152 12.722 83.2314 12.7871C83.264 12.8359 83.2965 12.8848 83.3291 12.9336C83.3617 12.9661 83.3942 13.0068 83.4268 13.0557C83.4756 13.0882 83.5163 13.1208 83.5488 13.1533C83.5977 13.3161 83.6221 13.4219 83.6221 13.4707C83.6221 13.5033 83.6302 13.5358 83.6465 13.5684C83.679 13.666 83.6953 13.7555 83.6953 13.8369C83.7441 14.016 83.7767 14.1217 83.793 14.1543C83.8092 14.1868 83.8174 14.2194 83.8174 14.252C83.8499 14.3333 83.8662 14.3984 83.8662 14.4473C83.8662 14.4961 83.8825 14.5612 83.915 14.6426C83.9313 14.7402 83.9395 14.8135 83.9395 14.8623C83.9557 14.9111 83.972 14.9518 83.9883 14.9844C84.0371 15.196 84.0534 15.3343 84.0371 15.3994C84.0371 15.4482 84.0452 15.4971 84.0615 15.5459C84.0778 15.6273 84.0859 15.7168 84.0859 15.8145C84.1022 15.9121 84.1266 16.0016 84.1592 16.083C84.1755 16.1644 84.1755 16.2376 84.1592 16.3027C84.1592 16.3516 84.1836 16.4085 84.2324 16.4736C84.2324 16.6038 84.2406 16.734 84.2568 16.8643C84.2894 16.9782 84.3219 17.1003 84.3545 17.2305C84.3708 17.377 84.3952 17.5153 84.4277 17.6455C84.4928 17.8408 84.5254 17.9548 84.5254 17.9873C84.5254 18.0199 84.5335 18.0524 84.5498 18.085C84.5661 18.1501 84.5742 18.2152 84.5742 18.2803C84.5905 18.3454 84.6149 18.4105 84.6475 18.4756C84.6637 18.5244 84.6719 18.5732 84.6719 18.6221C84.6719 18.6709 84.68 18.7197 84.6963 18.7686C84.7288 18.8662 84.7451 18.9476 84.7451 19.0127C84.7451 19.0778 84.7533 19.1429 84.7695 19.208C84.8021 19.3708 84.8102 19.4684 84.7939 19.501C84.7939 19.5173 84.8021 19.5417 84.8184 19.5742C84.8672 19.7207 84.8916 19.8184 84.8916 19.8672C84.9567 20.1439 85.0137 20.445 85.0625 20.7705C85.0788 20.8193 85.0869 20.8682 85.0869 20.917C85.0869 20.9658 85.0951 21.0146 85.1113 21.0635C85.1602 21.2425 85.1846 21.3564 85.1846 21.4053C85.1846 21.4541 85.1927 21.5111 85.209 21.5762C85.209 21.625 85.209 21.6738 85.209 21.7227C85.2253 21.7715 85.2415 21.8285 85.2578 21.8936C85.2741 21.9912 85.2904 22.097 85.3066 22.2109C85.3229 22.3249 85.3392 22.4388 85.3555 22.5527C85.388 22.7318 85.4124 22.8864 85.4287 23.0166C85.4613 23.1305 85.4938 23.2445 85.5264 23.3584C85.5752 23.5537 85.5996 23.6514 85.5996 23.6514C85.6159 23.8304 85.6322 23.9362 85.6484 23.9688C85.6647 23.985 85.681 24.0094 85.6973 24.042C85.7298 24.2536 85.7542 24.3838 85.7705 24.4326C85.7868 24.4814 85.8031 24.5303 85.8193 24.5791C85.8356 24.6442 85.8438 24.75 85.8438 24.8965C85.8926 25.0104 85.9089 25.1081 85.8926 25.1895C85.8926 25.2546 85.9089 25.3278 85.9414 25.4092C85.974 25.5557 85.9821 25.6615 85.9658 25.7266C85.9658 25.7754 85.9821 25.8242 86.0146 25.873C86.0472 25.9544 86.0635 26.0277 86.0635 26.0928C86.0798 26.1416 86.096 26.1904 86.1123 26.2393C86.1611 26.3857 86.1774 26.4753 86.1611 26.5078C86.1611 26.5241 86.1693 26.5485 86.1855 26.5811C86.2018 26.7113 86.21 26.7926 86.21 26.8252C86.2262 26.8415 86.2344 26.8659 86.2344 26.8984C86.2669 27.0124 86.2751 27.0856 86.2588 27.1182C86.2588 27.1507 86.2669 27.1833 86.2832 27.2158C86.2995 27.2972 86.3158 27.3786 86.332 27.46C86.3646 27.5251 86.389 27.5983 86.4053 27.6797C86.4378 27.7611 86.4541 27.8506 86.4541 27.9482C86.4541 28.0296 86.4622 28.111 86.4785 28.1924C86.4948 28.2412 86.5111 28.2982 86.5273 28.3633C86.5436 28.4121 86.5599 28.4609 86.5762 28.5098C86.625 28.6562 86.6657 28.762 86.6982 28.8271C86.7308 28.876 86.7552 28.9411 86.7715 29.0225C86.7878 29.2666 86.804 29.4131 86.8203 29.4619C86.8366 29.5433 86.8529 29.6084 86.8691 29.6572C86.8854 29.6898 86.8936 29.7467 86.8936 29.8281ZM93.2832 31.2441C93.2507 31.2604 93.2018 31.2604 93.1367 31.2441C93.0879 31.2441 93.0309 31.236 92.9658 31.2197C92.7705 31.1221 92.6566 31.0651 92.624 31.0488C92.5915 31.0488 92.5589 31.0407 92.5264 31.0244C92.3962 30.9593 92.2741 30.8617 92.1602 30.7314C92.0625 30.6501 92.0137 30.6012 92.0137 30.585C92.0137 30.5687 91.9974 30.5443 91.9648 30.5117C91.8346 30.3815 91.7695 30.3164 91.7695 30.3164C91.6393 30.1536 91.5417 30.0479 91.4766 29.999C91.4115 29.9502 91.3626 29.8851 91.3301 29.8037C91.2487 29.7712 91.1917 29.7223 91.1592 29.6572C91.1266 29.5758 91.0859 29.4945 91.0371 29.4131C90.9069 29.2829 90.8255 29.2015 90.793 29.1689C90.7441 29.0876 90.7035 29.0306 90.6709 28.998C90.6383 28.9655 90.5977 28.9248 90.5488 28.876C90.3698 28.6481 90.2559 28.4772 90.207 28.3633C90.1582 28.2493 90.085 28.168 89.9873 28.1191C89.971 28.0378 89.9385 27.9808 89.8896 27.9482C89.8571 27.9157 89.8245 27.8831 89.792 27.8506C89.7269 27.7041 89.6862 27.6227 89.6699 27.6064C89.6536 27.5739 89.6374 27.5413 89.6211 27.5088L89.5479 27.2158L89.6211 26.6787C89.6211 26.6462 89.6211 26.6055 89.6211 26.5566C89.6374 26.5078 89.6455 26.459 89.6455 26.4102C89.613 26.2148 89.5967 26.1172 89.5967 26.1172C89.613 26.1009 89.6211 26.0846 89.6211 26.0684C89.6211 26.0033 89.6211 25.9219 89.6211 25.8242C89.6374 25.7103 89.6618 25.6126 89.6943 25.5312C89.6618 25.4661 89.6455 25.4092 89.6455 25.3604C89.6618 25.2952 89.6699 25.222 89.6699 25.1406C89.6699 25.0755 89.6699 25.0186 89.6699 24.9697C89.6862 24.9046 89.6943 24.8314 89.6943 24.75C89.6781 24.6849 89.6699 24.5791 89.6699 24.4326V24.1396C89.6862 24.042 89.6781 23.9769 89.6455 23.9443C89.6292 23.8955 89.6211 23.8467 89.6211 23.7979C89.6211 23.749 89.6211 23.7002 89.6211 23.6514C89.6374 23.6025 89.6455 23.5456 89.6455 23.4805C89.6455 23.3991 89.6374 23.3258 89.6211 23.2607C89.6048 23.1794 89.5804 23.098 89.5479 23.0166V22.0645C89.5316 21.9017 89.5234 21.7471 89.5234 21.6006C89.5397 21.4378 89.5397 21.2832 89.5234 21.1367C89.5234 21.0553 89.5153 20.9821 89.499 20.917C89.499 20.8519 89.4909 20.7868 89.4746 20.7217C89.4746 20.5915 89.4746 20.4775 89.4746 20.3799C89.4909 20.266 89.4827 20.1439 89.4502 20.0137C89.4339 19.8672 89.4176 19.7939 89.4014 19.7939C89.4014 19.7777 89.4014 19.7614 89.4014 19.7451C89.3688 19.5986 89.3525 19.4928 89.3525 19.4277C89.3688 19.3626 89.377 19.3138 89.377 19.2812C89.377 19.2324 89.3688 19.1836 89.3525 19.1348C89.32 18.9557 89.3037 18.8581 89.3037 18.8418L89.3281 18.5244L89.2549 18.2314C89.2386 18.1012 89.2305 18.028 89.2305 18.0117C89.2467 17.9792 89.2549 17.9466 89.2549 17.9141V17.5234L89.2061 16.791C89.1898 16.7259 89.1735 16.6689 89.1572 16.6201C89.141 16.555 89.1328 16.4899 89.1328 16.4248C89.1491 16.2783 89.1491 16.1888 89.1328 16.1562C89.1328 16.1237 89.1328 16.0911 89.1328 16.0586C89.1328 15.9935 89.1328 15.9284 89.1328 15.8633C89.1328 15.7982 89.1247 15.7331 89.1084 15.668C89.0758 15.5378 89.0596 15.4482 89.0596 15.3994C89.0433 15.3343 89.0352 15.2367 89.0352 15.1064C89.0026 14.9762 88.9782 14.8949 88.9619 14.8623C88.9619 14.8135 88.9619 14.7728 88.9619 14.7402C88.9619 14.61 88.9538 14.5286 88.9375 14.4961C88.9212 14.4473 88.9131 14.4066 88.9131 14.374C88.9456 14.2764 88.9619 14.1868 88.9619 14.1055L88.9375 13.7637C88.8887 13.6335 88.8805 13.5277 88.9131 13.4463C88.9456 13.3649 88.9782 13.2917 89.0107 13.2266C89.1898 13.1289 89.3037 13.0638 89.3525 13.0312C89.4014 12.9824 89.4421 12.958 89.4746 12.958C89.5072 12.9417 89.5479 12.9499 89.5967 12.9824C89.6618 12.9987 89.7188 13.0068 89.7676 13.0068C89.9792 12.9743 90.1012 12.9661 90.1338 12.9824C90.1826 12.9987 90.2314 13.0068 90.2803 13.0068C90.3291 12.9906 90.3942 12.9824 90.4756 12.9824C90.5407 12.9824 90.5977 12.9906 90.6465 13.0068C90.7116 13.0068 90.7767 13.0068 90.8418 13.0068C90.9883 13.0231 91.1022 13.0312 91.1836 13.0312L91.5254 13.0068H91.9893C92.152 13.0068 92.2415 13.0068 92.2578 13.0068C92.2904 12.9906 92.3148 12.9906 92.3311 13.0068C92.5101 13.0068 92.624 13.0068 92.6729 13.0068C92.738 12.9906 92.7949 12.9824 92.8438 12.9824C92.974 12.9824 93.0716 12.9824 93.1367 12.9824C93.2669 12.9661 93.4053 12.9661 93.5518 12.9824H93.8203C93.9668 12.9499 94.0563 12.9336 94.0889 12.9336C94.154 12.9336 94.2191 12.9417 94.2842 12.958C94.3493 12.9743 94.4225 12.9824 94.5039 12.9824C94.569 12.9824 94.6341 12.9743 94.6992 12.958C94.7806 12.9417 94.8538 12.9336 94.9189 12.9336C95.0329 12.9661 95.1224 13.0068 95.1875 13.0557C95.2526 13.1045 95.3014 13.1452 95.334 13.1777C95.334 13.2103 95.3258 13.2428 95.3096 13.2754C95.3096 13.3079 95.3096 13.3649 95.3096 13.4463C95.3096 13.609 95.3177 13.7637 95.334 13.9102C95.3503 14.0566 95.3665 14.2031 95.3828 14.3496C95.3828 14.5449 95.3665 14.724 95.334 14.8867C95.334 14.9355 95.334 14.9925 95.334 15.0576C95.3503 15.1064 95.3503 15.1553 95.334 15.2041C95.334 15.2855 95.3177 15.3587 95.2852 15.4238C95.2689 15.4889 95.2689 15.5622 95.2852 15.6436C95.2526 15.6761 95.2445 15.7168 95.2607 15.7656C95.277 15.7982 95.2689 15.847 95.2363 15.9121L95.1875 16.2051C95.1712 16.3678 95.1549 16.5387 95.1387 16.7178C95.1224 16.8805 95.1143 17.0433 95.1143 17.2061C95.1143 17.2549 95.1143 17.3037 95.1143 17.3525C95.1305 17.3851 95.1387 17.4258 95.1387 17.4746C95.1387 17.5723 95.1224 17.6862 95.0898 17.8164C95.0736 17.9303 95.0492 18.0524 95.0166 18.1826C95.0166 18.2477 95.0166 18.3128 95.0166 18.3779C95.0166 18.443 95.0085 18.5081 94.9922 18.5732C94.9922 18.6383 94.9922 18.7035 94.9922 18.7686C95.0085 18.8337 95.0166 18.8988 95.0166 18.9639C95.0166 19.0452 95.0003 19.1104 94.9678 19.1592C94.9515 19.208 94.9434 19.265 94.9434 19.3301C94.9108 19.444 94.9027 19.5661 94.9189 19.6963C94.9352 19.8102 94.9434 19.9404 94.9434 20.0869C94.9434 20.152 94.9352 20.2171 94.9189 20.2822C94.9027 20.3473 94.8945 20.4124 94.8945 20.4775C94.8783 20.6077 94.8701 20.738 94.8701 20.8682C94.8864 20.9821 94.8864 21.1042 94.8701 21.2344C94.8701 21.3483 94.862 21.4622 94.8457 21.5762C94.8457 21.6738 94.8376 21.7878 94.8213 21.918C94.8213 22.1458 94.8213 22.3737 94.8213 22.6016C94.8376 22.8132 94.8376 23.0329 94.8213 23.2607C94.8376 23.4235 94.8376 23.5212 94.8213 23.5537C94.8213 23.5863 94.8213 23.6188 94.8213 23.6514C94.805 23.8141 94.7969 23.9118 94.7969 23.9443C94.8132 23.9606 94.8213 23.985 94.8213 24.0176C94.8376 24.1478 94.8376 24.278 94.8213 24.4082C94.8213 24.5384 94.8294 24.6523 94.8457 24.75L94.8701 25.1895C94.8701 25.2871 94.8701 25.3766 94.8701 25.458C94.8701 25.5394 94.8864 25.6045 94.9189 25.6533C94.9515 25.7184 94.9922 25.7673 95.041 25.7998C95.1061 25.8324 95.1794 25.8649 95.2607 25.8975C95.3421 25.93 95.4316 25.9544 95.5293 25.9707C95.627 25.987 95.7409 26.0033 95.8711 26.0195C95.9525 26.0195 96.0257 26.0195 96.0908 26.0195C96.1722 26.0033 96.2536 25.9951 96.335 25.9951C96.5791 26.0114 96.807 26.0114 97.0186 25.9951C97.2301 25.9788 97.401 25.987 97.5312 26.0195C97.7266 26.0033 97.8568 25.987 97.9219 25.9707C97.987 25.9544 98.0521 25.9544 98.1172 25.9707C98.2799 25.9707 98.4264 25.9544 98.5566 25.9219C98.6055 25.9056 98.6543 25.8975 98.7031 25.8975C98.752 25.8975 98.8008 25.8893 98.8496 25.873C99.0449 25.8893 99.1589 25.8975 99.1914 25.8975C99.2402 25.8975 99.3053 25.8893 99.3867 25.873C99.582 25.8405 99.7041 25.8242 99.7529 25.8242C99.932 25.8079 100.03 25.8079 100.046 25.8242C100.062 25.8242 100.078 25.8242 100.095 25.8242C100.16 25.8242 100.217 25.8161 100.266 25.7998C100.314 25.7835 100.38 25.7754 100.461 25.7754C100.64 25.7754 100.729 25.7754 100.729 25.7754C100.746 25.7591 100.762 25.751 100.778 25.751C100.827 25.7347 100.868 25.7184 100.9 25.7021C100.933 25.6859 100.982 25.6777 101.047 25.6777C101.112 25.6452 101.169 25.637 101.218 25.6533C101.283 25.6533 101.356 25.6452 101.438 25.6289C101.6 25.5964 101.69 25.5719 101.706 25.5557C101.739 25.5394 101.771 25.5312 101.804 25.5312C101.95 25.5475 102.032 25.5475 102.048 25.5312C102.064 25.515 102.097 25.5068 102.146 25.5068C102.259 25.5068 102.349 25.5231 102.414 25.5557C102.544 25.5557 102.618 25.5638 102.634 25.5801C102.666 25.5801 102.699 25.5801 102.731 25.5801C102.797 25.7103 102.837 25.8079 102.854 25.873C102.87 25.9382 102.878 26.0033 102.878 26.0684C102.894 26.1335 102.894 26.2067 102.878 26.2881C102.813 26.4671 102.772 26.5729 102.756 26.6055C102.74 26.638 102.723 26.6706 102.707 26.7031C102.674 26.8496 102.65 26.931 102.634 26.9473C102.634 26.9635 102.634 26.988 102.634 27.0205C102.601 27.1507 102.585 27.2321 102.585 27.2646C102.601 27.2972 102.601 27.3379 102.585 27.3867C102.569 27.4518 102.536 27.5169 102.487 27.582C102.455 27.6309 102.455 27.696 102.487 27.7773C102.422 27.9401 102.373 28.0459 102.341 28.0947C102.292 28.2738 102.259 28.3714 102.243 28.3877C102.243 28.404 102.243 28.4202 102.243 28.4365C102.146 28.6481 102.097 28.7946 102.097 28.876C102.097 28.9411 102.064 28.998 101.999 29.0469C101.999 29.112 101.983 29.1771 101.95 29.2422C101.934 29.291 101.91 29.3398 101.877 29.3887C101.861 29.4538 101.844 29.5107 101.828 29.5596C101.812 29.5921 101.787 29.6328 101.755 29.6816C101.706 29.8281 101.665 29.9339 101.633 29.999C101.568 30.1455 101.527 30.2269 101.511 30.2432C101.511 30.2594 101.511 30.2757 101.511 30.292C101.381 30.471 101.307 30.5768 101.291 30.6094C101.275 30.6419 101.242 30.6745 101.193 30.707C101.079 30.8535 100.974 30.9349 100.876 30.9512C100.795 30.9674 100.713 30.9837 100.632 31C100.534 31 100.437 31 100.339 31C100.257 31.0163 100.176 31.0407 100.095 31.0732C99.9482 31.0407 99.8669 31.0163 99.8506 31C99.8343 31 99.8099 31 99.7773 31C99.6471 30.9674 99.5495 30.9512 99.4844 30.9512L98.6787 30.9756C98.5485 30.9756 98.4264 30.9756 98.3125 30.9756C98.2148 30.9593 98.109 30.9593 97.9951 30.9756C97.8649 30.9756 97.7917 30.9837 97.7754 31C97.7591 31 97.7428 31 97.7266 31C97.6289 31.0163 97.5638 31.0326 97.5312 31.0488C97.4987 31.0651 97.4661 31.0732 97.4336 31.0732C97.2546 31.0732 97.165 31.0651 97.165 31.0488C97.165 31.0488 97.1569 31.0488 97.1406 31.0488C97.0592 31.0651 97.0023 31.0651 96.9697 31.0488C96.9535 31.0488 96.9128 31.057 96.8477 31.0732C96.6849 31.0895 96.5954 31.0895 96.5791 31.0732C96.5791 31.0732 96.571 31.0732 96.5547 31.0732C96.3431 31.1221 96.2373 31.1465 96.2373 31.1465C96.1396 31.1465 96.042 31.1465 95.9443 31.1465C95.7816 31.1465 95.6758 31.1546 95.627 31.1709C95.5781 31.1872 95.5212 31.1953 95.4561 31.1953C95.2933 31.2116 95.1956 31.2116 95.1631 31.1953C95.1305 31.1953 95.098 31.1953 95.0654 31.1953C95.0003 31.2116 94.9352 31.2197 94.8701 31.2197C94.805 31.236 94.7318 31.2441 94.6504 31.2441C94.6016 31.2441 94.5527 31.236 94.5039 31.2197C94.4714 31.2197 94.4307 31.2197 94.3818 31.2197C94.2028 31.2523 94.1133 31.2604 94.1133 31.2441C94.1133 31.2441 94.1051 31.2441 94.0889 31.2441C93.9098 31.2604 93.7959 31.2686 93.7471 31.2686C93.6982 31.2848 93.6576 31.293 93.625 31.293L93.2832 31.2441Z" fill="#FA8000"/>
<line x1="21.928" y1="11.3691" x2="4.16366" y2="20.5576" stroke="#A6EAFF" stroke-width="5" stroke-linecap="round"/>
<line x1="3.3541" y1="20.882" x2="21.2426" y2="29.8262" stroke="#A6EAFF" stroke-width="5" stroke-linecap="round"/>
<line x1="105.383" y1="30.8113" x2="123.148" y2="21.6228" stroke="#A6EAFF" stroke-width="5" stroke-linecap="round"/>
<line x1="123.957" y1="21.2984" x2="106.069" y2="12.3541" stroke="#A6EAFF" stroke-width="5" stroke-linecap="round"/>
</svg>
